<?xml version="1.0" encoding="UTF-8"?>
<svg width="75px" height="70px" viewBox="0 0 75 70" version="1.1" xmlns="http://www.w3.org/2000/svg" xmlns:xlink="http://www.w3.org/1999/xlink">
    <!-- Generator: Sketch 46.2 (44496) - http://www.bohemiancoding.com/sketch -->
    <title>ico-piggy-bank</title>
    <desc>Created with Sketch.</desc>
    <defs></defs>
    <g id="Homepage" stroke="none" stroke-width="1" fill="none" fill-rule="evenodd">
        <g id="Homepage-1366---Promo-Slots" transform="translate(-212.000000, -3783.000000)" fill-rule="nonzero" fill="#FFFFFF">
            <g id="noun_1038915_cc" transform="translate(212.000000, 3783.000000)">
                <g id="ico-piggy-bank">
                    <path d="M68.4710106,24.3051136 L65.7718085,24.3051136 C63.7444149,19.3168182 60.3007979,15.0388636 55.7457447,11.8514773 L58.5869681,2.15329545 C58.7146277,1.71818182 58.5837766,1.24806818 58.250266,0.941818182 C57.9167553,0.635568182 57.4356383,0.5425 57.0111702,0.703977273 L41.9026596,6.45829545 C40.0795213,6.18625 38.2547872,6.04863636 36.4763298,6.04863636 C24.6710106,6.04863636 14.7885638,11.43625 9.44601064,19.8084091 C3.52898936,19.6564773 2.5587766,15.5352273 2.51728723,15.3435227 C2.38723404,14.7007955 1.7537234,14.2847727 1.11542553,14.4088636 C0.466755319,14.5353409 0.0430851064,15.1613636 0.169148936,15.8088636 C0.564095745,17.8277273 2.74228723,21.4764773 8.1287234,22.1056818 C6.21702128,25.8673864 5.15904255,30.1254545 5.15904255,34.6993182 C5.15904255,43.1040909 8.90026596,50.8780682 15.4731383,56.2338636 L14.7367021,56.9680682 C11.9265957,59.7696591 11.9265957,64.3292045 14.7367021,67.1307955 C16.0978723,68.4878409 17.9082447,69.2355682 19.8343085,69.2355682 C21.7595745,69.2355682 23.5699468,68.4878409 24.931117,67.1307955 L29.4095745,62.6659091 C34.6244681,63.6952273 40.2486702,63.5496591 45.3007979,62.2761364 L50.1718085,67.1315909 C51.5321809,68.4886364 53.3433511,69.2363636 55.2694149,69.2363636 C57.193883,69.2363636 59.0050532,68.4886364 60.3654255,67.1315909 C63.1763298,64.33 63.1763298,59.7704545 60.3654255,56.9688636 L58.6340426,55.2419318 C61.7585106,52.4077273 64.2007979,48.9323864 65.7638298,45.0943182 L68.4710106,45.0943182 C71.7702128,45.0943182 74.4550532,42.4184091 74.4550532,39.1284091 L74.4550532,30.2710227 C74.4550532,26.9810227 71.7702128,24.3051136 68.4710106,24.3051136 Z M72.0614362,39.1268182 C72.0614362,41.1003409 70.449734,42.7063636 68.4710106,42.7063636 L64.9460106,42.7063636 C64.4457447,42.7063636 63.9973404,43.0173864 63.8242021,43.4851136 C62.2779255,47.6421591 59.6138298,51.3680682 56.1167553,54.2619318 C55.8582447,54.4767045 55.7018617,54.7893182 55.6867021,55.125 C55.6715426,55.4606818 55.7976064,55.7868182 56.0361702,56.0238636 L58.674734,58.6552273 C60.5529255,60.5269318 60.5529255,63.5727273 58.674734,65.4436364 C57.7659574,66.3504545 56.5571809,66.85 55.2710106,66.85 C53.9840426,66.85 52.7744681,66.3504545 51.8656915,65.4436364 L46.5079787,60.1029545 C46.2805851,59.87625 45.975,59.75375 45.6614362,59.75375 C45.5553191,59.75375 45.4492021,59.7680682 45.343883,59.7967045 C42.525,60.5714773 39.5409574,60.9636364 36.4763298,60.9636364 C34.0308511,60.9636364 31.6069149,60.7075 29.274734,60.2015909 C28.8805851,60.1140909 28.4625,60.2365909 28.1744681,60.52375 L23.2388298,65.4444318 C22.3292553,66.35125 21.1204787,66.8507955 19.8343085,66.8507955 C18.5481383,66.8507955 17.3385638,66.35125 16.4289894,65.4444318 C14.5515957,63.5727273 14.5515957,60.5269318 16.4289894,58.6560227 L18.1228723,56.9672727 C18.3694149,56.7214773 18.4962766,56.3826136 18.4707447,56.0357955 C18.4452128,55.6897727 18.2696809,55.3723864 17.9904255,55.1655682 C11.3577128,50.2552273 7.55265957,42.7954545 7.55265957,34.6993182 C7.55265957,19.7264773 19.9867021,8.435 36.4755319,8.435 C38.2340426,8.435 40.0396277,8.57977273 41.8460106,8.86375 C42.0550532,8.89715909 42.2648936,8.87409091 42.4603723,8.80011364 L55.6125,3.79034091 L53.2029255,12.0153409 C53.056117,12.5188636 53.2539894,13.0581818 53.693617,13.3469318 C58.4265957,16.4563636 61.9308511,20.8011364 63.8289894,25.9127273 C64.0021277,26.38125 64.4489362,26.6914773 64.9507979,26.6914773 L68.4694149,26.6914773 C70.4481383,26.6914773 72.0598404,28.2975 72.0598404,30.2710227 L72.0598404,39.1268182 L72.0614362,39.1268182 Z" id="Shape"></path>
                    <ellipse id="Oval" cx="51.3853723" cy="27.8711364" rx="3.32473404" ry="3.31465909"></ellipse>
                </g>
            </g>
        </g>
    </g>
</svg>