<?xml version="1.0" encoding="UTF-8" standalone="no"?>
<svg width="64px" height="64px" viewBox="0 0 64 64" version="1.1" xmlns="http://www.w3.org/2000/svg" xmlns:xlink="http://www.w3.org/1999/xlink" xmlns:sketch="http://www.bohemiancoding.com/sketch/ns">
    <!-- Generator: Sketch 3.2.2 (9983) - http://www.bohemiancoding.com/sketch -->
    <title>logo-w</title>
    <desc>Created with Sketch.</desc>
    <defs></defs>
    <g id="Page-1" stroke="none" stroke-width="1" fill="none" fill-rule="evenodd" sketch:type="MSPage">
        <g id="Editorial-Blog-Post" sketch:type="MSArtboardGroup" transform="translate(-79.000000, -57.000000)" stroke="#FFFFFF" stroke-width="2" fill="#FFFFFF">
            <g id="logo-w" sketch:type="MSLayerGroup" transform="translate(79.000000, 57.000000)">
                <path d="M0,0 L64,0 L64,64 L0,64 L0,0 Z M13.947,53.004 C13.947,53.396002 13.8840006,53.7739982 13.758,54.138 C13.6319994,54.5020018 13.4453346,54.8216653 13.198,55.097 C12.9506654,55.3723347 12.6403352,55.5916659 12.267,55.755 C11.8936648,55.9183342 11.4596691,56 10.965,56 C10.1809961,56 9.53933583,55.8180018 9.04,55.454 C8.54066417,55.0899982 8.21166746,54.5113373 8.053,53.718 L9.705,53.326 C9.76100028,53.6526683 9.89399895,53.913999 10.104,54.11 C10.314001,54.306001 10.5729985,54.404 10.881,54.404 C11.3850025,54.404 11.7279991,54.2336684 11.91,53.893 C12.0920009,53.5523316 12.183,53.0833363 12.183,52.486 L12.183,45.836 L13.947,45.836 L13.947,53.004 Z M16.131,45.836 L18.819,45.836 L21.465,52.78 L24.139,45.836 L26.799,45.836 L26.799,55.748 L25.119,55.748 L25.119,47.516 L25.091,47.516 L22.081,55.748 L20.849,55.748 L17.839,47.516 L17.811,47.516 L17.811,55.748 L16.131,55.748 L16.131,45.836 Z" id="Rectangle-41" sketch:type="MSShapeGroup"></path>
            </g>
        </g>
    </g>
</svg>