<?xml version="1.0" encoding="UTF-8" standalone="no"?>
<svg width="20px" height="17px" viewBox="0 0 20 17" version="1.1" xmlns="http://www.w3.org/2000/svg" xmlns:xlink="http://www.w3.org/1999/xlink" xmlns:sketch="http://www.bohemiancoding.com/sketch/ns">
    <!-- Generator: Sketch 3.2.2 (9983) - http://www.bohemiancoding.com/sketch -->
    <title>twitter-w</title>
    <desc>Created with Sketch.</desc>
    <defs></defs>
    <g id="Page-1" stroke="none" stroke-width="1" fill="none" fill-rule="evenodd" sketch:type="MSPage">
        <g id="Editorial-Blog-Post" sketch:type="MSArtboardGroup" transform="translate(-1110.000000, -81.000000)" fill="#FFFFFF">
            <g id="GET-IN-TOUCH-+-twitter-+-HOME-+-Line" sketch:type="MSLayerGroup" transform="translate(695.000000, 80.000000)">
                <g id="twitter-w" transform="translate(415.000000, 1.000000)" sketch:type="MSShapeGroup">
                    <path d="M17.316,4.511375 C17.324,4.6835 17.327,4.85775 17.327,5.029875 C17.327,10.33175 13.53,16.44325 6.587,16.44325 C4.454,16.44325 2.471,15.7791875 0.8,14.6401875 C1.096,14.677375 1.396,14.6965 1.7,14.6965 C3.47,14.6965 5.097,14.05475 6.388,12.9805625 C4.737,12.947625 3.342,11.7895 2.862,10.19575 C3.092,10.2414375 3.329,10.265875 3.572,10.265875 C3.917,10.265875 4.251,10.2180625 4.567,10.1266875 C2.84,9.7569375 1.539,8.136625 1.539,6.19225 L1.539,6.1423125 C2.048,6.443 2.631,6.623625 3.249,6.644875 C2.236,5.9245 1.569,4.698375 1.569,3.3054375 C1.569,2.57125 1.755,1.8816875 2.081,1.2888125 C3.942,3.716625 6.725,5.3125 9.862,5.480375 C9.798,5.1860625 9.765,4.881125 9.765,4.5655625 C9.765,2.3513125 11.454,0.55675 13.539,0.55675 C14.625,0.55675 15.606,1.0423125 16.295,1.8221875 C17.154,1.6415625 17.962,1.3079375 18.692,0.8489375 C18.41,1.785 17.811,2.57125 17.032,3.0674375 C17.796,2.9696875 18.522,2.756125 19.2,2.4363125 C18.694,3.2416875 18.054,3.9471875 17.316,4.511375 L17.316,4.511375 Z" id="Shape"></path>
                </g>
            </g>
        </g>
    </g>
</svg>