<?xml version="1.0" encoding="UTF-8" standalone="no"?>
<svg width="32px" height="32px" viewBox="0 0 32 32" version="1.1" xmlns="http://www.w3.org/2000/svg" xmlns:xlink="http://www.w3.org/1999/xlink" xmlns:sketch="http://www.bohemiancoding.com/sketch/ns">
    <!-- Generator: Sketch 3.0.4 (8054) - http://www.bohemiancoding.com/sketch -->
    <title>ico-twitter</title>
    <desc>Created with Sketch.</desc>
    <defs></defs>
    <g id="Page-1" stroke="none" stroke-width="1" fill="none" fill-rule="evenodd" sketch:type="MSPage">
        <g id="Landscape" sketch:type="MSArtboardGroup" transform="translate(-95.000000, -640.000000)">
            <g id="ico-twitter" sketch:type="MSLayerGroup" transform="translate(96.000000, 641.000000)">
                <g id="twitter" transform="translate(7.000000, 8.000000)" fill="#FFFFFF" sketch:type="MSShapeGroup">
                    <path d="M16.316,3.246 C16.324,3.408 16.327,3.572 16.327,3.734 C16.327,8.724 12.53,14.476 5.587,14.476 C3.454,14.476 1.471,13.851 -0.2,12.779 C0.096,12.814 0.396,12.832 0.7,12.832 C2.47,12.832 4.097,12.228 5.388,11.217 C3.737,11.186 2.342,10.096 1.862,8.596 C2.092,8.639 2.329,8.662 2.572,8.662 C2.917,8.662 3.251,8.617 3.567,8.531 C1.84,8.183 0.539,6.658 0.539,4.828 L0.539,4.781 C1.048,5.064 1.631,5.234 2.249,5.254 C1.236,4.576 0.569,3.422 0.569,2.111 C0.569,1.42 0.755,0.771 1.081,0.213 C2.942,2.498 5.725,4 8.862,4.158 C8.798,3.881 8.765,3.594 8.765,3.297 C8.765,1.213 10.454,-0.476 12.539,-0.476 C13.625,-0.476 14.606,-0.019 15.295,0.715 C16.154,0.545 16.962,0.231 17.692,-0.201 C17.41,0.68 16.811,1.42 16.032,1.887 C16.796,1.795 17.522,1.594 18.2,1.293 C17.694,2.051 17.054,2.715 16.316,3.246 L16.316,3.246 Z" id="Shape"></path>
                </g>
                <circle id="Oval-2" stroke="#FFFFFF" stroke-width="2" sketch:type="MSShapeGroup" cx="15" cy="15" r="15"></circle>
            </g>
        </g>
    </g>
</svg>