<?xml version="1.0" encoding="UTF-8" standalone="no"?>
<svg width="78px" height="78px" viewBox="0 0 78 78" version="1.1" xmlns="http://www.w3.org/2000/svg" xmlns:xlink="http://www.w3.org/1999/xlink" xmlns:sketch="http://www.bohemiancoding.com/sketch/ns">
    <!-- Generator: Sketch 3.3.2 (12043) - http://www.bohemiancoding.com/sketch -->
    <title>Group</title>
    <desc>Created with Sketch.</desc>
    <defs></defs>
    <g id="Page-1" stroke="none" stroke-width="1" fill="none" fill-rule="evenodd" sketch:type="MSPage">
        <g id="Group" sketch:type="MSLayerGroup" fill="#FFFFFF">
            <path d="M43.9098587,35.8506261 L40.7531354,39.0073494 L54.7181448,52.9723588 C55.1610277,53.4152417 55.1610277,54.1332967 54.7181448,54.5761796 C54.2752619,55.0190625 53.5572069,55.0190625 53.114324,54.5761796 L39.1493146,40.6111702 L35.4815381,44.2789466 L35.4815381,44.2789466 L33.8777173,42.6751258 L37.5454937,39.0073494 L37.5454937,39.0073494 L23.5971112,25.0589669 C23.1542283,24.616084 23.1542283,23.8980289 23.5971112,23.455146 C24.0399941,23.0122631 24.7580492,23.0122631 25.200932,23.455146 L39.1493146,37.4035286 L42.3060379,34.2468052 L43.9098587,35.8506261 Z M48.7213212,31.0391636 L54.5761796,25.1843052 C55.0190625,24.7414223 55.0190625,24.0233672 54.5761796,23.5804843 C54.1332967,23.1376014 53.4152417,23.1376014 52.9723588,23.5804843 L47.1175004,29.4353428 L48.7213212,31.0391636 Z M30.6700757,49.0904091 L25.0589669,54.7015179 C24.616084,55.1444008 23.8980289,55.1444008 23.455146,54.7015179 C23.0122631,54.258635 23.0122631,53.54058 23.455146,53.0976971 L29.0662548,47.4865883 L30.6700757,49.0904091 L30.6700757,49.0904091 Z" id="Shape-Copy-9" stroke="#FFFFFF" stroke-width="3" sketch:type="MSShapeGroup"></path>
            <path d="M39,77.9364919 C60.5040307,77.9364919 77.9364919,60.5040307 77.9364919,39 C77.9364919,17.4959693 60.5040307,0.0635080645 39,0.0635080645 C17.4959693,0.0635080645 0.0635080645,17.4959693 0.0635080645,39 C0.0635080645,60.5040307 17.4959693,77.9364919 39,77.9364919 L39,77.9364919 Z M39,75.6683468 C18.7486313,75.6683468 2.33165323,59.2513687 2.33165323,39 C2.33165323,18.7486313 18.7486313,2.33165323 39,2.33165323 C59.2513687,2.33165323 75.6683468,18.7486313 75.6683468,39 C75.6683468,59.2513687 59.2513687,75.6683468 39,75.6683468 L39,75.6683468 Z" id="Shape" sketch:type="MSShapeGroup"></path>
            <path d="M32.7606443,61.498194 L46.9442625,61.498194 C47.7862215,61.498194 48.2078761,60.4802297 47.6125212,59.8848748 L18.4989038,30.7712575 C18.1298348,30.4021884 17.5314556,30.4021884 17.1623865,30.7712575 C16.7933174,31.1403265 16.7933174,31.7387057 17.1623865,32.1077748 L46.2760039,61.2213922 L46.9442625,59.608073 L32.7606443,59.608073 C32.2387018,59.608073 31.8155838,60.031191 31.8155838,60.5531335 C31.8155838,61.075076 32.2387018,61.498194 32.7606443,61.498194 L32.7606443,61.498194 Z" id="Shape" sketch:type="MSShapeGroup"></path>
            <path d="M45.38791,17.3885362 L31.2042918,17.3885362 C30.3623328,17.3885362 29.9406782,18.4065004 30.5360331,19.0018553 L59.6496505,48.1154727 C60.0187195,48.4845418 60.6170988,48.4845418 60.9861678,48.1154727 C61.3552369,47.7464036 61.3552369,47.1480244 60.9861678,46.7789553 L31.8725505,17.665338 L31.2042918,19.2786571 L45.38791,19.2786571 C45.9098525,19.2786571 46.3329705,18.8555391 46.3329705,18.3335967 C46.3329705,17.8116542 45.9098525,17.3885362 45.38791,17.3885362 L45.38791,17.3885362 Z" id="Shape" sketch:type="MSShapeGroup"></path>
        </g>
    </g>
</svg>