<?xml version="1.0" encoding="UTF-8"?>
<svg width="72px" height="92px" viewBox="0 0 72 92" version="1.1" xmlns="http://www.w3.org/2000/svg" xmlns:xlink="http://www.w3.org/1999/xlink">
    <!-- Generator: Sketch 45.1 (43504) - http://www.bohemiancoding.com/sketch -->
    <title>Rectangle 2</title>
    <desc>Created with Sketch.</desc>
    <defs></defs>
    <g id="Page-1" stroke="none" stroke-width="1" fill="none" fill-rule="evenodd">
        <g id="Artboard" transform="translate(-250.000000, 0.000000)" fill="#2756ED">
            <g id="Group" transform="translate(250.000000, 0.000000)">
                <path d="M0,0 L72,0 L72,92 L0,92 L0,0 Z M21.1049528,39.2897681 C21.1049528,39.2897681 23.5310509,41.461563 24.1497951,43.5722279 C25.8031945,41.7882222 29.5278067,45.5760975 25.0013734,47.2358005 C25.5908488,47.7954542 25.1844503,52.1740589 25.1844503,52.1740589 C27.2828002,50.1952537 28.1370955,49.0390643 29.0410651,49.6890271 C30.3022614,50.7578548 28.0387521,52.0094892 28.0387521,52.0094892 C23.2131907,55.707493 25.7587058,59.5826137 25.7587058,59.5826137 C25.7587058,58.7031578 27.1917105,56.9098148 27.1917105,56.9098148 C25.4203575,64.1882311 33.3147616,69.9230769 33.3147616,69.9230769 C31.460285,65.2235029 43.3803318,55.0948794 43.3803318,55.0948794 C44.3292291,56.4168352 43.9346845,58.976857 43.9346845,58.976857 C53.5366355,45.1150688 47.9023747,40.1307077 47.9023747,40.1307077 C49.0702033,39.7723892 50.7648719,41.7402228 50.7648719,41.7402228 C48.4693131,27.7592382 35.7906168,28.4719359 35.7906168,28.4719359 C35.4361705,27.9818742 37.5063589,27 37.5063589,27 C30.9011029,27.763761 26.7970196,30.9921284 25.8810498,33.3109856 C24.9334696,35.9255723 21.1049528,39.2897681 21.1049528,39.2897681 Z" id="Rectangle-2"></path>
            </g>
        </g>
    </g>
</svg>