<?xml version="1.0" encoding="UTF-8" standalone="no"?>
<svg width="74px" height="116px" viewBox="0 0 74 116" version="1.1" xmlns="http://www.w3.org/2000/svg" xmlns:xlink="http://www.w3.org/1999/xlink" xmlns:sketch="http://www.bohemiancoding.com/sketch/ns">
    <!-- Generator: Sketch 3.3.3 (12081) - http://www.bohemiancoding.com/sketch -->
    <title>Group Copy 2</title>
    <desc>Created with Sketch.</desc>
    <defs></defs>
    <g id="Page-1" stroke="none" stroke-width="1" fill="none" fill-rule="evenodd" sketch:type="MSPage">
        <g id="Artboard-14-Copy-5" sketch:type="MSArtboardGroup" transform="translate(-119.000000, -135.000000)" fill="#414141">
            <g id="Group-Copy-2" sketch:type="MSLayerGroup" transform="translate(118.000000, 135.750000)">
                <g id="Path-1-Copy-9-+-Path-17-+-Path-17-Copy-Copy-Copy-Copy-Copy" transform="translate(0.000000, 24.800633)" sketch:type="MSShapeGroup">
                    <path d="M37.9559136,0.150588282 C38.0315862,0.1470718 38.0707096,0.145316208 38.0707096,0.145316208 L38.0706956,0.155964679 C41.0736116,0.297626224 72.5487534,1.85474418 73.9379487,4.94787443 C75.3968095,8.19611909 73.9379487,57.4241217 72.4790879,63.0866271 C71.0202272,68.7491325 41.0608689,89.907993 37.9593651,89.907993 L37.9559136,87.2879423 L37.9524621,89.907993 C34.8509583,89.907993 4.8916,68.7491325 3.43273926,63.0866271 C1.97387852,57.4241217 0.515017739,8.19611909 1.9738785,4.94787443 C3.36307384,1.85474418 34.8382155,0.297626224 37.8411316,0.155964679 L37.8411176,0.145316208 C37.8411176,0.145316208 37.880241,0.1470718 37.9559136,0.150588282 L37.9559136,0.150588282 Z M16.2811189,30.4674817 C16.2811189,30.4674817 22.118743,25.3221097 23.563589,21.3232281 C24.9602363,17.7766501 31.2180372,12.839021 41.2895621,11.6708861 C41.2895621,11.6708861 38.132992,13.1726144 38.6734425,13.9221397 C38.6734425,13.9221397 58.0055934,12.8321036 61.5058025,34.2153315 C61.5058025,34.2153315 58.9218154,31.2056269 57.1411403,31.7536574 C57.1411403,31.7536574 65.7321165,39.3769926 51.091308,60.5779156 C51.091308,60.5779156 51.6928995,56.6624881 50.2460452,54.6406218 C50.2460452,54.6406218 32.0706637,70.1318531 34.8983221,77.3196203 C34.8983221,77.3196203 22.8611372,68.5484558 25.5620509,57.4164762 C25.5620509,57.4164762 23.3770421,60.159306 23.3770421,61.5043905 C23.3770421,61.5043905 19.495706,55.5775842 26.8535982,49.9216692 C26.8535982,49.9216692 30.3049391,48.0073561 28.3818993,46.3726367 C27.0035497,45.3785506 25.7009421,47.1468853 22.501432,50.1733705 C22.501432,50.1733705 23.121098,43.4765101 22.222281,42.6205473 C29.1240704,40.0821132 23.4448773,34.2887444 20.9238163,37.0172932 C19.980371,33.7891352 16.2811189,30.4674817 16.2811189,30.4674817 Z" id="Path-17"></path>
                </g>
                <polygon id="Star-4" sketch:type="MSShapeGroup" points="14.5886076 16.0474684 9.44362656 18.752345 10.4262305 13.0233244 6.2638534 8.96600947 12.0161171 8.13015664 14.5886076 2.91772152 17.1610981 8.13015664 22.9133618 8.96600947 18.7509847 13.0233244 19.7335886 18.752345 "></polygon>
                <polygon id="Star-4-Copy" sketch:type="MSShapeGroup" points="37.9303797 13.1297468 32.7853987 15.8346234 33.7680027 10.1056029 29.6056256 6.04828795 35.3578892 5.21243512 37.9303797 0 40.5028703 5.21243512 46.2551339 6.04828795 42.0927568 10.1056029 43.0753608 15.8346234 "></polygon>
                <polygon id="Star-4-Copy-2" sketch:type="MSShapeGroup" points="61.2721519 16.0474684 56.1271709 18.752345 57.1097748 13.0233244 52.9473977 8.96600947 58.6996614 8.13015664 61.2721519 2.91772152 63.8446424 8.13015664 69.5969061 8.96600947 65.434529 13.0233244 66.4171329 18.752345 "></polygon>
            </g>
        </g>
    </g>
</svg>