<?xml version="1.0" encoding="UTF-8"?>
<svg width="83px" height="41px" viewBox="0 0 83 41" version="1.1" xmlns="http://www.w3.org/2000/svg" xmlns:xlink="http://www.w3.org/1999/xlink">
    <!-- Generator: Sketch 47.1 (45422) - http://www.bohemiancoding.com/sketch -->
    <title>s</title>
    <desc>Created with Sketch.</desc>
    <defs></defs>
    <g id="Page-1" stroke="none" stroke-width="1" fill="none" fill-rule="evenodd">
        <g id="Artboard" transform="translate(-688.000000, -95.000000)" fill="#50E3C2">
            <g id="Group-7">
                <g id="Group-5">
                    <path d="M727.986,108.372 C727.062,107.448 726.666,106.26 726.138,105.072 C724.554,101.508 723.498,100.056 720.858,97.152 C720.33,96.492 719.274,95.7 718.35,95.7 C715.05,95.7 707.526,113.256 703.566,115.896 C703.038,115.104 702.51,114.048 701.454,114.048 C700.794,114.048 699.87,114.312 699.474,114.972 C697.758,117.744 696.438,120.78 694.722,123.684 C692.742,127.116 690.762,130.284 688.518,133.584 C688.386,133.848 688.254,134.112 688.254,134.376 C688.254,134.64 688.518,134.904 688.782,134.904 C689.046,134.904 689.31,134.772 689.574,134.64 C690.102,134.244 696.174,127.512 696.834,126.588 L699.738,122.76 L700.134,122.76 C700.53,123.024 701.322,123.552 701.718,123.552 C702.774,123.552 708.978,116.82 709.638,116.028 C710.562,115.104 711.09,114.444 712.41,114.048 C712.41,115.632 712.278,117.348 712.806,118.8 C714.258,118.272 716.106,116.292 717.294,116.292 L717.294,117.348 C717.162,119.592 717.162,121.836 717.69,124.08 C717.69,124.212 717.822,124.344 717.822,124.608 C717.822,125.268 717.294,125.928 716.766,126.324 C714.39,128.568 712.014,130.548 709.902,132.924 C710.298,133.584 711.09,133.848 711.882,133.98 C715.314,134.508 719.274,134.904 722.838,134.904 C724.158,134.904 724.686,134.508 725.61,133.584 C727.326,131.736 730.758,128.964 731.946,126.72 C731.946,126.72 736.698,121.308 737.622,120.384 C739.206,118.8 741.054,116.952 742.11,114.972 C742.374,114.576 742.506,114.312 742.902,113.916 C743.166,114.708 743.43,115.5 743.43,116.292 C743.43,119.856 733.926,129.492 733.926,132.924 C733.926,133.716 734.454,134.112 735.114,134.244 C735.906,134.508 736.83,134.376 737.754,134.64 C740.394,135.3 743.562,135.168 746.202,135.168 C747.126,135.168 747.918,134.772 748.842,134.772 C752.538,134.772 756.102,134.904 759.798,134.904 C762.834,134.904 766.002,134.904 768.906,134.508 C769.698,134.376 770.226,134.112 770.622,133.32 C770.622,132.924 770.754,132.528 770.886,132.264 C767.718,128.04 764.55,123.552 762.57,118.668 C762.174,117.876 760.458,114.972 759.534,114.972 C758.346,114.972 757.818,117.084 756.63,117.084 C755.442,116.16 745.542,105.864 743.958,105.864 C741.846,105.864 738.678,111.408 736.962,112.728 C735.246,110.88 734.586,108.108 732.606,106.524 C731.022,107.052 729.57,107.712 727.986,108.372 Z" id="s"></path>
                </g>
            </g>
        </g>
    </g>
</svg>