<?xml version="1.0" encoding="UTF-8"?>
<svg width="33px" height="69px" viewBox="0 0 33 69" version="1.1" xmlns="http://www.w3.org/2000/svg" xmlns:xlink="http://www.w3.org/1999/xlink">
    <!-- Generator: Sketch 47.1 (45422) - http://www.bohemiancoding.com/sketch -->
    <title>W</title>
    <desc>Created with Sketch.</desc>
    <defs></defs>
    <g id="Page-1" stroke="none" stroke-width="1" fill="none" fill-rule="evenodd">
        <g id="Desktop-HD" transform="translate(-704.000000, -1337.000000)" fill="#50E3C2">
            <g id="Group-7" transform="translate(0.000000, 1178.000000)">
                <g id="Group-5">
                    <path d="M736.631481,217.114016 L736.631481,217.229321 C736.631481,217.805849 733.864147,219.766044 733.172313,219.996655 L733.402925,220.111961 L733.51823,220.227267 C733.51823,220.803795 731.903952,221.265017 731.44273,221.380323 C731.558035,221.380323 731.673341,221.495628 731.788646,221.495628 C731.903952,221.495628 732.711091,221.265017 732.711091,221.495628 C732.711091,221.95685 731.44273,222.072156 731.212119,222.302767 C730.635591,222.418073 729.943757,222.418073 729.367229,222.418073 C729.021312,222.418073 727.868256,222.187462 727.637645,222.418073 L728.56009,222.648684 L728.56009,222.76399 C728.56009,223.109906 727.637645,223.455823 727.291729,223.455823 C726.945812,223.455823 726.599895,223.340518 726.253978,223.340518 C726.253978,223.340518 726.138673,223.340518 726.138673,223.455823 C726.138673,223.571129 726.369284,223.686434 726.484589,223.686434 C726.484589,223.917045 726.253978,223.917045 726.023367,223.917045 C725.216228,223.917045 724.524394,223.340518 723.832561,223.340518 L723.717255,223.340518 C723.832561,223.571129 723.947867,223.686434 723.60195,223.686434 C723.025422,223.686434 721.526449,222.302767 721.526449,222.072156 L721.526449,221.841545 L720.834616,221.610934 C720.71931,221.726239 720.71931,221.841545 720.71931,221.95685 C720.71931,223.109906 720.949921,224.493573 721.295838,225.646629 C721.411144,226.107852 721.75706,226.569074 721.75706,227.145602 C721.75706,227.376213 721.641755,227.491519 721.411144,227.491519 C720.949921,227.491519 720.488699,227.376213 719.912171,227.376213 C719.68156,227.376213 718.067282,227.491519 718.067282,227.145602 C718.067282,226.223157 718.989726,225.070101 718.989726,223.917045 C718.989726,223.686434 718.989726,223.455823 718.874421,223.225212 C718.64381,223.225212 718.528504,222.994601 718.297893,222.994601 C717.721365,222.994601 717.144837,223.340518 716.568309,223.340518 C715.991781,223.340518 715.530559,223.225212 714.954031,223.225212 C713.224447,223.225212 711.84078,224.147657 710.111196,224.147657 C709.995891,224.147657 709.419363,224.147657 709.419363,224.032351 C709.419363,223.686434 710.111196,223.80174 710.111196,223.455823 L708.151001,223.109906 L708.151001,222.994601 C708.151001,222.879295 708.266307,222.76399 708.381612,222.648684 C708.381612,222.418073 706.536723,222.418073 706.536723,222.072156 C706.536723,221.95685 706.652028,221.841545 706.767334,221.841545 C706.536723,221.380323 705.153056,221.610934 705.153056,221.265017 C705.153056,221.265017 705.383667,221.265017 705.268361,221.149711 C705.153056,220.688489 704.230611,220.688489 704.230611,220.457878 L704.230611,220.342572 C704.230611,220.227267 704.345917,220.111961 704.461222,220.111961 C704.461222,219.535433 704,219.420128 704,219.189516 C704,219.074211 704.115306,218.958905 704.230611,218.958905 C704.576528,218.958905 705.383667,219.650739 705.614278,219.650739 C705.498973,219.535433 705.03775,219.304822 705.03775,219.074211 C705.03775,218.958905 705.153056,218.8436 705.268361,218.8436 C705.153056,218.612988 704.807139,218.382377 704.807139,218.036461 C704.807139,217.921155 704.922445,217.921155 705.03775,217.921155 C707.689779,219.304822 707.343862,219.304822 710.111196,219.650739 C710.457113,219.650739 710.80303,219.88135 711.148946,219.88135 C711.264252,219.88135 711.725474,219.766044 711.725474,219.650739 C711.725474,219.535433 711.148946,219.535433 711.033641,219.535433 C710.80303,219.535433 709.419363,219.650739 709.419363,219.304822 C709.419363,219.189516 709.534668,219.074211 709.534668,218.958905 L709.073446,218.958905 C708.727529,218.958905 707.228556,218.958905 707.228556,218.497683 C707.228556,218.382377 708.035696,218.382377 708.035696,218.267072 C707.805084,218.151766 705.960195,216.99871 705.960195,216.422182 C705.960195,216.306877 705.960195,216.306877 706.075501,216.306877 C706.306112,216.768099 707.574473,217.229321 708.151001,217.229321 C708.266307,217.229321 708.496918,217.229321 708.496918,217.114016 L707.805084,216.883405 L707.805084,216.768099 C707.805084,216.652793 707.92039,216.537488 708.035696,216.537488 C707.92039,216.537488 707.805084,216.422182 707.689779,216.422182 C707.574473,216.422182 706.536723,216.537488 706.536723,216.306877 C706.536723,216.076266 706.997945,215.845654 707.228556,215.730349 C707.228556,215.499738 705.614278,215.730349 705.614278,215.153821 L705.614278,215.038515 C705.729584,215.038515 706.306112,215.038515 706.306112,214.807904 L706.306112,214.692598 C706.306112,214.577293 706.075501,214.461987 705.960195,214.461987 C705.498973,214.231376 704.345917,213.424237 704.115306,213.07832 C704.115306,212.963015 704.461222,212.963015 704.576528,212.963015 C704.807139,212.963015 706.190806,213.07832 706.306112,212.963015 C706.306112,212.732404 705.498973,212.617098 705.498973,212.386487 C705.498973,212.155876 705.844889,212.155876 705.844889,211.579348 C705.844889,211.464042 705.729584,210.656903 705.960195,210.656903 C706.075501,210.656903 706.190806,211.00282 706.190806,211.118125 C706.421417,211.694653 706.997945,212.501792 707.689779,212.501792 C707.805084,212.501792 707.92039,212.501792 708.035696,212.386487 C707.92039,212.271181 707.228556,211.925264 707.228556,211.579348 L707.343862,211.464042 C707.459168,211.464042 707.574473,211.464042 707.689779,211.348736 C707.459168,210.887514 707.228556,210.310986 707.228556,209.849764 C707.228556,209.734458 707.228556,209.503847 707.343862,209.503847 C707.459168,209.503847 707.689779,209.965069 707.805084,210.080375 C708.151001,210.541597 708.496918,211.00282 708.95814,211.348736 L711.148946,213.07832 C711.379558,213.07832 711.494863,212.963015 711.725474,212.963015 C712.647919,213.07832 713.339753,213.770154 714.377503,213.770154 C714.492808,213.770154 714.838725,213.770154 714.838725,213.539543 L714.492808,213.424237 C714.377503,213.424237 713.455058,213.424237 713.455058,213.193626 C713.455058,212.963015 713.91628,212.963015 713.91628,212.732404 L713.91628,212.617098 C713.224447,212.617098 711.379558,212.386487 710.80303,211.925264 C710.80303,211.809959 711.610169,211.579348 711.725474,211.579348 C711.725474,211.464042 711.379558,211.348736 711.379558,211.348736 C710.457113,211.00282 709.765279,210.656903 709.073446,209.965069 C709.073446,209.965069 708.95814,209.849764 708.95814,209.734458 L708.95814,209.619153 C709.188751,209.619153 709.534668,209.849764 709.765279,209.619153 C709.765279,209.503847 709.649974,209.503847 709.649974,209.388541 L709.649974,208.812014 C709.765279,208.812014 711.033641,209.849764 711.264252,209.965069 C712.302002,210.541597 713.800975,211.118125 714.954031,211.118125 C715.299948,211.00282 716.222392,211.118125 716.337698,210.772209 L715.530559,210.772209 C715.530559,210.426292 715.876475,210.310986 715.876475,210.080375 L715.299948,210.310986 C715.069336,210.310986 713.224447,210.080375 713.224447,209.734458 L713.224447,209.619153 C713.339753,209.619153 713.800975,209.734458 713.91628,209.619153 C714.031586,209.619153 714.608114,209.619153 714.608114,209.388541 C714.608114,209.273236 714.146892,209.273236 714.031586,209.273236 C713.800975,209.15793 713.339753,209.273236 713.339753,209.042625 C713.339753,208.812014 713.455058,208.696708 713.570364,208.581402 L713.339753,208.581402 C713.109141,208.581402 712.87853,208.696708 712.647919,208.812014 L711.956085,208.812014 C711.84078,208.696708 711.494863,208.696708 711.379558,208.581402 L711.610169,208.235486 C711.494863,208.12018 709.188751,208.004874 708.95814,208.004874 L708.842835,207.889569 C708.842835,207.774263 708.95814,207.774263 708.95814,207.658958 L709.073446,207.543652 L708.95814,207.428347 C707.92039,207.428347 708.151001,207.313041 707.343862,207.08243 C707.228556,207.08243 706.421417,206.967124 706.421417,206.736513 C706.421417,206.505902 707.343862,206.621207 707.459168,206.390596 C706.997945,206.275291 706.652028,206.159985 706.190806,206.159985 C706.075501,206.159985 705.383667,206.275291 705.383667,205.929374 C705.383667,205.698763 705.960195,205.698763 705.960195,205.23754 C705.960195,204.891624 705.614278,204.776318 705.268361,204.776318 C705.153056,204.776318 704.576528,205.006929 704.576528,204.776318 C704.576528,204.430401 704.922445,204.19979 705.03775,203.969179 C705.03775,203.738568 705.03775,202.354901 705.383667,202.354901 C705.614278,202.354901 705.729584,203.623262 706.190806,203.623262 C706.421417,203.623262 706.421417,203.277345 706.652028,203.277345 C707.228556,203.277345 706.997945,204.661012 707.574473,204.661012 L707.689779,204.661012 L708.035696,204.430401 C708.266307,204.661012 708.496918,205.23754 708.95814,205.23754 C709.073446,205.23754 709.073446,205.122235 709.073446,205.006929 C709.073446,204.776318 708.151001,204.545707 708.151001,204.19979 C708.151001,204.084484 708.266307,203.969179 708.381612,203.969179 C708.612223,203.969179 708.727529,203.507957 708.727529,203.277345 C708.727529,203.16204 708.727529,203.046734 708.612223,202.931429 L708.266307,202.816123 C708.035696,202.816123 707.689779,202.931429 707.459168,202.931429 L707.228556,202.931429 L707.228556,202.700817 L706.997945,202.585512 C706.652028,202.585512 706.075501,202.585512 705.844889,202.239595 C705.844889,202.008984 706.421417,202.008984 706.421417,201.778373 C705.960195,201.086539 705.268361,200.510011 705.268361,199.587567 C705.268361,199.472261 705.268361,199.356955 705.383667,199.356955 C705.844889,199.356955 707.228556,200.510011 707.689779,200.510011 L707.805084,200.510011 C706.88264,199.587567 706.075501,199.011039 705.498973,197.857983 L705.614278,197.742677 C705.960195,197.742677 706.652028,198.319205 707.113251,198.319205 L707.228556,198.319205 C707.113251,198.2039 706.652028,197.512066 706.652028,197.39676 L706.652028,197.166149 C706.997945,197.166149 707.574473,197.742677 707.805084,197.742677 C707.689779,197.627372 707.574473,197.166149 707.574473,196.935538 L707.574473,196.820233 C707.574473,196.704927 707.574473,196.589621 707.689779,196.589621 C707.92039,196.589621 708.151001,196.704927 708.266307,196.589621 C708.151001,196.243705 707.92039,195.897788 707.92039,195.551871 L707.92039,195.436565 C708.266307,195.436565 708.727529,195.551871 708.727529,195.090649 C708.727529,194.860038 708.496918,194.860038 708.266307,194.860038 C707.92039,194.860038 707.459168,195.090649 707.113251,195.090649 C706.997945,195.090649 706.767334,195.090649 706.767334,194.975343 C706.767334,194.398815 706.767334,194.629426 706.421417,194.168204 C706.421417,193.822287 707.689779,194.052898 707.689779,193.591676 C707.574473,193.361065 707.113251,192.784537 707.113251,192.669231 C707.113251,192.553926 707.113251,192.553926 707.228556,192.553926 C707.459168,192.553926 708.842835,194.629426 712.186697,194.629426 L712.763225,194.629426 L712.993836,194.514121 C713.339753,194.629426 713.91628,194.629426 713.91628,194.052898 C713.91628,193.937593 713.455058,193.937593 713.339753,193.937593 C712.87853,193.937593 712.186697,194.168204 711.725474,194.168204 L711.610169,194.052898 C711.610169,193.937593 711.84078,193.822287 711.84078,193.706982 L710.226502,193.706982 L710.111196,193.591676 C710.111196,193.47637 710.341807,193.361065 710.457113,193.361065 C710.572418,193.245759 710.572418,193.245759 710.572418,193.130454 L710.457113,193.015148 C709.995891,192.784537 708.381612,192.323315 708.381612,191.631481 L708.381612,191.516176 C708.612223,191.516176 709.304057,191.516176 709.419363,191.631481 C709.765279,191.631481 710.457113,192.323315 710.918335,192.323315 C711.033641,192.323315 711.264252,192.208009 711.264252,192.092703 C711.264252,191.746787 710.80303,191.516176 710.80303,191.285564 C710.80303,191.170259 711.033641,191.170259 711.148946,191.170259 C711.956085,191.170259 712.302002,190.939648 712.417308,190.939648 C712.87853,190.939648 713.339753,191.631481 713.800975,191.631481 L713.91628,191.631481 C713.800975,191.40087 713.109141,190.478425 712.87853,190.478425 C711.379558,190.478425 710.341807,191.40087 709.073446,191.40087 L708.95814,191.40087 C708.95814,190.939648 709.649974,190.824342 709.649974,190.593731 C709.649974,190.478425 709.534668,190.478425 709.534668,190.478425 C709.419363,190.478425 708.727529,190.709036 708.727529,190.478425 C708.727529,190.247814 709.188751,190.132508 709.188751,189.901897 L709.188751,189.786592 C708.727529,190.017203 707.92039,190.247814 707.459168,190.247814 C707.343862,190.247814 707.228556,190.247814 707.228556,190.132508 C707.343862,190.017203 707.459168,189.901897 707.459168,189.671286 L707.343862,189.671286 C706.997945,189.671286 706.652028,189.901897 706.306112,189.901897 C706.306112,189.901897 705.960195,189.901897 705.960195,189.786592 C705.960195,189.555981 706.767334,189.325369 706.767334,188.979453 L706.652028,188.864147 C706.536723,188.864147 706.421417,188.748841 706.421417,188.748841 C705.960195,188.748841 705.614278,188.979453 705.268361,188.979453 L705.03775,188.864147 L705.383667,188.51823 C705.268361,188.402925 704.461222,188.057008 704.461222,187.941702 C704.461222,187.711091 705.03775,187.711091 705.03775,187.249869 C705.03775,187.134563 704.922445,186.673341 705.153056,186.673341 L705.268361,186.673341 C706.306112,187.711091 709.073446,189.094758 710.572418,189.094758 C711.033641,189.094758 711.379558,188.979453 711.725474,188.864147 C711.379558,188.633536 710.111196,188.633536 710.111196,188.287619 L709.995891,188.172313 C709.419363,188.287619 706.536723,188.057008 706.536723,187.249869 L706.767334,187.134563 C706.997945,187.134563 707.228556,187.249869 707.574473,187.249869 C707.689779,187.249869 708.95814,187.019258 708.95814,186.788646 C708.95814,186.788646 707.343862,186.44273 707.343862,186.212119 C707.574473,186.212119 707.92039,186.096813 708.035696,185.981507 C708.266307,185.866202 708.727529,185.750896 708.727529,185.520285 L708.035696,185.289674 C707.805084,185.174368 707.228556,185.059063 707.113251,184.828451 C707.113251,184.59784 707.689779,184.59784 707.805084,184.482535 C707.574473,184.136618 706.536723,182.407034 706.536723,182.176423 L706.652028,182.176423 C706.767334,182.176423 707.228556,182.52234 707.343862,182.637645 C708.151001,183.214173 711.725474,184.828451 712.763225,184.828451 C712.993836,184.828451 713.339753,184.828451 713.455058,184.59784 C713.339753,184.59784 712.993836,184.59784 712.87853,184.482535 L712.993836,184.136618 C712.647919,184.136618 710.572418,184.021312 710.572418,183.444784 C710.572418,183.214173 710.918335,183.329479 710.918335,183.098868 L710.918335,182.983562 C710.457113,182.868256 709.995891,182.752951 709.649974,182.52234 C709.534668,182.407034 708.842835,181.945812 708.842835,181.715201 C708.842835,181.599895 708.95814,181.484589 709.073446,181.484589 C709.188751,181.484589 709.534668,181.599895 709.534668,181.369284 C709.534668,180.908062 709.304057,180.562145 709.304057,180.100922 L709.304057,179.985617 C709.649974,179.985617 711.956085,183.329479 715.530559,183.329479 C716.337698,183.329479 717.490754,183.098868 718.067282,182.407034 L717.951976,182.407034 C717.490754,182.407034 717.029531,182.983562 716.453003,182.983562 C716.337698,182.983562 716.222392,182.983562 716.222392,182.868256 C716.222392,182.752951 716.337698,182.637645 716.337698,182.52234 C716.222392,182.52234 716.222392,182.407034 716.107087,182.407034 C715.876475,182.407034 715.530559,182.637645 715.299948,182.637645 C715.184642,182.637645 715.069336,182.52234 715.069336,182.407034 C715.069336,182.291729 715.184642,182.176423 715.184642,182.061117 C715.184642,181.945812 715.184642,181.945812 715.069336,181.945812 L714.838725,181.945812 C714.492808,181.945812 713.224447,182.061117 712.993836,181.830506 C712.993836,181.715201 713.455058,181.484589 713.570364,181.253978 C713.109141,181.253978 712.763225,181.369284 712.302002,181.369284 C712.071391,181.369284 711.84078,181.369284 711.610169,181.138673 C711.610169,181.023367 712.186697,180.908062 712.302002,180.792756 C712.302002,180.67745 711.956085,180.67745 711.84078,180.67745 C711.379558,180.67745 710.457113,180.562145 710.226502,180.100922 C710.226502,179.870311 710.918335,179.985617 711.148946,179.755006 C711.148946,179.6397 710.80303,179.524394 710.687724,179.524394 C710.341807,179.409089 708.842835,178.832561 708.842835,178.371339 L708.95814,178.256033 C709.534668,178.256033 710.572418,178.486644 710.572418,177.679505 C710.572418,176.872366 709.880585,175.71931 709.880585,175.488699 L709.880585,175.373393 C709.880585,175.373393 709.880585,175.142782 709.995891,175.142782 C710.226502,175.142782 711.379558,176.872366 712.302002,176.872366 C712.417308,176.872366 712.532613,176.75706 712.532613,176.641755 C712.532613,176.526449 712.302002,176.065227 712.647919,176.065227 C713.109141,176.065227 713.800975,177.102977 714.262197,177.102977 C714.262197,176.872366 714.262197,176.526449 714.377503,176.295838 C714.72342,176.295838 715.184642,177.679505 716.107087,177.679505 L716.337698,177.679505 C716.222392,177.564199 715.991781,177.448894 715.991781,177.218283 L715.991781,176.872366 C715.991781,176.75706 715.876475,176.75706 715.876475,176.641755 C715.76117,176.526449 715.530559,176.411144 715.530559,176.180532 C715.645864,176.180532 715.876475,175.949921 715.876475,175.834616 C715.876475,175.488699 714.72342,175.71931 714.72342,175.142782 C715.069336,175.142782 715.76117,175.027477 715.876475,174.68156 C715.645864,174.68156 714.031586,174.450949 714.031586,174.220337 C714.031586,173.989726 714.492808,174.105032 714.492808,173.874421 C714.492808,173.528504 713.455058,173.297893 713.224447,172.951976 C713.224447,172.83667 713.224447,172.721365 713.339753,172.721365 L713.570364,172.606059 C713.800975,172.606059 713.91628,172.606059 713.91628,172.375448 C713.91628,172.029531 713.800975,171.683615 713.800975,171.337698 L713.800975,171.222392 C714.031586,171.222392 714.608114,172.144837 714.72342,172.260142 C715.184642,172.951976 717.606059,174.912171 718.297893,174.912171 C718.528504,174.912171 718.759115,174.796865 718.874421,174.68156 C718.874421,173.989726 717.83667,173.874421 717.83667,173.413198 C717.83667,173.067282 717.951976,172.721365 717.721365,172.490754 C717.606059,172.375448 717.260142,172.375448 717.260142,172.144837 C717.260142,171.914226 717.721365,171.79892 717.721365,171.568309 C717.721365,171.337698 717.490754,171.222392 717.375448,171.222392 C717.260142,171.222392 716.683615,171.222392 716.683615,171.107087 C716.683615,169.838725 715.76117,170.76117 715.76117,170.184642 C715.76117,169.954031 716.107087,169.838725 716.107087,169.031586 C716.453003,169.377503 717.490754,170.645864 718.067282,170.645864 C718.182587,170.645864 718.297893,170.530559 718.413198,170.415253 C718.528504,170.299948 718.64381,170.184642 718.64381,170.069336 C718.64381,169.954031 718.528504,169.838725 718.528504,169.72342 L718.297893,169.72342 C718.067282,169.72342 717.260142,169.838725 717.144837,169.608114 C717.144837,169.492808 717.490754,169.262197 717.490754,169.031586 L717.490754,168.91628 C717.490754,168.800975 717.260142,168.339753 717.606059,168.339753 C717.83667,168.339753 718.182587,168.455058 718.413198,168.570364 L718.759115,168.570364 C718.759115,168.224447 717.83667,167.993836 717.83667,167.647919 C717.83667,167.302002 718.64381,167.532613 718.759115,167.071391 C718.64381,167.071391 718.297893,167.071391 718.297893,166.84078 L718.297893,166.725474 C718.413198,166.610169 718.874421,166.610169 718.874421,166.379558 C718.874421,166.264252 717.721365,165.226502 717.721365,165.226502 C717.721365,165.111196 717.606059,165.111196 717.606059,164.995891 C717.606059,164.880585 717.721365,164.880585 717.721365,164.880585 C718.067282,164.880585 718.413198,165.226502 718.64381,165.226502 L718.759115,165.226502 C718.874421,165.111196 718.989726,164.995891 718.989726,164.880585 C718.989726,163.612223 718.182587,164.073446 717.951976,163.496918 L717.83667,163.381612 C717.83667,163.266307 718.067282,163.266307 718.067282,163.266307 L718.067282,163.035696 C717.721365,162.689779 719.105032,162.92039 719.105032,162.459168 C719.105032,162.228556 718.297893,161.997945 718.297893,161.536723 L718.297893,161.421417 C718.528504,161.306112 718.989726,161.190806 719.105032,161.075501 C719.105032,160.729584 718.989726,159 719.450949,159 C719.796865,159 719.796865,160.844889 719.796865,161.190806 C719.796865,161.536723 719.68156,161.997945 719.912171,162.228556 C720.027477,162.574473 720.604005,162.459168 720.834616,162.689779 C720.834616,162.92039 720.142782,163.266307 720.027477,163.381612 C720.142782,163.496918 720.258088,163.496918 720.373393,163.496918 L720.488699,163.496918 C720.373393,163.95814 719.796865,164.073446 719.796865,164.419363 C719.796865,164.880585 720.949921,164.649974 720.949921,164.765279 C720.949921,165.111196 720.142782,165.457113 720.027477,165.80303 L720.488699,165.80303 C720.488699,165.918335 720.373393,165.918335 720.373393,166.033641 C720.373393,166.264252 720.142782,166.494863 720.142782,166.610169 C720.142782,166.725474 720.142782,166.725474 720.258088,166.725474 C720.373393,166.725474 720.488699,166.725474 720.604005,166.610169 L720.604005,166.725474 C720.604005,167.302002 720.142782,167.186697 720.142782,167.532613 C720.373393,167.647919 720.604005,167.647919 720.834616,167.647919 C721.411144,167.647919 721.641755,167.071391 721.987672,167.071391 C722.102977,167.071391 722.102977,167.186697 722.102977,167.186697 C722.102977,167.417308 721.641755,167.87853 721.641755,167.993836 C721.641755,167.993836 721.641755,168.109141 721.75706,168.109141 C721.987672,168.109141 722.218283,167.87853 722.333588,167.87853 L722.448894,167.87853 C722.448894,168.800975 720.142782,169.262197 720.142782,169.608114 L720.142782,169.838725 L720.488699,169.838725 C721.065227,169.838725 721.641755,169.492808 722.218283,169.262197 C722.333588,169.146892 722.564199,168.91628 722.679505,168.91628 C722.794811,168.91628 722.794811,169.031586 722.794811,169.146892 C722.794811,169.492808 722.102977,170.069336 722.102977,170.069336 C722.102977,170.184642 722.218283,170.299948 722.333588,170.299948 C722.448894,170.299948 723.025422,170.069336 723.025422,170.299948 C723.025422,170.645864 721.526449,170.991781 721.295838,171.222392 C721.295838,171.337698 721.411144,171.337698 721.411144,171.337698 C721.75706,171.337698 721.987672,171.107087 722.218283,171.107087 C722.333588,171.107087 722.448894,171.107087 722.448894,171.222392 C722.448894,171.453003 722.218283,171.683615 722.102977,171.914226 C722.102977,172.144837 721.987672,172.260142 721.872366,172.490754 C722.794811,172.029531 723.832561,171.683615 724.524394,170.76117 C724.6397,170.645864 724.755006,170.184642 724.985617,170.184642 C725.100922,170.184642 725.100922,170.299948 725.100922,170.299948 C725.100922,170.530559 724.6397,171.79892 724.524394,171.914226 L724.409089,172.490754 L724.524394,172.490754 C724.6397,172.490754 724.870311,172.260142 724.870311,172.606059 C724.870311,173.182587 723.832561,173.528504 723.371339,173.64381 C722.794811,174.220337 722.448894,174.105032 721.641755,174.105032 C721.75706,174.105032 721.872366,174.220337 721.872366,174.335643 C721.872366,174.68156 721.526449,174.796865 721.526449,175.027477 L721.641755,175.027477 C722.910116,175.027477 724.755006,173.989726 724.870311,173.989726 C724.985617,173.989726 724.985617,174.105032 724.985617,174.220337 C724.985617,174.796865 723.832561,175.488699 723.371339,175.71931 C723.140727,176.526449 721.872366,176.526449 721.180532,176.526449 L720.488699,177.102977 C720.71931,177.333588 720.834616,177.333588 721.065227,177.333588 C723.486644,177.333588 725.562145,174.566254 725.792756,174.566254 L725.792756,174.68156 C725.792756,175.488699 724.985617,176.295838 724.524394,176.987672 C724.6397,176.987672 724.755006,177.102977 724.755006,177.218283 C724.755006,177.794811 723.717255,178.025422 723.256033,178.256033 C723.371339,178.717255 721.180532,180.331534 720.71931,180.331534 L720.949921,180.331534 C722.102977,180.331534 724.985617,178.486644 725.792756,177.794811 L726.945812,176.75706 C727.061117,176.75706 727.061117,176.526449 727.176423,176.526449 C727.176423,176.526449 727.291729,176.526449 727.291729,176.641755 C727.291729,177.102977 725.908062,178.717255 725.562145,179.178478 C725.67745,179.178478 725.792756,179.409089 725.792756,179.409089 C725.792756,179.6397 724.870311,180.792756 724.755006,180.792756 C724.870311,180.792756 725.100922,180.908062 725.100922,181.023367 C725.100922,181.253978 724.870311,181.369284 724.870311,181.599895 C724.870311,181.715201 724.985617,181.715201 724.985617,181.715201 C725.67745,181.715201 727.291729,180.331534 727.52234,180.331534 C727.637645,180.331534 727.752951,180.446839 727.752951,180.562145 C727.752951,181.138673 727.407034,181.715201 727.291729,182.291729 C727.291729,182.407034 726.830506,182.752951 726.830506,182.868256 C726.830506,182.983562 726.945812,182.983562 726.945812,182.983562 C727.637645,182.983562 728.56009,181.715201 729.136618,181.715201 C729.251924,181.715201 729.367229,181.830506 729.367229,181.830506 C729.367229,182.061117 729.021312,182.291729 729.482535,182.291729 C730.059063,182.291729 731.096813,181.599895 731.327424,181.599895 C731.44273,181.599895 731.44273,181.715201 731.44273,181.830506 C731.44273,182.752951 728.444784,184.136618 727.983562,184.367229 C728.214173,184.367229 729.136618,184.251924 729.136618,184.482535 C729.136618,184.828451 728.56009,185.174368 728.214173,185.174368 L726.945812,185.520285 C726.945812,185.750896 727.291729,185.635591 727.291729,185.866202 C727.291729,186.673341 723.717255,187.019258 723.371339,187.249869 C723.025422,187.48048 721.641755,187.941702 721.641755,187.941702 C721.872366,188.057008 722.102977,188.172313 722.333588,188.172313 C723.371339,188.172313 724.6397,187.711091 725.562145,187.365174 C725.67745,187.365174 725.792756,187.249869 726.023367,187.249869 L726.023367,187.365174 C726.023367,187.711091 724.755006,188.633536 724.409089,188.748841 L723.717255,188.979453 C723.832561,189.440675 723.256033,189.555981 722.910116,189.555981 L722.679505,189.555981 C722.794811,189.671286 722.794811,189.671286 722.910116,189.671286 C723.371339,189.671286 726.023367,188.748841 726.369284,188.51823 L727.52234,187.711091 C727.637645,187.711091 727.752951,187.826397 727.752951,187.941702 C727.752951,188.402925 727.176423,189.094758 726.830506,189.210064 C726.715201,189.786592 726.369284,190.132508 726.023367,190.478425 L726.138673,190.478425 C727.176423,190.478425 729.251924,187.134563 730.059063,186.327424 L730.174368,186.558035 C730.174368,187.019258 729.713146,187.941702 729.482535,188.51823 L729.59784,188.51823 C729.713146,188.51823 729.828451,188.51823 729.943757,188.633536 C729.943757,189.440675 728.790701,189.901897 728.329479,190.36312 C728.444784,190.478425 728.56009,190.478425 728.675396,190.478425 C728.675396,190.824342 728.098868,191.516176 727.752951,191.631481 L727.868256,191.631481 C727.983562,191.631481 728.214173,191.516176 728.329479,191.516176 C728.444784,191.516176 728.444784,191.631481 728.444784,191.631481 C728.444784,192.092703 726.253978,192.669231 725.908062,192.784537 C725.908062,193.015148 726.715201,193.015148 726.830506,193.015148 C729.136618,193.015148 730.866202,191.054953 731.44273,191.054953 L731.44273,191.170259 C731.44273,191.516176 730.866202,191.862092 730.866202,192.092703 C730.866202,192.208009 730.981507,192.208009 731.096813,192.208009 L731.327424,192.208009 C731.44273,192.092703 731.673341,191.977398 731.903952,191.977398 L732.019258,192.092703 C732.019258,192.323315 731.558035,192.669231 731.44273,192.784537 L730.059063,193.937593 C730.059063,194.052898 730.289674,194.052898 730.289674,194.052898 C730.404979,194.052898 730.750896,194.052898 730.750896,194.168204 C730.750896,194.514121 729.251924,195.32126 728.906007,195.551871 C729.021312,195.782482 729.828451,195.782482 730.059063,195.782482 C731.096813,195.782482 732.134563,195.32126 733.172313,195.32126 C733.287619,195.32126 733.402925,195.436565 733.402925,195.551871 L733.402925,195.667177 C733.402925,195.782482 733.633536,195.782482 733.633536,195.782482 C733.864147,195.667177 734.210064,195.551871 734.440675,195.551871 C734.555981,195.551871 734.555981,195.551871 734.555981,195.667177 C734.555981,196.704927 731.903952,196.820233 731.327424,196.820233 L731.788646,197.166149 C731.673341,197.281455 731.558035,197.281455 731.44273,197.281455 C730.635591,197.281455 730.059063,197.166149 729.367229,196.820233 C729.367229,197.050844 729.367229,197.39676 729.136618,197.39676 C728.329479,197.39676 728.098868,196.935538 727.52234,196.820233 C727.407034,196.935538 727.291729,197.050844 727.061117,197.050844 C726.599895,197.050844 726.023367,196.474316 725.562145,196.474316 C725.331534,196.474316 725.216228,196.589621 724.985617,196.589621 C724.985617,196.589621 724.755006,196.474316 724.6397,196.474316 C724.6397,196.820233 726.945812,197.281455 727.061117,197.39676 C726.945812,197.512066 726.830506,197.857983 726.599895,197.857983 C726.715201,197.857983 726.830506,197.973288 726.945812,198.088594 C726.945812,198.2039 726.599895,198.665122 726.599895,198.780427 C726.599895,198.895733 726.715201,198.895733 726.830506,198.895733 C727.061117,198.895733 727.752951,198.549816 727.983562,198.434511 L729.021312,198.088594 C729.251924,197.857983 729.482535,197.742677 729.713146,197.627372 L729.828451,197.857983 C729.828451,198.088594 729.482535,198.434511 729.482535,198.665122 C730.289674,198.665122 732.826397,197.050844 733.057008,197.050844 C733.057008,197.050844 733.172313,197.166149 733.172313,197.281455 C733.172313,197.39676 732.941702,197.627372 732.826397,197.742677 L732.48048,198.434511 L731.903952,198.895733 C732.249869,198.895733 732.826397,198.549816 733.057008,198.434511 L733.287619,198.665122 C733.172313,198.895733 732.941702,199.472261 732.711091,199.587567 C732.595786,199.702872 732.249869,200.048789 732.249869,200.164095 C732.249869,200.2794 732.365174,200.2794 732.365174,200.2794 C732.826397,200.2794 733.633536,199.933483 733.979453,199.587567 C734.094758,199.472261 734.210064,199.24165 734.325369,199.24165 L734.325369,199.356955 C734.325369,200.510011 731.44273,201.778373 730.520285,202.12429 L730.635591,202.12429 C731.212119,202.12429 731.903952,201.893678 732.48048,201.893678 C732.595786,201.778373 732.826397,201.663067 732.941702,201.663067 C732.941702,201.663067 733.057008,201.663067 733.057008,201.778373 C733.057008,202.12429 732.711091,202.354901 732.48048,202.470206 C732.48048,202.585512 732.595786,202.700817 732.711091,202.700817 C732.711091,203.392651 729.943757,203.738568 729.367229,203.853873 C729.367229,203.969179 729.482535,203.969179 729.482535,203.969179 C729.943757,204.19979 731.212119,204.430401 731.673341,204.430401 C732.249869,204.430401 732.826397,204.315096 733.402925,204.315096 L733.633536,204.315096 C733.633536,204.661012 733.057008,204.776318 733.057008,205.122235 C733.172313,205.122235 733.287619,205.23754 733.402925,205.23754 C733.864147,205.23754 734.325369,204.891624 734.786592,204.891624 L734.901897,204.891624 C734.901897,205.583457 732.48048,206.621207 732.48048,206.851819 C732.48048,206.967124 732.711091,207.197735 732.826397,207.197735 C732.826397,207.889569 731.212119,207.774263 730.866202,207.774263 L730.635591,207.774263 C730.750896,207.889569 730.750896,208.004874 730.750896,208.004874 C730.289674,208.350791 729.59784,208.466097 729.136618,208.581402 C728.906007,208.581402 728.098868,208.466097 727.983562,208.696708 C728.329479,208.812014 728.675396,208.812014 729.021312,208.812014 L730.174368,208.812014 L730.289674,209.042625 C730.289674,209.273236 730.059063,209.388541 729.943757,209.503847 L730.174368,209.619153 C730.404979,209.619153 730.750896,209.503847 730.866202,209.388541 C731.327424,209.273236 733.51823,208.004874 733.51823,208.004874 C733.633536,208.004874 733.633536,208.12018 733.633536,208.12018 C733.633536,208.696708 732.249869,209.619153 732.249869,209.965069 C732.249869,210.195681 732.826397,210.195681 732.941702,210.195681 C733.172313,210.195681 733.402925,210.080375 733.633536,210.080375 C733.633536,210.080375 733.748841,210.080375 733.748841,210.195681 C733.748841,210.887514 731.673341,211.00282 731.212119,211.00282 L731.44273,211.118125 C731.558035,211.118125 731.558035,211.348736 731.558035,211.348736 C731.44273,211.464042 730.750896,211.464042 730.635591,211.464042 C730.289674,211.464042 729.828451,211.348736 729.482535,211.579348 C729.943757,211.809959 730.520285,211.925264 731.096813,211.925264 C731.44273,211.925264 731.788646,211.694653 732.134563,211.694653 C732.249869,211.694653 732.365174,211.694653 732.365174,211.809959 C732.365174,212.271181 730.750896,212.963015 730.289674,212.963015 C730.059063,213.193626 729.828451,212.963015 729.59784,213.308931 C729.713146,213.308931 729.828451,213.308931 729.828451,213.424237 L729.943757,213.539543 C729.943757,214.116071 728.790701,214.000765 728.790701,214.577293 L728.790701,214.692598 L728.675396,214.92321 C728.444784,215.038515 726.484589,215.384432 726.369284,215.499738 C726.484589,215.730349 727.407034,215.730349 727.637645,215.730349 C730.289674,215.730349 732.134563,213.770154 733.748841,211.925264 C733.864147,211.925264 733.979453,211.694653 734.094758,211.694653 C734.094758,211.694653 734.210064,211.809959 734.210064,211.925264 C734.210064,212.155876 734.094758,212.386487 734.094758,212.617098 C734.094758,212.732404 734.210064,212.847709 734.325369,212.847709 C734.555981,212.847709 734.671286,212.732404 734.901897,212.732404 C735.017203,212.732404 735.017203,212.732404 735.017203,212.847709 C735.017203,213.308931 733.864147,214.346682 733.864147,214.807904 C733.864147,215.038515 734.671286,215.269126 734.786592,215.269126 L735.247814,215.153821 L735.247814,215.269126 C735.247814,215.615043 734.210064,215.96096 734.094758,216.191571 C734.210064,216.191571 734.786592,216.191571 734.786592,216.422182 C734.786592,217.229321 732.365174,217.229321 731.903952,217.229321 C731.903952,217.459933 732.134563,217.459933 732.249869,217.575238 C732.249869,217.921155 731.558035,217.921155 731.327424,217.921155 C731.096813,217.921155 730.866202,217.921155 730.635591,217.805849 C730.404979,217.805849 730.059063,217.690544 729.828451,217.690544 L729.713146,217.690544 C729.59784,217.690544 729.59784,217.690544 729.482535,217.805849 L728.675396,217.805849 C728.56009,217.690544 727.983562,217.575238 727.752951,217.575238 L727.637645,217.575238 C727.752951,217.805849 728.675396,217.921155 728.906007,218.036461 C728.329479,219.189516 727.637645,219.535433 726.369284,219.535433 L725.446839,219.996655 C725.100922,219.996655 724.755006,219.996655 724.409089,219.766044 C724.6397,220.457878 724.293783,220.573183 723.717255,220.573183 C723.140727,220.573183 722.564199,220.342572 721.987672,220.227267 C721.987672,220.457878 724.063172,220.9191 724.6397,220.9191 C726.023367,220.9191 728.906007,220.227267 729.713146,219.074211 C729.713146,219.074211 729.367229,218.8436 729.367229,218.612988 L729.367229,218.497683 C729.943757,218.497683 730.520285,218.728294 731.096813,218.728294 C731.44273,218.728294 731.903952,218.728294 732.249869,218.612988 C732.365174,218.497683 732.595786,218.382377 732.711091,218.382377 C732.711091,218.382377 732.826397,218.267072 732.826397,218.151766 L732.711091,217.921155 C732.826397,217.805849 732.941702,217.805849 733.057008,217.805849 C734.325369,217.805849 735.478425,217.459933 736.631481,217.114016 Z M712.302002,179.293783 C712.763225,179.409089 713.455058,179.409089 713.91628,179.6397 C714.377503,179.870311 714.72342,180.216228 715.299948,180.216228 C715.991781,180.216228 716.683615,179.985617 717.029531,179.409089 C717.029531,179.293783 716.683615,179.293783 716.568309,179.293783 C716.107087,179.293783 715.991781,179.293783 715.530559,179.6397 C715.069336,179.6397 714.72342,179.293783 714.262197,179.293783 C714.146892,179.293783 713.91628,179.409089 713.685669,179.409089 C712.993836,179.409089 713.339753,178.717255 712.763225,178.717255 C712.417308,178.717255 711.956085,178.60195 711.610169,178.60195 L711.494863,178.60195 C711.494863,178.832561 712.186697,179.178478 712.302002,179.293783 Z M711.033641,220.342572 C711.84078,220.688489 713.685669,220.9191 714.492808,220.9191 C714.954031,220.9191 715.645864,220.9191 715.76117,220.457878 C715.415253,220.573183 714.954031,220.573183 714.608114,220.573183 C714.492808,220.573183 713.800975,220.573183 713.800975,220.457878 C713.800975,220.342572 714.146892,220.342572 714.146892,220.111961 L712.87853,220.111961 C712.302002,220.111961 711.610169,220.111961 711.033641,220.342572 Z M727.176423,200.164095 C726.945812,200.164095 726.715201,200.2794 726.369284,200.394706 C725.908062,200.510011 725.216228,200.510011 724.755006,200.510011 C724.755006,200.855928 725.792756,201.086539 726.138673,201.086539 L726.253978,201.086539 C726.253978,200.971234 726.138673,200.740622 726.369284,200.740622 C726.715201,200.740622 727.061117,200.855928 727.407034,200.855928 C727.752951,200.855928 728.444784,200.855928 728.56009,200.510011 C728.214173,200.394706 727.637645,200.164095 727.176423,200.164095 Z M717.83667,196.35901 C717.144837,196.35901 716.453003,196.474316 715.76117,196.474316 C715.645864,196.474316 715.069336,196.35901 715.069336,196.589621 C715.069336,196.704927 716.337698,197.050844 716.568309,197.050844 C716.79892,197.050844 716.79892,197.39676 717.029531,197.39676 C717.260142,197.39676 717.721365,196.935538 717.83667,196.820233 C717.951976,196.935538 717.951976,196.935538 718.067282,196.820233 L718.182587,196.474316 C718.067282,196.35901 717.951976,196.35901 717.83667,196.35901 Z M710.226502,196.013093 C710.226502,196.589621 711.033641,196.704927 711.494863,196.820233 C711.956085,196.935538 712.186697,197.281455 712.647919,197.39676 C712.763225,197.39676 712.763225,197.281455 712.763225,197.166149 C712.763225,196.243705 711.379558,196.35901 710.80303,196.128399 C710.572418,196.013093 710.457113,195.897788 710.226502,195.897788 L710.226502,196.013093 Z M717.606059,215.038515 C717.029531,215.038515 716.568309,215.269126 715.991781,215.269126 C716.107087,215.615043 717.029531,215.730349 717.375448,215.730349 L717.490754,215.730349 C717.721365,215.730349 718.067282,215.615043 718.067282,215.269126 C718.067282,215.038515 717.721365,215.038515 717.606059,215.038515 Z M721.641755,202.354901 L720.142782,202.12429 C720.142782,202.700817 721.065227,202.931429 721.411144,202.931429 L722.218283,202.931429 C722.102977,202.700817 721.872366,202.585512 721.641755,202.354901 Z M717.490754,221.841545 L717.260142,222.187462 L717.375448,222.187462 C717.721365,222.187462 718.413198,221.610934 718.413198,221.265017 C718.413198,221.149711 718.182587,221.149711 718.067282,221.149711 C717.490754,221.495628 716.683615,221.610934 715.991781,221.841545 C715.991781,221.95685 716.107087,221.95685 716.222392,221.95685 C716.568309,221.95685 716.914226,221.726239 717.260142,221.726239 C717.375448,221.726239 717.490754,221.726239 717.490754,221.841545 Z M712.993836,187.134563 C712.532613,186.903952 712.186697,186.673341 711.725474,186.673341 L711.379558,186.673341 C711.725474,186.903952 713.109141,187.711091 713.339753,187.711091 C713.455058,187.595786 713.455058,187.365174 713.455058,187.249869 C713.455058,187.134563 713.455058,187.019258 713.339753,187.019258 L712.993836,187.134563 Z M713.685669,187.826397 L713.570364,187.826397 C713.91628,188.057008 714.262197,188.172313 714.608114,188.172313 C714.838725,188.172313 715.299948,188.057008 715.415253,187.826397 C714.954031,187.826397 714.838725,187.826397 714.608114,187.365174 L714.492808,187.365174 C714.262197,187.365174 713.91628,187.595786 713.685669,187.826397 Z M714.954031,201.086539 C714.954031,200.855928 714.492808,200.971234 714.262197,200.740622 L713.800975,200.740622 C713.685669,200.740622 713.455058,200.740622 713.339753,200.855928 L714.262197,201.31715 C714.377503,201.31715 714.954031,201.31715 714.954031,201.086539 Z M723.832561,202.931429 L722.218283,202.931429 C722.333588,203.046734 723.025422,203.277345 723.256033,203.277345 L723.60195,203.277345 C723.717255,203.16204 723.832561,203.046734 723.832561,202.931429 Z M710.918335,198.780427 L711.148946,199.356955 C711.264252,199.472261 711.610169,199.587567 711.84078,199.587567 L711.956085,199.587567 C711.725474,199.356955 711.148946,198.780427 710.918335,198.780427 Z M716.79892,213.654848 L716.79892,213.770154 L717.029531,213.770154 C717.144837,213.770154 717.83667,213.539543 717.83667,213.424237 L716.79892,213.654848 Z M717.721365,176.180532 C717.83667,176.295838 717.83667,176.411144 718.067282,176.411144 L717.83667,176.180532 L717.721365,176.180532 Z M718.759115,177.218283 C718.759115,176.987672 718.528504,176.872366 718.413198,176.75706 L718.759115,177.218283 Z M721.75706,220.227267 C721.75706,220.111961 721.75706,220.111961 721.641755,220.111961 C721.641755,220.227267 721.641755,220.227267 721.75706,220.227267 Z M726.484589,177.564199 C726.369284,177.564199 726.369284,177.564199 726.369284,177.679505 C726.484589,177.679505 726.484589,177.679505 726.484589,177.564199 Z M718.759115,166.84078 L718.874421,166.84078 L718.874421,166.725474 L718.759115,166.84078 Z M721.526449,220.111961 C721.526449,219.996655 721.526449,219.996655 721.411144,219.996655 L721.526449,220.111961 Z" id="W"></path>
                </g>
            </g>
        </g>
    </g>
</svg>