<svg width="109" height="55" viewBox="0 0 109 55" xmlns="http://www.w3.org/2000/svg"><title>ICN: Ship to home</title><path d="M109.994 26.185a2.164 2.164 0 0 0-.349-1.126L97.823 6.949A2.097 2.097 0 0 0 96.076 6H80.097C78.94 6 78 6.96 78 8.143V43.06c0 1.18.94 2.14 2.1 2.14h4.3c0 5.412 4.298 9.8 9.6 9.8 5.3 0 9.598-4.388 9.6-9.8h4.3c1.157 0 2.099-.96 2.099-2.143v-16.81c0-.02-.005-.042-.006-.062zM87 26V13h8.277L104 26H87zm7 24c-2.756 0-5-2.244-5-5s2.244-5 5-5 5 2.244 5 5-2.244 5-5 5zM71.187 0H34.814A2.815 2.815 0 0 0 32 2.818v39.658a2.815 2.815 0 0 0 2.813 2.818h6.878c0 5.36 4.34 9.706 9.693 9.706s9.693-4.346 9.693-9.706h10.11A2.815 2.815 0 0 0 74 42.476V2.816A2.814 2.814 0 0 0 71.187 0zM52 50c-2.756 0-5-2.244-5-5s2.244-5 5-5 5 2.244 5 5-2.244 5-5 5zM1 14h25a1 1 0 0 1 1 1v4a1 1 0 0 1-1 1H1a1 1 0 0 1-1-1v-4a1 1 0 0 1 1-1zm8 11h17a1 1 0 0 1 1 1v4a1 1 0 0 1-1 1H9a1 1 0 0 1-1-1v-4a1 1 0 0 1 1-1zm8 11h9a1 1 0 0 1 1 1v4a1 1 0 0 1-1 1h-9a1 1 0 0 1-1-1v-4a1 1 0 0 1 1-1z" fill="#059DDB"/></svg>