<svg width="80" height="79" viewBox="0 0 80 79" xmlns="http://www.w3.org/2000/svg"><title>ico-changed-mind</title><path d="M58.22 4.6a23.143 23.143 0 0 0-11.916 3.298C42.515 2.933 36.692 0 30.52 0 19.47 0 10.482 9.206 10.482 20.523c0 1.085.086 2.178.256 3.259C4.365 25.884 0 31.964 0 38.929c0 7.897 5.827 14.683 13.397 15.773C16.71 64 25.304 70.195 35.011 70.195c10.268 0 19.21-6.906 22.073-16.912.383.022.759.033 1.136.033C71.332 53.316 82 42.389 82 28.959 82 15.527 71.333 4.6 58.22 4.6zM12.552 66.34c-3.407 0-6.179 2.84-6.179 6.331 0 3.49 2.772 6.328 6.18 6.328 3.406 0 6.177-2.838 6.177-6.328s-2.77-6.33-6.178-6.33z" fill="#059DDB"/></svg>