<svg width="73" height="89" viewBox="0 0 73 89" xmlns="http://www.w3.org/2000/svg" xmlns:xlink="http://www.w3.org/1999/xlink"><title>ico-broken</title><defs><path d="M48.1.2H3.9c-1.6 0-3 1.3-3 3v81.7c0 1.6 1.3 3 3 3h44.2c1.6 0 3-1.3 3-3V3.1c0-1.6-1.4-2.9-3-2.9z" id="a"/></defs><g fill="none" fill-rule="evenodd"><g transform="rotate(14 3.495 96.366)"><use fill="#FF7513" xlink:href="#a"/><path stroke="#FF7513" stroke-width="3" d="M48.1-1.3c2.432 0 4.5 1.974 4.5 4.4v81.8c0 2.502-2.044 4.5-4.5 4.5H3.9c-2.502 0-4.5-2.044-4.5-4.5V3.2c0-2.502 2.044-4.5 4.5-4.5h44.2z"/></g><path d="M67.077 15.926c1.336.334 2.212 1.8 1.851 3.246l-18.435 73.94c-.383 1.537-1.845 2.42-3.181 2.088l-36.907-9.202c-1.42-.354-2.19-1.89-1.829-3.337L26.99 8.811c.383-1.536 1.845-2.42 3.181-2.086l36.907 9.201zm-36.65 66.41c-1.206-.301-2.49.499-2.8 1.745-.31 1.246.446 2.555 1.652 2.855 1.206.3 2.489-.5 2.8-1.745.31-1.246-.447-2.555-1.653-2.856z" fill="#FFF"/><path d="M50.52 96.273c-.122.486-.63.874-1.213.729L6.42 86.309a1.002 1.002 0 0 1-.728-1.212l3.193-12.808 44.828 11.177-3.194 12.807zm3.676-14.748L9.37 70.348l8.878-35.61L29.7 42.541l9.966-3.184-2.93 8.442-9.313-.26-4.094 6.914-4.27-1.064-.483 1.94 5.724 1.428 4.264-7.182 6.452.166-4.92 4.029 2.14 9.19 9.142-1.533 3.16 12.125 1.965-.438-3.526-13.968-9.142 1.534-1.46-6.135 5.818-4.734.097.025 3.486-10.262 3.64 3.587.732 6.16 4.973 1.962-1.16 5.482 9.63 3.122-5.395 21.638zm5.88-23.578l-7.812-2.566 1.136-5.385-5.361-2.058-.658-5.627-3.325-3.2 6.33.652 4.999 3.513 10.11-7.064-5.42 21.735zm6.192-24.84l-10.86 7.598-4.295-3.029-7.034-.723 6.351-4.394-2.72-7.686-1.916.656 2.235 6.329-6.376 4.49-2.695-4.485-9.12-2.274-2.747-8.414-1.915.656 3.086 9.53 9.315 2.322 2.185 3.637-9.748 3.135-11.283-7.657 6.75-27.071c.12-.486.63-.874 1.212-.729L69.58 15.691c.485.121.874.63.728 1.212l-4.04 16.204z" fill="#FF7513" fill-rule="nonzero"/><path d="M52.482 16.89L36.86 12.995c-.582-.145-.873-.63-.728-1.212.145-.582.63-.873 1.212-.728l15.622 3.895c.582.145.873.63.728 1.212-.145.582-.63.873-1.212.728zm4.366 1.089l-1.455-.363c-.582-.145-.874-.63-.728-1.212.145-.582.63-.874 1.212-.729l1.455.363c.582.146.874.63.729 1.213a1.003 1.003 0 0 1-1.213.728z" fill="#FFF" fill-rule="nonzero"/></g></svg>