<svg width="63" height="62" viewBox="0 0 63 62" xmlns="http://www.w3.org/2000/svg"><title>ICN: Drivers ID</title><g fill="#009DDB"><path d="M2 8.6h57.6v2.8H2zm42.4 50.2c-2 0-4.6-.4-7.4-1.8l-5.8-.4c-.8 0-1.4-.8-1.4-1.4V44.6c0-.4.2-.6.4-1l4.2-5.4c2-2.4 4.8-4 8-4h4.4c3 0 5.8 1.4 7.8 3.6l4.6 5.4c.2.2.4.6.4 1v11.4c0 .8-.6 1.6-1.6 1.6h-7c-1 .4-3.2 1.6-6.6 1.6zm-11.6-5.2l4.8.4c.2 0 .4 0 .6.2 7.2 3.4 11.4.2 11.6.2.2-.2.6-.4 1-.4h6v-9.2l-4.2-5C51 38 49 37 46.8 37h-4.4c-2.2 0-4.2 1-5.6 2.8l-4 5v8.8z"/><path d="M47.6 51.2h-5.8c-.8 0-1.6-.6-1.6-1.6s.6-1.6 1.6-1.6h5.8c.8 0 1.6.6 1.6 1.6s-.8 1.6-1.6 1.6zm-2.2-4.4H45c-4.6 0-13.6-1-14-1-.8 0-1.4-.8-1.4-1.6s.8-1.4 1.6-1.4c0 0 9.2 1 13.8 1 4.6 0 12.6-1.2 12.6-1.2.8-.2 1.6.4 1.8 1.2.2.8-.4 1.6-1.2 1.8-.2 0-7.8 1.2-12.8 1.2z"/><path d="M32 46.2c-.2 0-.4 0-.6-.2-.8-.4-3.2-1.6-3.6-3.4-.2-.8 0-1.6.6-2.4.6-.8 1.4-1.2 2.2-1 1.8 0 3.2 1.8 3.6 2.2.4.6.4 1.6-.4 2-.2.2-.4.2-.6.2.4.4.4 1 .2 1.6-.4.8-.8 1-1.4 1zm26 0c-.6 0-1.2-.4-1.4-.8-.2-.6-.2-1.2.2-1.6-.2 0-.4-.2-.6-.2-.6-.4-.8-1.4-.4-2 .2-.4 1.6-2.2 3.6-2.2.8 0 1.6.4 2.2 1 .6.6.8 1.6.6 2.4-.4 1.8-2.8 3.2-3.6 3.4H58zM34.2 62c-2.4 0-4.4-2-4.4-4.4v-6.2c0-.8.6-1.6 1.6-1.6s-.4.6-.4 1.6l2 4.4v1.8c0 .8.6 1.4 1.4 1.4.8 0 1.4-.6 1.4-1.4v-2.2c0-.8.6.4 1.6.4s1.6-1.4 1.6-.4v2.2c-.6 2.4-2.6 4.4-4.8 4.4zm20.8-.6c-2.4 0-4.4-2-4.4-4.4v-1c0-.8.6-1.6 1.6-1.6s1.6.6 1.6 1.6v1c0 .8.6 1.4 1.4 1.4.8 0 1.2-.6 1.4-1.4v-2.2c0-.8.6-1.4 1.6-1.4.8 0 1.4.8 1.4 1.6v2.4c-.4 2.2-2.2 4-4.6 4z"/><path d="M25.2 40.4H7c-2.2 0-3.6-2-3.6-4V8.2C3.4 5.6 5 3.8 7 3.8h47.6c2.2 0 3.6 2 3.6 4v27.6H61V8.2c0-4-2.8-7.4-6.6-7.4H7C3.4.8.4 4 .4 8.2v28.2c0 4 2.8 7.4 6.6 7.4h18.2v-3.4zm12.6 12.2c-.6 0-1-.2-1.4-.8-2.4-4.6-4.8-4.4-5-4.4-.8 0-1.6-.6-1.6-1.4 0-.8.4-1.6 1.2-1.6.2 0 4.6-.6 8 6 .4.8.2 1.6-.6 2 0 .2-.2.2-.6.2zm13.6 0c-.2 0-.4 0-.6-.2-.8-.4-1-1.2-.6-2 3.4-6.6 7.8-6 8-6 .8.2 1.4.8 1.2 1.6-.2.8-.8 1.4-1.6 1.2-.2 0-2.6 0-5 4.4-.4.8-.8 1-1.4 1z"/><path d="M11.168 24.513C9.99 23.525 9.2 22.053 9.2 20.4c0-3 2.4-5.4 5.4-5.4 3 0 5.4 2.4 5.4 5.4a5.38 5.38 0 0 1-1.91 4.133c3.291 1.132 4.71 3.9 4.71 6.667 0 1-.4 1.6-1.2 1.6H8c-.8 0-1.6-.6-1.6-1.6 0-2.784 1.435-5.568 4.768-6.687zM14.6 17.8c-1.4 0-2.4 1.2-2.4 2.4 0 1.4 1.2 2.4 2.4 2.4s2.4-1.2 2.4-2.4-1-2.4-2.4-2.4zM9.4 30h10.4c-.4-1.4-1.8-3-5.2-3-3.4 0-4.8 1.6-5.2 3zm44.2 1.6H26.4c-.6 0-1.2-.6-1.2-1.2s.6-1.2 1.2-1.2h27.2c.6 0 1.2.6 1.2 1.2 0 .8-.4 1.2-1.2 1.2zm0-3.6H26.4c-.6 0-1.2-.6-1.2-1.2s.6-1.2 1.2-1.2h27.2c.6 0 1.2.6 1.2 1.2s-.4 1.2-1.2 1.2zm0-3.4H26.4c-.6 0-1.2-.6-1.2-1.2s.6-1.2 1.2-1.2h27.2c.6 0 1.2.6 1.2 1.2s-.4 1.2-1.2 1.2zM40 21H26.4c-.6 0-1.2-.6-1.2-1.2s.6-1.2 1.2-1.2H40c.6 0 1.2.6 1.2 1.2S40.8 21 40 21z"/></g></svg>