<svg width="70" height="77" viewBox="0 0 70 77" xmlns="http://www.w3.org/2000/svg"><title>Shape</title><path d="M1.876 24.99L11.59 3.177A5.326 5.326 0 0 1 16.449 0h44.099c2.098 0 4 1.243 4.86 3.176l9.713 21.815c2.763 6.204-1.283 13.545-8.006 14h-.71a10.27 10.27 0 0 1-8.76-4.926.674.674 0 0 0-1.143 0 10.271 10.271 0 0 1-8.689 4.93 10.268 10.268 0 0 1-8.751-4.816.674.674 0 0 0-1.135 0 10.268 10.268 0 0 1-8.75 4.82 10.271 10.271 0 0 1-8.69-4.925.674.674 0 0 0-1.144 0 10.27 10.27 0 0 1-9.868 4.865C2.977 38.274-.818 31.037 1.876 24.99zM77 72.75c0 2.347-1.91 4.25-4.266 4.25H4.266a4.27 4.27 0 0 1-3.694-2.125 4.237 4.237 0 0 1 0-4.25 4.27 4.27 0 0 1 3.694-2.126h3.23v-24.84c.687.144 1.382.242 2.082.292h1.096A16.19 16.19 0 0 0 19.975 41a16.19 16.19 0 0 0 18.525.086A16.19 16.19 0 0 0 57.025 41a16.19 16.19 0 0 0 9.3 2.951h1.097a15.6 15.6 0 0 0 2.09-.292v24.84h3.222c1.131 0 2.216.448 3.016 1.245.8.797 1.25 1.878 1.25 3.006z" fill="#009DDB"/></svg>