<?xml version="1.0" encoding="UTF-8"?>
<svg width="16px" height="16px" viewBox="0 0 16 16" version="1.1" xmlns="http://www.w3.org/2000/svg" xmlns:xlink="http://www.w3.org/1999/xlink">
    <!-- Generator: Sketch 52.6 (67491) - http://www.bohemiancoding.com/sketch -->
    <title>info_outline - material</title>
    <desc>Created with Sketch.</desc>
    <g id="Page-1" stroke="none" stroke-width="1" fill="none" fill-rule="evenodd">
        <g id="The-Ecosystem" transform="translate(-1078.000000, -1479.000000)" fill="#FFFFFF">
            <g id="Group-9" transform="translate(405.000000, 1099.000000)">
                <g id="Rectangle-4" transform="translate(226.000000, 362.000000)">
                    <path d="M454.262,23.45 L454.262,21.938 L455.738,21.938 L455.738,23.45 L454.262,23.45 Z M455,31.712 C456.080005,31.712 457.087995,31.4360028 458.024,30.884 C458.936005,30.3559974 459.655997,29.6360046 460.184,28.724 C460.736003,27.7879953 461.012,26.7800054 461.012,25.7 C461.012,24.6199946 460.736003,23.6120047 460.184,22.676 C459.655997,21.7639954 458.936005,21.0440026 458.024,20.516 C457.087995,19.9639972 456.080005,19.688 455,19.688 C453.919995,19.688 452.912005,19.9639972 451.976,20.516 C451.063995,21.0440026 450.344003,21.7639954 449.816,22.676 C449.263997,23.6120047 448.988,24.6199946 448.988,25.7 C448.988,26.7800054 449.263997,27.7879953 449.816,28.724 C450.344003,29.6360046 451.063995,30.3559974 451.976,30.884 C452.912005,31.4360028 453.919995,31.712 455,31.712 Z M455,18.212 C456.368007,18.212 457.633994,18.5539966 458.798,19.238 C459.926006,19.8860032 460.813997,20.7739944 461.462,21.902 C462.146003,23.0660058 462.488,24.3319932 462.488,25.7 C462.488,27.0680068 462.146003,28.3339942 461.462,29.498 C460.813997,30.6260056 459.926006,31.5139968 458.798,32.162 C457.633994,32.8460034 456.368007,33.188 455,33.188 C453.631993,33.188 452.366006,32.8460034 451.202,32.162 C450.073994,31.5019967 449.186003,30.6080056 448.538,29.48 C447.853997,28.3159942 447.512,27.0560068 447.512,25.7 C447.512,24.3439932 447.853997,23.0840058 448.538,21.92 C449.198003,20.7919944 450.091994,19.8980033 451.22,19.238 C452.384006,18.5539966 453.643993,18.212 455,18.212 Z M454.262,29.462 L454.262,24.962 L455.738,24.962 L455.738,29.462 L454.262,29.462 Z" id="info_outline---material"></path>
                </g>
            </g>
        </g>
    </g>
</svg>