<?xml version="1.0" encoding="UTF-8"?>
<svg width="38px" height="37px" viewBox="0 0 38 37" version="1.1" xmlns="http://www.w3.org/2000/svg" xmlns:xlink="http://www.w3.org/1999/xlink">
    <!-- Generator: Sketch 52.6 (67491) - http://www.bohemiancoding.com/sketch -->
    <title>ion-ios-gear-outline - Ionicons</title>
    <desc>Created with Sketch.</desc>
    <g id="Page-1" stroke="none" stroke-width="1" fill="none" fill-rule="evenodd">
        <g id="The-Ecosystem" transform="translate(-696.000000, -1284.000000)" fill="#FFFFFF">
            <g id="Group-9" transform="translate(405.000000, 1099.000000)">
                <path d="M303.587891,197.117188 C305.374358,195.33072 307.543607,194.4375 310.095703,194.4375 C312.647799,194.4375 314.817048,195.33072 316.603516,197.117188 C318.389983,198.903655 319.283203,201.072904 319.283203,203.625 C319.283203,206.177096 318.389983,208.346345 316.603516,210.132812 C314.817048,211.91928 312.647799,212.8125 310.095703,212.8125 C307.543607,212.8125 305.374358,211.91928 303.587891,210.132812 C301.801423,208.346345 300.908203,206.177096 300.908203,203.625 C300.908203,201.072904 301.801423,198.903655 303.587891,197.117188 Z M304.640625,209.080078 C306.171883,210.547533 307.990224,211.28125 310.095703,211.28125 C312.201182,211.28125 314.003573,210.531583 315.50293,209.032227 C317.002286,207.53287 317.751953,205.730479 317.751953,203.625 C317.751953,201.519521 317.002286,199.71713 315.50293,198.217773 C314.003573,196.718417 312.201182,195.96875 310.095703,195.96875 C307.990224,195.96875 306.187833,196.718417 304.688477,198.217773 C303.18912,199.71713 302.439453,201.519521 302.439453,203.625 C302.439453,205.730479 303.17317,207.54882 304.640625,209.080078 Z M304.832031,187.068359 C303.874995,187.387371 302.917974,187.77018 301.960938,188.216797 C302.088542,188.727216 302.088542,189.492833 301.960938,190.513672 C301.76953,191.78972 301.195317,192.906245 300.238281,193.863281 C299.026036,195.075527 297.558602,195.681641 295.835938,195.681641 C295.261716,195.681641 294.847006,195.64974 294.591797,195.585938 C294.14518,196.542974 293.762371,197.499995 293.443359,198.457031 C293.953779,198.776043 294.496091,199.318356 295.070312,200.083984 C295.835941,201.104823 296.21875,202.28515 296.21875,203.625 C296.21875,204.901048 295.835941,206.081375 295.070312,207.166016 C294.496091,207.931644 293.953779,208.473957 293.443359,208.792969 C293.762371,209.750005 294.14518,210.707026 294.591797,211.664062 C294.847006,211.60026 295.261716,211.568359 295.835938,211.568359 C297.558602,211.568359 299.026036,212.174473 300.238281,213.386719 C301.195317,214.343755 301.76953,215.46028 301.960938,216.736328 C302.088542,217.757167 302.088542,218.522784 301.960938,219.033203 C302.917974,219.47982 303.874995,219.862629 304.832031,220.181641 C305.151043,219.671221 305.693356,219.128909 306.458984,218.554688 C307.543625,217.789059 308.723952,217.40625 310,217.40625 C311.33985,217.40625 312.520177,217.789059 313.541016,218.554688 C314.306644,219.128909 314.848957,219.671221 315.167969,220.181641 C316.125005,219.862629 317.082026,219.47982 318.039062,219.033203 C317.911458,218.522784 317.911458,217.757167 318.039062,216.736328 C318.23047,215.46028 318.804683,214.343755 319.761719,213.386719 C320.973964,212.174473 322.441398,211.568359 324.164062,211.568359 C324.738284,211.568359 325.152994,211.60026 325.408203,211.664062 C325.85482,210.707026 326.237629,209.750005 326.556641,208.792969 C326.046221,208.473957 325.503909,207.931644 324.929688,207.166016 C324.164059,206.081375 323.78125,204.901048 323.78125,203.625 C323.78125,202.28515 324.164059,201.104823 324.929688,200.083984 C325.503909,199.318356 326.046221,198.776043 326.556641,198.457031 C326.237629,197.499995 325.85482,196.542974 325.408203,195.585938 C325.152994,195.64974 324.738284,195.681641 324.164062,195.681641 C322.441398,195.681641 320.973964,195.075527 319.761719,193.863281 C318.804683,192.906245 318.23047,191.78972 318.039062,190.513672 C317.911458,189.492833 317.911458,188.727216 318.039062,188.216797 C317.082026,187.77018 316.125005,187.387371 315.167969,187.068359 C314.848957,187.578779 314.306644,188.121091 313.541016,188.695312 C312.520177,189.460941 311.33985,189.84375 310,189.84375 C308.723952,189.84375 307.543625,189.460941 306.458984,188.695312 C305.693356,188.121091 305.151043,187.578779 304.832031,187.068359 Z M314.402344,185.25 C316.444021,185.760419 318.262362,186.526037 319.857422,187.546875 C318.964188,189.524749 319.283195,191.279289 320.814453,192.810547 C321.707687,193.703781 322.824212,194.150391 324.164062,194.150391 C324.929691,194.150391 325.567706,194.022788 326.078125,193.767578 C327.098963,195.362638 327.864581,197.180979 328.375,199.222656 C326.333323,199.988285 325.3125,201.455718 325.3125,203.625 C325.3125,205.794282 326.333323,207.261715 328.375,208.027344 C327.864581,210.069021 327.098963,211.887362 326.078125,213.482422 C325.567706,213.227212 324.929691,213.099609 324.164062,213.099609 C322.824212,213.099609 321.707687,213.546219 320.814453,214.439453 C319.283195,215.970711 318.964188,217.725251 319.857422,219.703125 C318.262362,220.723963 316.444021,221.489581 314.402344,222 C313.636715,219.958323 312.169282,218.9375 310,218.9375 C307.830718,218.9375 306.363285,219.958323 305.597656,222 C303.555979,221.489581 301.737638,220.723963 300.142578,219.703125 C301.035812,217.725251 300.716805,215.970711 299.185547,214.439453 C298.292313,213.546219 297.175788,213.099609 295.835938,213.099609 C295.070309,213.099609 294.432294,213.227212 293.921875,213.482422 C292.901037,211.887362 292.135419,210.069021 291.625,208.027344 C293.666677,207.261715 294.6875,205.794282 294.6875,203.625 C294.6875,201.455718 293.666677,199.988285 291.625,199.222656 C292.135419,197.180979 292.901037,195.362638 293.921875,193.767578 C294.432294,194.022788 295.070309,194.150391 295.835938,194.150391 C297.175788,194.150391 298.292313,193.703781 299.185547,192.810547 C300.716805,191.279289 301.035812,189.524749 300.142578,187.546875 C301.737638,186.526037 303.555979,185.760419 305.597656,185.25 C306.363285,187.291677 307.830718,188.3125 310,188.3125 C312.169282,188.3125 313.636715,187.291677 314.402344,185.25 Z" id="ion-ios-gear-outline---Ionicons"></path>
            </g>
        </g>
    </g>
</svg>