<?xml version="1.0" encoding="UTF-8"?>
<svg width="17px" height="18px" viewBox="0 0 17 18" version="1.1" xmlns="http://www.w3.org/2000/svg" xmlns:xlink="http://www.w3.org/1999/xlink">
    <!-- Generator: Sketch 52.6 (67491) - http://www.bohemiancoding.com/sketch -->
    <title>link - FontAwesome</title>
    <desc>Created with Sketch.</desc>
    <g id="Page-1" stroke="none" stroke-width="1" fill="none" fill-rule="evenodd">
        <g id="The-Ecosystem" transform="translate(-1159.000000, -2014.000000)" fill="#212121">
            <g id="Group-9" transform="translate(405.000000, 1099.000000)">
                <g id="Group-8" transform="translate(736.000000, 844.109170)">
                    <path d="M32.6250174,83.7857105 C32.6250174,83.5245494 32.5245709,83.2834777 32.3437671,83.1026739 L30.2544789,81.0133857 C30.0736751,80.8325819 29.8225587,80.7321354 29.5714424,80.7321354 C29.2801474,80.7321354 29.0491203,80.8426266 28.8482272,81.0535643 C29.1797008,81.3850379 29.5714424,81.6662883 29.5714424,82.1785657 C29.5714424,82.7109324 29.1395222,83.1428525 28.6071555,83.1428525 C28.0948781,83.1428525 27.8136278,82.751111 27.4821542,82.4196374 C27.2712164,82.6205305 27.1506806,82.8515576 27.1506806,83.1528972 C27.1506806,83.4040136 27.2511271,83.6551299 27.4319309,83.8359337 L29.5011298,85.9151773 C29.6819336,86.0959811 29.9330499,86.186383 30.1841663,86.186383 C30.4352827,86.186383 30.6863991,86.0959811 30.8672028,85.9252219 L32.3437671,84.4587023 C32.5245709,84.2778985 32.6250174,84.0368268 32.6250174,83.7857105 Z M25.5636251,76.7042288 C25.5636251,76.4531124 25.4631785,76.2019961 25.2823748,76.0211923 L23.2131759,73.9419487 C23.0323721,73.7611449 22.7812557,73.6606984 22.5301393,73.6606984 C22.279023,73.6606984 22.0279066,73.7611449 21.8471028,73.9319041 L20.3705385,75.3984237 C20.1897348,75.5792275 20.0892882,75.8202992 20.0892882,76.0714155 C20.0892882,76.3325766 20.1897348,76.5736483 20.3705385,76.7544521 L22.4598267,78.8437403 C22.6406305,79.0245441 22.8917469,79.114946 23.1428633,79.114946 C23.4341583,79.114946 23.6651853,79.0144994 23.8660784,78.8035617 C23.5346048,78.472088 23.1428633,78.1908377 23.1428633,77.6785603 C23.1428633,77.1461936 23.5747834,76.7142735 24.1071501,76.7142735 C24.6194275,76.7142735 24.9006779,77.106015 25.2321515,77.4374886 C25.4430892,77.2365955 25.5636251,77.0055684 25.5636251,76.7042288 Z M34.5535912,83.7857105 C34.5535912,84.5491042 34.2422069,85.2924087 33.6997955,85.8247754 L32.2232312,87.291295 C31.6808199,87.8337064 30.9475601,88.1250013 30.1841663,88.1250013 C29.4107279,88.1250013 28.6774681,87.8236617 28.1350567,87.2712057 L26.0658578,85.1919621 C25.5234465,84.6495508 25.2321515,83.916291 25.2321515,83.1528972 C25.2321515,82.3593695 25.5535804,81.6060204 26.1160811,81.0535643 L25.2321515,80.1696347 C24.6796955,80.7321354 23.936391,81.0535643 23.1428633,81.0535643 C22.3794695,81.0535643 21.636165,80.7522247 21.0937537,80.2098133 L19.0044655,78.1205251 C18.4520095,77.5680691 18.1607145,76.844854 18.1607145,76.0714155 C18.1607145,75.3080218 18.4720988,74.5647173 19.0145101,74.0323506 L20.4910744,72.565831 C21.0334858,72.0234196 21.7667456,71.7321247 22.5301393,71.7321247 C23.3035778,71.7321247 24.0368376,72.0334643 24.5792489,72.5859203 L26.6484478,74.6651639 C27.1908592,75.2075752 27.4821542,75.940835 27.4821542,76.7042288 C27.4821542,77.4977565 27.1607252,78.2511056 26.5982245,78.8035617 L27.4821542,79.6874913 C28.0346102,79.1249906 28.7779146,78.8035617 29.5714424,78.8035617 C30.3348361,78.8035617 31.0781406,79.1049013 31.620552,79.6473127 L33.7098402,81.7366009 C34.2622962,82.2890569 34.5535912,83.012272 34.5535912,83.7857105 Z" id="link---FontAwesome"></path>
                </g>
            </g>
        </g>
    </g>
</svg>