<?xml version="1.0" encoding="UTF-8"?>
<svg width="17px" height="18px" viewBox="0 0 17 18" version="1.1" xmlns="http://www.w3.org/2000/svg" xmlns:xlink="http://www.w3.org/1999/xlink">
    <!-- Generator: Sketch 52.6 (67491) - http://www.bohemiancoding.com/sketch -->
    <title>link - FontAwesome</title>
    <desc>Created with Sketch.</desc>
    <g id="Page-1" stroke="none" stroke-width="1" fill="none" fill-rule="evenodd">
        <g id="The-Ecosystem" transform="translate(-1076.000000, -1275.000000)" fill="#FFFFFF">
            <g id="Group-9" transform="translate(405.000000, 1099.000000)">
                <path d="M685.625017,188.78571 C685.625017,188.524549 685.524571,188.283478 685.343767,188.102674 L683.254479,186.013386 C683.073675,185.832582 682.822559,185.732135 682.571442,185.732135 C682.280147,185.732135 682.04912,185.842627 681.848227,186.053564 C682.179701,186.385038 682.571442,186.666288 682.571442,187.178566 C682.571442,187.710932 682.139522,188.142853 681.607156,188.142853 C681.094878,188.142853 680.813628,187.751111 680.482154,187.419637 C680.271216,187.62053 680.150681,187.851558 680.150681,188.152897 C680.150681,188.404014 680.251127,188.65513 680.431931,188.835934 L682.50113,190.915177 C682.681934,191.095981 682.93305,191.186383 683.184166,191.186383 C683.435283,191.186383 683.686399,191.095981 683.867203,190.925222 L685.343767,189.458702 C685.524571,189.277899 685.625017,189.036827 685.625017,188.78571 Z M678.563625,181.704229 C678.563625,181.453112 678.463179,181.201996 678.282375,181.021192 L676.213176,178.941949 C676.032372,178.761145 675.781256,178.660698 675.530139,178.660698 C675.279023,178.660698 675.027907,178.761145 674.847103,178.931904 L673.370539,180.398424 C673.189735,180.579227 673.089288,180.820299 673.089288,181.071416 C673.089288,181.332577 673.189735,181.573648 673.370539,181.754452 L675.459827,183.84374 C675.640631,184.024544 675.891747,184.114946 676.142863,184.114946 C676.434158,184.114946 676.665185,184.014499 676.866078,183.803562 C676.534605,183.472088 676.142863,183.190838 676.142863,182.67856 C676.142863,182.146194 676.574783,181.714273 677.10715,181.714273 C677.619428,181.714273 677.900678,182.106015 678.232151,182.437489 C678.443089,182.236596 678.563625,182.005568 678.563625,181.704229 Z M687.553591,188.78571 C687.553591,189.549104 687.242207,190.292409 686.699796,190.824775 L685.223231,192.291295 C684.68082,192.833706 683.94756,193.125001 683.184166,193.125001 C682.410728,193.125001 681.677468,192.823662 681.135057,192.271206 L679.065858,190.191962 C678.523446,189.649551 678.232151,188.916291 678.232151,188.152897 C678.232151,187.359369 678.55358,186.60602 679.116081,186.053564 L678.232151,185.169635 C677.679695,185.732135 676.936391,186.053564 676.142863,186.053564 C675.37947,186.053564 674.636165,185.752225 674.093754,185.209813 L672.004465,183.120525 C671.452009,182.568069 671.160714,181.844854 671.160714,181.071416 C671.160714,180.308022 671.472099,179.564717 672.01451,179.032351 L673.491074,177.565831 C674.033486,177.02342 674.766746,176.732125 675.530139,176.732125 C676.303578,176.732125 677.036838,177.033464 677.579249,177.58592 L679.648448,179.665164 C680.190859,180.207575 680.482154,180.940835 680.482154,181.704229 C680.482154,182.497757 680.160725,183.251106 679.598225,183.803562 L680.482154,184.687491 C681.03461,184.124991 681.777915,183.803562 682.571442,183.803562 C683.334836,183.803562 684.078141,184.104901 684.620552,184.647313 L686.70984,186.736601 C687.262296,187.289057 687.553591,188.012272 687.553591,188.78571 Z" id="link---FontAwesome"></path>
            </g>
        </g>
    </g>
</svg>