<?xml version="1.0" encoding="UTF-8"?>
<svg width="34px" height="34px" viewBox="0 0 34 34" version="1.1" xmlns="http://www.w3.org/2000/svg" xmlns:xlink="http://www.w3.org/1999/xlink">
    <!-- Generator: Sketch 52.6 (67491) - http://www.bohemiancoding.com/sketch -->
    <title>social-dropbox - simple-line-icons</title>
    <desc>Created with Sketch.</desc>
    <g id="Page-1" stroke="none" stroke-width="1" fill="none" fill-rule="evenodd">
        <g id="The-Ecosystem" transform="translate(-1012.000000, -1283.000000)" fill="#FFFFFF">
            <g id="Group-9" transform="translate(405.000000, 1099.000000)">
                <path d="M640.966797,191.595703 C640.988932,191.750652 640.966797,191.911132 640.900391,192.077148 C640.833984,192.243165 640.734376,192.38151 640.601562,192.492188 L635.123047,197.074219 L639.804688,200.792969 C639.937501,200.881511 640.037109,201.003254 640.103516,201.158203 C640.169922,201.313152 640.203125,201.479166 640.203125,201.65625 C640.203125,201.833334 640.158855,201.993814 640.070312,202.137695 C639.98177,202.281576 639.871094,202.397786 639.738281,202.486328 L635.621094,205.242188 L635.621094,210.455078 C635.621094,210.632162 635.576823,210.798176 635.488281,210.953125 C635.399739,211.108074 635.277996,211.240885 635.123047,211.351562 L624.564453,217.394531 C624.475911,217.460938 624.381836,217.505208 624.282227,217.527344 C624.182617,217.549479 624.088542,217.560547 624,217.560547 C623.911458,217.560547 623.817383,217.549479 623.717773,217.527344 C623.618164,217.505208 623.524089,217.460938 623.435547,217.394531 L612.744141,211.351562 C612.589192,211.240885 612.467448,211.108074 612.378906,210.953125 C612.290364,210.798176 612.246094,210.632162 612.246094,210.455078 L612.246094,206.171875 C612.246094,206.016926 612.279297,205.873048 612.345703,205.740234 C612.41211,205.607421 612.50065,205.496745 612.611328,205.408203 L608.261719,202.486328 C608.10677,202.397786 607.99056,202.281576 607.913086,202.137695 C607.835612,201.993814 607.785807,201.833334 607.763672,201.65625 C607.763672,201.479166 607.796875,201.313152 607.863281,201.158203 C607.929688,201.003254 608.040364,200.881511 608.195312,200.792969 L612.876953,197.074219 L607.398438,192.492188 C607.265624,192.38151 607.166016,192.243165 607.099609,192.077148 C607.033203,191.911132 607.011068,191.750652 607.033203,191.595703 C607.033203,191.418619 607.077474,191.258139 607.166016,191.114258 C607.254558,190.970377 607.376301,190.854167 607.53125,190.765625 L616.994141,184.855469 C617.171225,184.722656 617.375975,184.667318 617.608398,184.689453 C617.840821,184.711589 618.045572,184.789062 618.222656,184.921875 L624,189.603516 L629.777344,184.921875 C629.954428,184.789062 630.159179,184.711589 630.391602,184.689453 C630.624025,184.667318 630.828775,184.722656 631.005859,184.855469 L640.46875,190.765625 C640.623699,190.854167 640.745442,190.970377 640.833984,191.114258 C640.922526,191.258139 640.966797,191.418619 640.966797,191.595703 Z M631.470703,197.107422 L624,192.226562 L616.529297,197.107422 L624,201.755859 L631.470703,197.107422 Z M609.888672,191.794922 L614.636719,195.779297 L622.207031,190.865234 L617.458984,187.046875 L609.888672,191.794922 Z M614.636719,198.402344 L610.652344,201.556641 L617.890625,206.371094 L622.140625,203.117188 L614.636719,198.402344 Z M614.371094,206.570312 L614.371094,209.857422 L622.871094,214.605469 L622.871094,205.242188 L618.587891,208.529297 C618.388671,208.66211 618.178387,208.728516 617.957031,208.728516 C617.735676,208.728516 617.525392,208.673178 617.326172,208.5625 L614.371094,206.570312 Z M633.496094,209.857422 L633.496094,206.636719 L630.640625,208.5625 C630.552083,208.606771 630.458008,208.645508 630.358398,208.678711 C630.258789,208.711914 630.153646,208.728516 630.042969,208.728516 C629.932291,208.728516 629.821615,208.711914 629.710938,208.678711 C629.60026,208.645508 629.500651,208.595703 629.412109,208.529297 L624.996094,205.142578 L624.996094,214.671875 L633.496094,209.857422 Z M637.314453,201.523438 L633.363281,198.402344 L625.859375,203.117188 L630.076172,206.371094 L637.314453,201.523438 Z M633.363281,195.779297 L638.111328,191.794922 L630.541016,187.046875 L625.792969,190.865234 L633.363281,195.779297 Z" id="social-dropbox---simple-line-icons"></path>
            </g>
        </g>
    </g>
</svg>