<?xml version="1.0" encoding="UTF-8"?>
<svg width="16px" height="16px" viewBox="0 0 16 16" version="1.1" xmlns="http://www.w3.org/2000/svg" xmlns:xlink="http://www.w3.org/1999/xlink">
    <!-- Generator: Sketch 52.6 (67491) - http://www.bohemiancoding.com/sketch -->
    <title>info_outline - material</title>
    <desc>Created with Sketch.</desc>
    <g id="Page-1" stroke="none" stroke-width="1" fill="none" fill-rule="evenodd">
        <g id="The-Ecosystem" transform="translate(-918.000000, -1684.000000)" fill="#212121">
            <g id="Group-9" transform="translate(405.000000, 1099.000000)">
                <path d="M520.262,590.45 L520.262,588.938 L521.738,588.938 L521.738,590.45 L520.262,590.45 Z M521,598.712 C522.080005,598.712 523.087995,598.436003 524.024,597.884 C524.936005,597.355997 525.655997,596.636005 526.184,595.724 C526.736003,594.787995 527.012,593.780005 527.012,592.7 C527.012,591.619995 526.736003,590.612005 526.184,589.676 C525.655997,588.763995 524.936005,588.044003 524.024,587.516 C523.087995,586.963997 522.080005,586.688 521,586.688 C519.919995,586.688 518.912005,586.963997 517.976,587.516 C517.063995,588.044003 516.344003,588.763995 515.816,589.676 C515.263997,590.612005 514.988,591.619995 514.988,592.7 C514.988,593.780005 515.263997,594.787995 515.816,595.724 C516.344003,596.636005 517.063995,597.355997 517.976,597.884 C518.912005,598.436003 519.919995,598.712 521,598.712 Z M521,585.212 C522.368007,585.212 523.633994,585.553997 524.798,586.238 C525.926006,586.886003 526.813997,587.773994 527.462,588.902 C528.146003,590.066006 528.488,591.331993 528.488,592.7 C528.488,594.068007 528.146003,595.333994 527.462,596.498 C526.813997,597.626006 525.926006,598.513997 524.798,599.162 C523.633994,599.846003 522.368007,600.188 521,600.188 C519.631993,600.188 518.366006,599.846003 517.202,599.162 C516.073994,598.501997 515.186003,597.608006 514.538,596.48 C513.853997,595.315994 513.512,594.056007 513.512,592.7 C513.512,591.343993 513.853997,590.084006 514.538,588.92 C515.198003,587.791994 516.091994,586.898003 517.22,586.238 C518.384006,585.553997 519.643993,585.212 521,585.212 Z M520.262,596.462 L520.262,591.962 L521.738,591.962 L521.738,596.462 L520.262,596.462 Z" id="info_outline---material"></path>
            </g>
        </g>
    </g>
</svg>