<?xml version="1.0" encoding="UTF-8"?>
<svg width="36px" height="37px" viewBox="0 0 36 37" version="1.1" xmlns="http://www.w3.org/2000/svg" xmlns:xlink="http://www.w3.org/1999/xlink">
    <!-- Generator: Sketch 52.6 (67491) - http://www.bohemiancoding.com/sketch -->
    <title>Puzzle - simple-line-icons</title>
    <desc>Created with Sketch.</desc>
    <g id="Page-1" stroke="none" stroke-width="1" fill="none" fill-rule="evenodd">
        <g id="The-Ecosystem" transform="translate(-1225.000000, -1284.000000)" fill="#FFFFFF">
            <g id="Group-9" transform="translate(405.000000, 1099.000000)">
                <g id="Group-18" transform="translate(715.000000, 92.000000)">
                    <path d="M123,129.25 C122.648436,129.25 122.308595,129.185548 121.980469,129.056641 C121.652342,128.927734 121.359376,128.734376 121.101562,128.476562 L105.773438,113.113281 C105.25781,112.597654 105,111.970707 105,111.232422 C105,110.494137 105.25781,109.86719 105.773438,109.351562 L111.398438,103.726562 C111.562501,103.562499 111.767577,103.457031 112.013672,103.410156 C112.259767,103.363281 112.48828,103.398437 112.699219,103.515625 C112.910157,103.632813 113.074218,103.802733 113.191406,104.025391 C113.308594,104.248048 113.34375,104.476561 113.296875,104.710938 C113.25,104.875001 113.220703,105.021484 113.208984,105.150391 C113.197266,105.279298 113.191406,105.402343 113.191406,105.519531 C113.191406,106.761725 113.630855,107.828121 114.509766,108.71875 C115.388676,109.609379 116.437494,110.054688 117.65625,110.054688 C118.898444,110.054688 119.923824,109.609379 120.732422,108.71875 C121.54102,107.828121 121.945312,106.761725 121.945312,105.519531 C121.945312,104.300775 121.54102,103.251958 120.732422,102.373047 C119.923824,101.494136 118.898444,101.054688 117.65625,101.054688 C117.539062,101.054688 117.416016,101.060547 117.287109,101.072266 C117.158202,101.083984 117.01172,101.113281 116.847656,101.160156 C116.61328,101.207031 116.384767,101.171876 116.162109,101.054688 C115.939452,100.937499 115.769532,100.773439 115.652344,100.5625 C115.558593,100.351561 115.529297,100.123048 115.564453,99.8769531 C115.59961,99.6308581 115.699218,99.4257821 115.863281,99.2617188 L121.101562,93.9882812 C121.61719,93.4960913 122.249996,93.25 123,93.25 C123.750004,93.25 124.38281,93.4960913 124.898438,93.9882812 L128.730469,97.8554688 C129.128908,96.5898374 129.867182,95.5527384 130.945312,94.7441406 C132.023443,93.9355428 133.242181,93.53125 134.601562,93.53125 C136.312509,93.53125 137.771478,94.1406189 138.978516,95.359375 C140.185553,96.5781311 140.789062,98.0312416 140.789062,99.71875 C140.789062,101.101569 140.38477,102.332026 139.576172,103.410156 C138.767574,104.488287 137.742194,105.226561 136.5,105.625 L140.226562,109.351562 C140.74219,109.86719 141,110.494137 141,111.232422 C141,111.970707 140.74219,112.597654 140.226562,113.113281 L124.898438,128.476562 C124.640624,128.734376 124.347658,128.927734 124.019531,129.056641 C123.691405,129.185548 123.351564,129.25 123,129.25 Z M111.152344,107.136719 L107.355469,110.933594 C107.261718,111.027344 107.220703,111.132812 107.232422,111.25 C107.244141,111.367188 107.285156,111.460937 107.355469,111.53125 L122.683594,126.894531 C122.800782,126.988282 122.90625,127.035156 123,127.035156 C123.09375,127.035156 123.199218,126.988282 123.316406,126.894531 L138.644531,111.53125 C138.714844,111.460937 138.75,111.367188 138.75,111.25 C138.75,111.132812 138.714844,111.027344 138.644531,110.933594 L133.230469,105.519531 C133.066405,105.355468 132.960938,105.156251 132.914062,104.921875 C132.867187,104.687499 132.902343,104.464845 133.019531,104.253906 C133.113282,104.042968 133.265624,103.878907 133.476562,103.761719 C133.687501,103.644531 133.910155,103.597656 134.144531,103.621094 L134.320312,103.621094 C134.367188,103.644531 134.414062,103.65625 134.460938,103.65625 C134.507813,103.65625 134.554687,103.65625 134.601562,103.65625 C135.703131,103.65625 136.634762,103.275394 137.396484,102.513672 C138.158207,101.751949 138.539062,100.820318 138.539062,99.71875 C138.539062,98.6406196 138.158207,97.7148476 137.396484,96.9414062 C136.634762,96.1679649 135.703131,95.78125 134.601562,95.78125 C133.523432,95.78125 132.59766,96.1679649 131.824219,96.9414062 C131.050777,97.7148476 130.664062,98.6406196 130.664062,99.71875 C130.664062,99.7656252 130.669922,99.8124998 130.681641,99.859375 C130.693359,99.9062502 130.699219,99.9531248 130.699219,100 L130.734375,100.210938 C130.757813,100.445314 130.710938,100.667968 130.59375,100.878906 C130.476562,101.089845 130.312501,101.242187 130.101562,101.335938 C129.890624,101.429688 129.66797,101.458985 129.433594,101.423828 C129.199218,101.388672 129.000001,101.289063 128.835938,101.125 L123.316406,95.6054688 C123.199218,95.4882807 123.09375,95.4296875 123,95.4296875 C122.90625,95.4296875 122.800782,95.4882807 122.683594,95.6054688 L119.273438,99.015625 C120.750007,99.3671893 121.939449,100.146478 122.841797,101.353516 C123.744145,102.560553 124.195312,103.949211 124.195312,105.519531 C124.195312,107.371103 123.568366,108.964837 122.314453,110.300781 C121.060541,111.636725 119.507822,112.304688 117.65625,112.304688 C116.08593,112.304688 114.697272,111.812505 113.490234,110.828125 C112.283197,109.843745 111.503908,108.613289 111.152344,107.136719 Z" id="Puzzle---simple-line-icons"></path>
                </g>
            </g>
        </g>
    </g>
</svg>