<?xml version="1.0" encoding="UTF-8"?>
<svg width="34px" height="39px" viewBox="0 0 34 39" version="1.1" xmlns="http://www.w3.org/2000/svg" xmlns:xlink="http://www.w3.org/1999/xlink">
    <!-- Generator: Sketch 52.6 (67491) - http://www.bohemiancoding.com/sketch -->
    <title></title>
    <desc>Created with Sketch.</desc>
    <g id="Page-1" stroke="none" stroke-width="1" fill="none" fill-rule="evenodd">
        <g id="Themes-Copy-3" transform="translate(-703.000000, -2495.000000)" fill="#FFFFFF">
            <path d="M719.443359,2528.73633 L719.666016,2529.07031 C719.740235,2529.16927 719.783529,2529.27441 719.795898,2529.38574 C719.808268,2529.49707 719.802083,2529.60221 719.777344,2529.70117 C719.752604,2529.80013 719.703125,2529.8929 719.628906,2529.97949 C719.554687,2530.06608 719.468099,2530.14648 719.369141,2530.2207 L718.998047,2530.40625 L713.46875,2533.26367 C713.270832,2533.36263 713.072918,2533.38119 712.875,2533.31934 C712.677082,2533.25749 712.516277,2533.12761 712.392578,2532.92969 L712.28125,2532.63281 C712.157551,2532.43489 712.126627,2532.22461 712.188477,2532.00195 C712.250326,2531.7793 712.380207,2531.61849 712.578125,2531.51953 L715.583984,2529.96094 L715.509766,2529.96094 C715.485026,2529.96094 715.460287,2529.94857 715.435547,2529.92383 C714.32226,2529.65169 713.258469,2529.25586 712.244141,2528.73633 C711.229813,2528.21679 710.277348,2527.6045 709.386719,2526.89941 C708.496089,2526.19433 707.692061,2525.40267 706.974609,2524.52441 C706.257158,2523.64615 705.626305,2522.68751 705.082031,2521.64844 C704.587237,2520.68359 704.191408,2519.68783 703.894531,2518.66113 C703.597655,2517.63443 703.405925,2516.59538 703.319336,2515.54395 C703.232747,2514.49251 703.245117,2513.4349 703.356445,2512.37109 C703.467774,2511.30729 703.696613,2510.25586 704.042969,2509.2168 C704.364585,2508.17773 704.791338,2507.19434 705.323242,2506.2666 C705.855146,2505.33886 706.467444,2504.4668 707.160156,2503.65039 C707.852868,2502.83398 708.619787,2502.0918 709.460938,2501.42383 C710.302088,2500.75586 711.217443,2500.17448 712.207031,2499.67969 C712.479168,2499.53125 712.76367,2499.50651 713.060547,2499.60547 C713.357423,2499.70443 713.580077,2499.88997 713.728516,2500.16211 C713.876954,2500.45899 713.901693,2500.75586 713.802734,2501.05273 C713.703776,2501.34961 713.518231,2501.57226 713.246094,2501.7207 C711.588533,2502.58659 710.147467,2503.7246 708.922852,2505.13477 C707.698236,2506.54493 706.801435,2508.14062 706.232422,2509.92188 C705.663409,2511.70313 705.459309,2513.51529 705.620117,2515.3584 C705.780925,2517.20151 706.281897,2518.95181 707.123047,2520.60938 C707.593101,2521.47526 708.137367,2522.28548 708.755859,2523.04004 C709.374352,2523.7946 710.060869,2524.47493 710.81543,2525.08105 C711.569991,2525.68718 712.386389,2526.21289 713.264648,2526.6582 C714.142908,2527.10352 715.064448,2527.44987 716.029297,2527.69727 C716.128256,2527.72201 716.221028,2527.74674 716.307617,2527.77148 C716.394206,2527.79622 716.486979,2527.82096 716.585938,2527.8457 L714.396484,2524.43164 C714.272786,2524.23372 714.217122,2524.01107 714.229492,2523.76367 C714.241862,2523.51627 714.347004,2523.3431 714.544922,2523.24414 L714.841797,2523.05859 C715.064454,2522.9349 715.287108,2522.90397 715.509766,2522.96582 C715.732423,2523.02767 715.905598,2523.15755 716.029297,2523.35547 L719.443359,2528.69922 L719.443359,2528.73633 Z M734.917969,2507.28711 C735.412763,2508.25196 735.808592,2509.24772 736.105469,2510.27441 C736.402345,2511.30111 736.594075,2512.34016 736.680664,2513.3916 C736.767253,2514.44304 736.754883,2515.50065 736.643555,2516.56445 C736.532226,2517.62826 736.303387,2518.67968 735.957031,2519.71875 C735.635415,2520.75782 735.214846,2521.74739 734.695312,2522.6875 C734.175779,2523.62761 733.57585,2524.49967 732.895508,2525.30371 C732.215166,2526.10775 731.460616,2526.84375 730.631836,2527.51172 C729.803056,2528.17969 728.906255,2528.76107 727.941406,2529.25586 C727.842447,2529.30534 727.749675,2529.34245 727.663086,2529.36719 C727.576497,2529.39193 727.483724,2529.4043 727.384766,2529.4043 C727.186848,2529.4043 726.995118,2529.34863 726.80957,2529.2373 C726.624023,2529.12598 726.481771,2528.97136 726.382812,2528.77344 C726.234374,2528.47656 726.209635,2528.17969 726.308594,2527.88281 C726.407553,2527.58594 726.593098,2527.36328 726.865234,2527.21484 C728.522795,2526.34895 729.945307,2525.21094 731.132812,2523.80078 C732.320318,2522.39062 733.198565,2520.79493 733.767578,2519.01367 C734.336591,2517.23241 734.546876,2515.42644 734.398438,2513.5957 C734.249999,2511.76496 733.742843,2510.00847 732.876953,2508.32617 C731.961584,2506.56965 730.749357,2505.07292 729.240234,2503.83594 C727.731112,2502.59895 726.011728,2501.73308 724.082031,2501.23828 C723.859374,2501.16406 723.62435,2501.1084 723.376953,2501.07129 C723.129556,2501.03418 722.894532,2500.99089 722.671875,2500.94141 L724.861328,2504.35547 C724.985027,2504.55339 725.034505,2504.77604 725.009766,2505.02344 C724.985026,2505.27083 724.873699,2505.44401 724.675781,2505.54297 L724.378906,2505.72852 C724.180989,2505.85221 723.970704,2505.88314 723.748047,2505.82129 C723.52539,2505.75944 723.352214,2505.62956 723.228516,2505.43164 L719.814453,2500.08789 C719.814453,2500.08789 719.802083,2500.08789 719.777344,2500.08789 L719.591797,2499.7168 C719.517578,2499.61784 719.474284,2499.5127 719.461914,2499.40137 C719.449544,2499.29004 719.455729,2499.1849 719.480469,2499.08594 C719.505208,2498.98698 719.554687,2498.89421 719.628906,2498.80762 C719.703125,2498.72103 719.789713,2498.64063 719.888672,2498.56641 L720.259766,2498.38086 L725.789062,2495.52344 C725.98698,2495.42448 726.203449,2495.40592 726.438477,2495.46777 C726.673504,2495.52962 726.852864,2495.6595 726.976562,2495.85742 L727.087891,2496.1543 C727.211589,2496.35221 727.223959,2496.5625 727.125,2496.78516 C727.026041,2497.00781 726.877605,2497.18099 726.679688,2497.30469 L723.710938,2498.78906 C723.884115,2498.8138 724.051106,2498.84473 724.211914,2498.88184 C724.372722,2498.91895 724.527343,2498.96224 724.675781,2499.01172 C725.789068,2499.3086 726.85286,2499.71061 727.867188,2500.21777 C728.881515,2500.72494 729.82161,2501.33105 730.6875,2502.03613 C731.55339,2502.74121 732.345048,2503.53287 733.0625,2504.41113 C733.779952,2505.28939 734.398435,2506.24804 734.917969,2507.28711 Z" id=""></path>
        </g>
    </g>
</svg>