<?xml version="1.0" encoding="UTF-8"?>
<svg width="36px" height="37px" viewBox="0 0 36 37" version="1.1" xmlns="http://www.w3.org/2000/svg" xmlns:xlink="http://www.w3.org/1999/xlink">
    <!-- Generator: Sketch 52.6 (67491) - http://www.bohemiancoding.com/sketch -->
    <title>Question - simple-line-icons</title>
    <desc>Created with Sketch.</desc>
    <g id="Page-1" stroke="none" stroke-width="1" fill="none" fill-rule="evenodd">
        <g id="The-Ecosystem" transform="translate(-504.000000, -1281.000000)" fill="#FFFFFF">
            <g id="Group-9" transform="translate(405.000000, 1099.000000)">
                <path d="M117,182.25 C119.484387,182.25 121.822255,182.718745 124.013672,183.65625 C126.205089,184.593755 128.115226,185.876945 129.744141,187.505859 C131.373055,189.134774 132.656245,191.044911 133.59375,193.236328 C134.531255,195.427745 135,197.765613 135,200.25 C135,202.734387 134.531255,205.072255 133.59375,207.263672 C132.656245,209.455089 131.373055,211.365226 129.744141,212.994141 C128.115226,214.623055 126.205089,215.906245 124.013672,216.84375 C121.822255,217.781255 119.484387,218.25 117,218.25 C114.515613,218.25 112.177745,217.781255 109.986328,216.84375 C107.794911,215.906245 105.884774,214.623055 104.255859,212.994141 C102.626945,211.365226 101.343755,209.455089 100.40625,207.263672 C99.4687453,205.072255 99,202.734387 99,200.25 C99,197.765613 99.4687453,195.427745 100.40625,193.236328 C101.343755,191.044911 102.626945,189.134774 104.255859,187.505859 C105.884774,185.876945 107.794911,184.593755 109.986328,183.65625 C112.177745,182.718745 114.515613,182.25 117,182.25 Z M117,216.035156 C119.179698,216.035156 121.2246,215.619145 123.134766,214.787109 C125.044931,213.955074 126.708977,212.824226 128.126953,211.394531 C129.544929,209.964837 130.669918,208.294931 131.501953,206.384766 C132.333989,204.4746 132.75,202.429698 132.75,200.25 C132.75,198.070302 132.333989,196.0254 131.501953,194.115234 C130.669918,192.205069 129.544929,190.541023 128.126953,189.123047 C126.708977,187.705071 125.044931,186.580082 123.134766,185.748047 C121.2246,184.916011 119.179698,184.5 117,184.5 C114.820302,184.5 112.7754,184.916011 110.865234,185.748047 C108.955069,186.580082 107.291023,187.705071 105.873047,189.123047 C104.455071,190.541023 103.330082,192.205069 102.498047,194.115234 C101.666011,196.0254 101.25,198.070302 101.25,200.25 C101.25,202.429698 101.666011,204.4746 102.498047,206.384766 C103.330082,208.294931 104.455071,209.964837 105.873047,211.394531 C107.291023,212.824226 108.955069,213.955074 110.865234,214.787109 C112.7754,215.619145 114.820302,216.035156 117,216.035156 Z M115.347656,210.375 L115.347656,207.527344 L118.160156,207.527344 L118.160156,210.375 L115.347656,210.375 Z M116.964844,190.125 C117.878911,190.125 118.681637,190.236327 119.373047,190.458984 C120.064457,190.681642 120.667966,191.027341 121.183594,191.496094 C121.675784,191.941408 122.044921,192.486325 122.291016,193.130859 C122.537111,193.775394 122.660156,194.507808 122.660156,195.328125 C122.660156,195.937503 122.578126,196.511716 122.414062,197.050781 C122.249999,197.589846 122.015627,198.105466 121.710938,198.597656 C121.382811,199.066409 121.001955,199.552732 120.568359,200.056641 C120.134763,200.560549 119.660159,201.07031 119.144531,201.585938 C118.886717,201.843751 118.681641,202.083983 118.529297,202.306641 C118.376952,202.529298 118.277344,202.734374 118.230469,202.921875 C118.183594,203.109376 118.148438,203.361327 118.125,203.677734 C118.101562,203.994142 118.089844,204.351561 118.089844,204.75 L115.382812,204.75 C115.382812,204.093747 115.412109,203.537112 115.470703,203.080078 C115.529297,202.623045 115.617187,202.265626 115.734375,202.007812 C115.828125,201.749999 116.021483,201.451174 116.314453,201.111328 C116.607423,200.771483 116.988279,200.390627 117.457031,199.96875 C117.902346,199.429685 118.289061,198.95508 118.617188,198.544922 C118.945314,198.134764 119.203124,197.789064 119.390625,197.507812 C119.578126,197.203123 119.71875,196.880861 119.8125,196.541016 C119.90625,196.20117 119.953125,195.820315 119.953125,195.398438 C119.953125,194.929685 119.888673,194.507814 119.759766,194.132812 C119.630859,193.757811 119.437501,193.441408 119.179688,193.183594 C118.921874,192.92578 118.61133,192.726563 118.248047,192.585938 C117.884764,192.445312 117.457034,192.375 116.964844,192.375 C116.542967,192.375 116.156252,192.433593 115.804688,192.550781 C115.453123,192.667969 115.13672,192.843749 114.855469,193.078125 C114.55078,193.289064 114.328126,193.66406 114.1875,194.203125 C114.046874,194.74219 113.976562,195.234373 113.976562,195.679688 L111.375,195.679688 L111.339844,195.574219 C111.316406,194.847653 111.433592,194.085941 111.691406,193.289062 C111.94922,192.492184 112.347654,191.871096 112.886719,191.425781 C113.425784,190.980467 114.035153,190.652345 114.714844,190.441406 C115.394535,190.230468 116.144527,190.125 116.964844,190.125 Z" id="Question---simple-line-icons"></path>
            </g>
        </g>
    </g>
</svg>