<?xml version="1.0" encoding="UTF-8"?>
<svg width="19px" height="22px" viewBox="0 0 19 22" version="1.1" xmlns="http://www.w3.org/2000/svg" xmlns:xlink="http://www.w3.org/1999/xlink">
    <!-- Generator: Sketch 52.6 (67491) - http://www.bohemiancoding.com/sketch -->
    <title></title>
    <desc>Created with Sketch.</desc>
    <g id="Page-1" stroke="none" stroke-width="1" fill="none" fill-rule="evenodd">
        <g id="Themes-Copy-3" transform="translate(-1021.000000, -2820.000000)" fill="#212121">
            <path d="M1030.19238,2838.74902 L1030.31543,2838.93359 C1030.35645,2838.98828 1030.38037,2839.04639 1030.38721,2839.10791 C1030.39404,2839.16943 1030.39063,2839.22754 1030.37695,2839.28223 C1030.36328,2839.33691 1030.33594,2839.38818 1030.29492,2839.43604 C1030.25391,2839.48389 1030.20605,2839.52832 1030.15137,2839.56934 L1029.94629,2839.67188 L1026.89062,2841.25098 C1026.78125,2841.30566 1026.67188,2841.31592 1026.5625,2841.28174 C1026.45312,2841.24756 1026.36426,2841.17578 1026.2959,2841.06641 L1026.23438,2840.90234 C1026.16602,2840.79297 1026.14893,2840.67676 1026.18311,2840.55371 C1026.21729,2840.43066 1026.28906,2840.3418 1026.39844,2840.28711 L1028.05957,2839.42578 L1028.01855,2839.42578 C1028.00488,2839.42578 1027.99121,2839.41895 1027.97754,2839.40527 C1027.3623,2839.25488 1026.77442,2839.03613 1026.21387,2838.74902 C1025.65332,2838.46191 1025.12696,2838.12354 1024.63477,2837.73389 C1024.14258,2837.34424 1023.69824,2836.90674 1023.30176,2836.42139 C1022.90527,2835.93603 1022.55664,2835.40625 1022.25586,2834.83203 C1021.98242,2834.29883 1021.76367,2833.74854 1021.59961,2833.18115 C1021.43555,2832.61377 1021.32959,2832.03955 1021.28174,2831.4585 C1021.23389,2830.87744 1021.24072,2830.29297 1021.30225,2829.70508 C1021.36377,2829.11718 1021.49023,2828.53614 1021.68164,2827.96191 C1021.85938,2827.38769 1022.09521,2826.84424 1022.38916,2826.33154 C1022.68311,2825.81885 1023.02148,2825.33692 1023.4043,2824.88574 C1023.78711,2824.43457 1024.21094,2824.02442 1024.67578,2823.65527 C1025.14063,2823.28613 1025.64648,2822.96485 1026.19336,2822.69141 C1026.34375,2822.60937 1026.50098,2822.5957 1026.66504,2822.65039 C1026.8291,2822.70508 1026.95215,2822.80762 1027.03418,2822.95801 C1027.11621,2823.12207 1027.12988,2823.28613 1027.0752,2823.4502 C1027.02051,2823.61426 1026.91797,2823.7373 1026.76758,2823.81934 C1025.85156,2824.29785 1025.05518,2824.92675 1024.37842,2825.70605 C1023.70166,2826.48536 1023.20606,2827.36718 1022.8916,2828.35156 C1022.57715,2829.33594 1022.46436,2830.3374 1022.55322,2831.35596 C1022.64209,2832.37452 1022.91894,2833.34179 1023.38379,2834.25781 C1023.64356,2834.73633 1023.94433,2835.18408 1024.28613,2835.60107 C1024.62793,2836.01807 1025.00732,2836.39404 1025.42432,2836.729 C1025.84131,2837.06397 1026.29248,2837.35449 1026.77783,2837.60059 C1027.26319,2837.84668 1027.77246,2838.03809 1028.30566,2838.1748 C1028.36035,2838.18848 1028.41162,2838.20215 1028.45947,2838.21582 C1028.50732,2838.22949 1028.55859,2838.24316 1028.61328,2838.25684 L1027.40332,2836.37012 C1027.33496,2836.26074 1027.3042,2836.1377 1027.31104,2836.00098 C1027.31787,2835.86426 1027.37598,2835.76855 1027.48535,2835.71387 L1027.64941,2835.61133 C1027.77246,2835.54297 1027.89551,2835.52588 1028.01855,2835.56006 C1028.1416,2835.59424 1028.2373,2835.66602 1028.30566,2835.77539 L1030.19238,2838.72852 L1030.19238,2838.74902 Z M1038.74414,2826.89551 C1039.01758,2827.42871 1039.23633,2827.979 1039.40039,2828.54639 C1039.56445,2829.11377 1039.67041,2829.68799 1039.71826,2830.26904 C1039.76611,2830.8501 1039.75928,2831.43457 1039.69775,2832.02246 C1039.63623,2832.61035 1039.50977,2833.1914 1039.31836,2833.76562 C1039.14062,2834.33985 1038.9082,2834.88672 1038.62109,2835.40625 C1038.33398,2835.92578 1038.00244,2836.40771 1037.62646,2836.85205 C1037.25049,2837.29639 1036.8335,2837.70312 1036.37549,2838.07227 C1035.91748,2838.44141 1035.42188,2838.76269 1034.88867,2839.03613 C1034.83398,2839.06348 1034.78272,2839.08398 1034.73486,2839.09766 C1034.68701,2839.11133 1034.63574,2839.11816 1034.58105,2839.11816 C1034.47168,2839.11816 1034.36572,2839.0874 1034.26318,2839.02588 C1034.16064,2838.96436 1034.08203,2838.87891 1034.02734,2838.76953 C1033.94531,2838.60547 1033.93164,2838.44141 1033.98633,2838.27734 C1034.04102,2838.11328 1034.14355,2837.99023 1034.29395,2837.9082 C1035.20997,2837.42969 1035.99609,2836.80079 1036.65234,2836.02148 C1037.3086,2835.24218 1037.79394,2834.36036 1038.1084,2833.37598 C1038.42285,2832.3916 1038.53906,2831.39356 1038.45703,2830.38184 C1038.375,2829.37011 1038.09473,2828.39942 1037.61621,2827.46973 C1037.11035,2826.49902 1036.44043,2825.67188 1035.60645,2824.98828 C1034.77246,2824.30468 1033.82227,2823.82617 1032.75586,2823.55273 C1032.63281,2823.51172 1032.50293,2823.48096 1032.36621,2823.46045 C1032.22949,2823.43994 1032.09961,2823.41602 1031.97656,2823.38867 L1033.18652,2825.27539 C1033.25488,2825.38477 1033.28223,2825.50781 1033.26855,2825.64453 C1033.25488,2825.78125 1033.19336,2825.87695 1033.08398,2825.93164 L1032.91992,2826.03418 C1032.81055,2826.10254 1032.69434,2826.11963 1032.57129,2826.08545 C1032.44824,2826.05127 1032.35254,2825.97949 1032.28418,2825.87012 L1030.39746,2822.91699 C1030.39746,2822.91699 1030.39063,2822.91699 1030.37695,2822.91699 L1030.27441,2822.71191 C1030.2334,2822.65723 1030.20947,2822.59912 1030.20264,2822.5376 C1030.1958,2822.47607 1030.19922,2822.41797 1030.21289,2822.36328 C1030.22656,2822.30859 1030.25391,2822.25732 1030.29492,2822.20947 C1030.33594,2822.16162 1030.38379,2822.11719 1030.43848,2822.07617 L1030.64355,2821.97363 L1033.69922,2820.39453 C1033.80859,2820.33984 1033.92822,2820.32959 1034.05811,2820.36377 C1034.18799,2820.39795 1034.28711,2820.46973 1034.35547,2820.5791 L1034.41699,2820.74316 C1034.48535,2820.85254 1034.49219,2820.96875 1034.4375,2821.0918 C1034.38281,2821.21484 1034.30078,2821.31055 1034.19141,2821.37891 L1032.55078,2822.19922 C1032.64648,2822.21289 1032.73877,2822.22998 1032.82764,2822.25049 C1032.9165,2822.271 1033.00195,2822.29492 1033.08398,2822.32227 C1033.69922,2822.48633 1034.28711,2822.70849 1034.84766,2822.98877 C1035.40821,2823.26904 1035.92773,2823.604 1036.40625,2823.99365 C1036.88477,2824.3833 1037.32226,2824.8208 1037.71875,2825.30615 C1038.11524,2825.79151 1038.45703,2826.32129 1038.74414,2826.89551 Z" id=""></path>
        </g>
    </g>
</svg>