<?xml version="1.0" encoding="UTF-8"?>
<svg width="34px" height="35px" viewBox="0 0 34 35" version="1.1" xmlns="http://www.w3.org/2000/svg" xmlns:xlink="http://www.w3.org/1999/xlink">
    <!-- Generator: Sketch 52.6 (67491) - http://www.bohemiancoding.com/sketch -->
    <title>pie-chart - simple-line-icons</title>
    <desc>Created with Sketch.</desc>
    <g id="Page-1" stroke="none" stroke-width="1" fill="none" fill-rule="evenodd">
        <g id="The-Ecosystem" transform="translate(-855.000000, -1283.000000)" fill="#FFFFFF">
            <g id="Group-9" transform="translate(405.000000, 1099.000000)">
                <path d="M469.125,187.212891 C471.294282,187.212891 473.286449,187.594723 475.101562,188.358398 C476.916676,189.122074 478.482741,190.17903 479.799805,191.529297 C481.116869,192.879564 482.146155,194.478832 482.887695,196.327148 C483.629235,198.175465 484,200.184234 484,202.353516 C484,204.522797 483.584965,206.564769 482.754883,208.479492 C481.924801,210.394215 480.795906,212.065423 479.368164,213.493164 C477.940423,214.920906 476.269215,216.049801 474.354492,216.879883 C472.439769,217.709965 470.397797,218.125 468.228516,218.125 C466.059234,218.125 464.050465,217.748702 462.202148,216.996094 C460.353832,216.243486 458.754564,215.197598 457.404297,213.858398 C456.05403,212.519199 454.997074,210.925465 454.233398,209.077148 C453.469723,207.228832 453.087891,205.220063 453.087891,203.050781 C453.087891,202.763019 453.193033,202.513998 453.40332,202.303711 C453.613608,202.093423 453.862629,201.988281 454.150391,201.988281 C454.460288,201.988281 454.714843,202.093423 454.914062,202.303711 C455.113282,202.513998 455.212891,202.763019 455.212891,203.050781 C455.212891,204.932301 455.539385,206.66438 456.192383,208.24707 C456.845381,209.829761 457.752924,211.196609 458.915039,212.347656 C460.077154,213.498704 461.449536,214.395179 463.032227,215.037109 C464.614917,215.67904 466.346996,216 468.228516,216 C470.110035,216 471.880851,215.640303 473.541016,214.920898 C475.20118,214.201494 476.645502,213.227545 477.874023,211.999023 C479.102545,210.770502 480.076494,209.32618 480.795898,207.666016 C481.515303,206.005851 481.875,204.235035 481.875,202.353516 C481.875,200.471996 481.565107,198.739917 480.945312,197.157227 C480.325518,195.574536 479.451178,194.202154 478.322266,193.040039 C477.193354,191.877924 475.848641,190.970381 474.288086,190.317383 C472.727531,189.664385 471.00652,189.337891 469.125,189.337891 C468.815103,189.337891 468.560548,189.238282 468.361328,189.039062 C468.162108,188.839843 468.0625,188.585288 468.0625,188.275391 C468.0625,187.987629 468.162108,187.738608 468.361328,187.52832 C468.560548,187.318033 468.815103,187.212891 469.125,187.212891 Z M465.9375,199 C465.9375,199.309897 465.837892,199.564452 465.638672,199.763672 C465.439452,199.962892 465.184897,200.0625 464.875,200.0625 L451.0625,200.0625 C450.774738,200.0625 450.525717,199.962892 450.31543,199.763672 C450.105142,199.564452 450,199.309897 450,199 C450,196.941396 450.387366,195.004566 451.162109,193.189453 C451.936853,191.37434 452.993808,189.797207 454.333008,188.458008 C455.672207,187.118808 457.24934,186.061853 459.064453,185.287109 C460.879566,184.512366 462.816396,184.125 464.875,184.125 C465.184897,184.125 465.439452,184.230142 465.638672,184.44043 C465.837892,184.650717 465.9375,184.899738 465.9375,185.1875 L465.9375,199 Z M463.8125,197.9375 L463.8125,186.283203 C462.263013,186.416016 460.807624,186.803382 459.446289,187.445312 C458.084954,188.087243 456.88412,188.92838 455.84375,189.96875 C454.80338,191.00912 453.962243,192.209954 453.320312,193.571289 C452.678382,194.932624 452.291016,196.388013 452.158203,197.9375 L463.8125,197.9375 Z" id="pie-chart---simple-line-icons"></path>
            </g>
        </g>
    </g>
</svg>