<svg width="75" height="70" viewBox="0 0 75 70" xmlns="http://www.w3.org/2000/svg"><title>ico-piggy-bank</title><g fill="#FFF"><path d="M68.471 24.305h-2.7c-2.027-4.988-5.47-9.266-10.025-12.454l2.841-9.698A1.19 1.19 0 0 0 58.25.942a1.203 1.203 0 0 0-1.239-.238L41.903 6.458a36.892 36.892 0 0 0-5.427-.41c-11.805 0-21.687 5.388-27.03 13.76-5.917-.152-6.887-4.273-6.929-4.464a1.201 1.201 0 0 0-1.402-.935 1.195 1.195 0 0 0-.946 1.4c.395 2.019 2.573 5.667 7.96 6.297-1.912 3.761-2.97 8.02-2.97 12.593 0 8.405 3.741 16.18 10.314 21.535l-.736.734a7.18 7.18 0 0 0 0 10.163 7.173 7.173 0 0 0 5.097 2.105 7.172 7.172 0 0 0 5.097-2.105l4.479-4.465c5.214 1.03 10.839.884 15.89-.39l4.872 4.856a7.172 7.172 0 0 0 5.097 2.104 7.17 7.17 0 0 0 5.096-2.104 7.178 7.178 0 0 0 0-10.163l-1.731-1.727c3.125-2.834 5.567-6.31 7.13-10.148h2.707c3.3 0 5.984-2.676 5.984-5.966v-8.857c0-3.29-2.685-5.966-5.984-5.966zm3.59 14.822a3.59 3.59 0 0 1-3.59 3.58h-3.525c-.5 0-.949.31-1.122.778-1.546 4.157-4.21 7.883-7.707 10.777a1.192 1.192 0 0 0-.08 1.762l2.638 2.631a4.794 4.794 0 0 1 0 6.789 4.787 4.787 0 0 1-3.404 1.406 4.79 4.79 0 0 1-3.405-1.406l-5.358-5.341a1.198 1.198 0 0 0-1.164-.306c-2.819.774-5.803 1.167-8.868 1.167-2.445 0-4.87-.256-7.201-.762a1.198 1.198 0 0 0-1.1.322l-4.936 4.92a4.79 4.79 0 0 1-3.405 1.407c-1.286 0-2.495-.5-3.405-1.407a4.795 4.795 0 0 1 0-6.788l1.694-1.689a1.19 1.19 0 0 0-.133-1.801c-6.632-4.91-10.437-12.37-10.437-20.467 0-14.973 12.434-26.264 28.923-26.264 1.758 0 3.564.145 5.37.429.21.033.419.01.614-.064l13.152-5.01-2.41 8.225a1.192 1.192 0 0 0 .492 1.332c4.733 3.11 8.237 7.454 10.135 12.566.173.468.62.778 1.122.778h3.518a3.59 3.59 0 0 1 3.59 3.58v8.856h.002z"/><ellipse cx="51.385" cy="27.871" rx="3.325" ry="3.315"/></g></svg>