<svg width="120" height="265" viewBox="0 0 120 265" xmlns="http://www.w3.org/2000/svg"><title>Group 5</title><g fill="none" fill-rule="evenodd"><path d="M58.345 153.027l28.6-15.018L104.308 121l2.692 1.23s-13.698 16.026-15.655 18.245c-1.954 2.219-28.124 18.737-31.301 19.475-3.182.74-1.699-6.923-1.699-6.923" fill="#EFA92C"/><path d="M53.692 253.183c-.04-.432-.242-1.197-.534-2.124.94-1.905 1.49-3.5 2.053-4.92l.056-.139c.812.417 2.55 1.25 3.976 1.015 2.938 9.332 8.338 11.709 6.314 14.245-1.32 2.214-6.462 3.958-8.784 3.718-3.695-.413-9.248-4.418-8.74-6.254.362-1.309 1.05-1.86 2.363-3.472 2.082-.735 3.357-1.531 3.296-2.069" fill="#672D1A"/><path d="M49.116 242l.057.14c.352.868 2.31 5.722 3.283 8.774.296.925.5 1.689.542 2.118.062.538-1.234 1.33-3.349 2.063-4.662 1.62-13.304 2.966-20.066.712-3.089-1.75 6.673-3.33 15.625-13.18l.015-.015c2.481 1.479 3.893-.612 3.893-.612" fill="#672D1A"/><path d="M16 6.526a4.359 4.359 0 0 0 2.125-.946c.216-.18.402-.375.571-.58L21 10.017A24.098 24.098 0 0 0 19.964 12L16 6.526z" fill="#EFA92C"/><path d="M13.347 1.016c1.523-1.362 3.724-1.353 4.913.017 1.03 1.188.963 3.011-.067 4.364-.159.21-.333.407-.539.59a3.96 3.96 0 0 1-2.006.968c-1.091.173-2.185-.15-2.905-.983-1.191-1.375-.921-3.59.604-4.956" fill="#672D1A"/><path d="M30.019 14.713C29.435 10.064 42.693.497 44 1.02c-3.852 11.148-9.93 15.147-13.981 13.692" fill="#E3672A"/><path d="M40 14.036c-.865.707-2.51 1.903-3.018 1.962-.295.04-.95-.661-.982-.776.984-.116 3.946-1.458 4-1.186M19.022 22c.824-.96 8.59-5.527 10.743-2.622 1.34-3.592-3.407-3.923-5.293-3.378 1.517-3.695 5.224-1.134 5.224-1.134-.875-3.718-4.459-8.132-6.757-6.527-2.3 1.604-7.014 13.506-3.917 13.661" fill="#672D1A"/><path d="M17.943 25.092C13.023 23.798-.277 36.53.004 38c12.958-2.49 18.635-8.382 17.94-12.908" fill="#E3672A"/><path d="M22.288 180.379l18.892-12.88c-.404 6.317-.746 12.762-1.624 19.091l-17.268-6.211zm38.158-20.897c-.238-1.1-.469-2.198-.692-3.292-2.031-13.15-3.423-32.387-5.897-53.57-1.9-16.281-8.393-49.741-11.435-58.071-.08-.22-.215-.628-.394-1.083.326-.089 12.579-3.35 21.11-5.032 1.531 2.622 4.159 4.424 7.65 4.521 4.816-.664 6.775-3.325 8.386-6.126 2.334-3.862-.313-9.119-7.524-11.266-.565-.9-1.978-2.996-3.018-3.083-.548-.046-2.045 1.052-2.991 1.795a2339.344 2339.344 0 0 0-20.2-4.442c-.888-2.594-2.26-5.458-2.542-5.716-1.297-.414-4.582 1.71-7.188 3.63-2.37-.504-4.484-.95-6.212-1.312.216.5.234 1.129-.066 1.93-1.996-2.687-8.867 1.098-10.404 2.367l-.274.27L9.128 13A4.173 4.173 0 0 1 7 15.719l10.894 6.413c2.208 5.079 7.54 15.076 10.808 24.345l.016-.002c5.016 13.375 9.306 41.482 10.632 58.667 1.137 14.765 2.658 30.67 2.52 49.92-.038.78-.083 1.597-.126 2.43-4.068 3.347-20.571 17.008-26.245 23.204 2.03 1.797 16.978 6.762 20.686 7.984 1.612-.76 1.785-1.55 3.147-1.722.202 1.45-.126 6.487-1.524 9.407-.729 4.943-.822 8.834.123 11.777 1.488 11.459 6.596 29.084 7.745 34.594l.016-.015c2.487 1.468 3.906-.608 3.906-.608l.057.14c-1.962-13.456-2.32-22.108-2.263-27.067.329.064.661.122 1.003.174 3.203.506 6.523.823 9.489.24a758.643 758.643 0 0 0-2.842 30.492l.057-.137c.828.412 2.6 1.237 4.054 1.004 1.666-10.14 5.61-27.234 7.05-36.939 5.885 2.058 7.31 8.23 7.158 9.664-.132 1.195 1.314 2.692 1.59.16.523-4.848-2.657-9.685-6.101-11.878a17.619 17.619 0 0 0-1.938-1.093 37 37 0 0 0 .103-1.318c.587-2.717.826-6.094.604-10.294a44.92 44.92 0 0 0-.365-3.735c-.179-4.744-6.808-32.044-6.808-32.044z" fill="#EFA92C"/><path d="M2.735 10.696C3.92 9.04 6.12 8.504 7.649 9.502c1.138.745 1.575 2.127 1.243 3.47a4.055 4.055 0 0 1-.625 1.34A4.065 4.065 0 0 1 6.8 15.566c-1.115.575-2.426.603-3.444-.06-1.53-.999-1.804-3.151-.62-4.81" fill="#672D1A"/><path d="M44.923 20.897a5.003 5.003 0 0 1-.82 7.024 5 5 0 1 1-6.206-7.842 5.004 5.004 0 0 1 7.026.818" fill="#FFFFFE"/><path d="M44.57 20.759a2 2 0 1 1-2.813-.326 2.003 2.003 0 0 1 2.814.326" fill="#672D1A"/><path d="M37.923 26.898A5 5 0 1 1 30.08 33.1a5 5 0 0 1 7.844-6.203" fill="#FFFFFE"/><path d="M36.57 27.758a2 2 0 1 1-3.14 2.48 2 2 0 0 1 3.14-2.48M79 37.87c-7.832 6.654-14.097 1.953-13.718-2.87-1.78 4.395 5.177 10.483 12.063 4.507.175-.15 1.595-1.315 1.655-1.637M26 26c.486-.65 2.33-2.36 2.993-2.75.078-.57-.49-1.141-.849-1.25-1.593 2.353-2.146 3.007-2.144 4m41.075.977c.765.776 1.128 1.635.81 1.93-.32.287-1.196-.111-1.96-.885-.767-.778-1.126-1.638-.81-1.927.319-.29 1.195.105 1.96.882m3.001-2.001c.766.776 1.127 1.64.808 1.93-.318.287-1.195-.107-1.958-.885-.768-.774-1.13-1.637-.81-1.926.318-.29 1.193.105 1.96.88" fill="#672D1A"/><path d="M29.032 41.311s1.6 1.262 1.84 1.448c.052.044.61.62 1.387.19l2.283-1.173s1.367-.718.937.655c-.42 1.339-.684 2.44-.773 2.797-.09.373-.011.878.3 1.21.141.154 1.383 1.63 1.67 1.996 0 0 1.012 1.084-.54 1.123l-2.688.146c-.044-.002-.54.002-.851.612-.381.753-1.534 2.527-1.298 2.15-.153.237-.46.747-.79.439-.559-2.012-1.126-3.861-1.711-5.493-.032-.085-.38-.997-.798-2.247.077-.162.128-.39.12-.741-.012-.307-.077-2.47-.092-2.746-.017-.298.05-1.123 1.004-.366m18.909 36.278c-.045-.015-.629-.226-1.248.296-.762.647-2.856 2.067-2.416 1.76-.366.252-1.239.888-1.235-.58 0 0-.04-1.938-.092-2.76-.025-.567-.04-.931-.894-1.495l-2.595-1.862s-1.226-.796.32-1.302l3.25-1.027c.28-.103.65-.217.939-1.018.119-.336.955-2.699 1.057-3 .101-.327.523-1.193 1.318.041 0 0 1.327 2.043 1.53 2.352.025.034.152.288.424.505A643.258 643.258 0 0 1 50 78.239c-.902-.282-2.028-.635-2.059-.65M43.78 88.838s.77.98-.567.868l-2.32-.133c-.037-.008-.46-.047-.783.42-.395.578-1.548 1.915-1.31 1.627-.104.13-.29.352-.478.38A357.21 357.21 0 0 0 37 82.274c.08-.252.295-.481.852.04 0 0 1.26 1.179 1.452 1.353.04.042.466.56 1.172.286l2.064-.742s1.243-.46.75.622c-.481 1.049-.808 1.923-.916 2.209-.11.293-.089.714.15 1.013.109.14 1.044 1.457 1.255 1.783M32.014 59.013l1.428 1.418c.04.043.457.585 1.194.342l2.162-.647s1.3-.398.737.66c-.54 1.026-.922 1.886-1.047 2.161-.13.294-.128.712.105 1.024.105.145 1 1.508 1.205 1.843 0 0 .745 1.015-.625.84l-2.38-.243c-.036-.008-.472-.068-.832.384l-.167.205A211.34 211.34 0 0 0 32 59l.014.013zm21.602 42.007c.01.246-.024 2.492-.056 3.031 0 0 .07 1.732-1.422.517l-2.644-2.04c-.038-.036-.511-.432-1.3-.167-.97.329-3.494.901-2.967.774-.442.105-1.513.383-.945-.966 0 0 .7-1.799.967-2.573.187-.535.317-.878-.274-1.697l-1.753-2.624s-.86-1.162.803-1.087l3.48.195c.3.006.69.028 1.276-.606.24-.27 1.936-2.156 2.15-2.393.222-.269.956-.917 1.237.494 0 0 .48 2.351.554 2.706.012.062.057.67.627 1.044.243 1.55.46 3.02.651 4.406-.233.261-.4.61-.384.986m-10.424 14.858s.485 2.351.56 2.702c.013.08.07 1.016 1.16 1.28l3.134.845s1.89.494.35 1.31a51.308 51.308 0 0 0-3.03 1.744c-.395.242-.735.73-.711 1.262.006.248-.026 2.492-.056 3.03 0 0 .07 1.733-1.44.516 0 0-1.84-1.4-2.46-1.878A713.139 713.139 0 0 0 40 117.52c.54-.594 1.759-1.942 1.94-2.141.225-.267.964-.91 1.252.498m5.953 21.587s-.685-1.257.921-.985l3.346.608c.298.041.674.11 1.324-.452.19-.17 1.191-1.056 1.845-1.635.473 4.525.936 8.773 1.419 12.672-.082.635-.36 2.107-1.125.81l-2.593-3.07c-.033-.04-.438-.488-1.238-.323-.983.214-3.511.483-2.978.42-.44.046-1.516.197-.794-1.076 0 0 .915-1.701 1.277-2.438.25-.508.422-.837-.045-1.716l-1.359-2.815zm-1.888 26.168c-1.55.285-2.784.61-3.183.71a1.51 1.51 0 0 0-1.028.99c-.072.24-.834 2.39-1.039 2.9 0 0-.397 1.123-1.005.653-.044-.136.635-11.825.668-12.362.724-.443 1.995-1.212 2.192-1.337.283-.182 1.13-.567.917.879 0 0-.354 2.419-.402 2.783-.014.077-.272 1 .582 1.596l2.423 1.812s1.47 1.08-.125 1.376M44.26 54.407a.758.758 0 0 0-.354.62 36.18 36.18 0 0 1-.08 1.511s0 .86-.68.233l-1.213-1.066c-.018-.015-.236-.22-.613-.102-.466.147-1.667.39-1.42.337-.208.042-.723.164-.428-.498 0 0 .362-.885.507-1.267.097-.26.164-.434-.104-.85l-.782-1.333s-.382-.597.4-.531l1.642.157c.146.006.33.025.616-.281l1.061-1.159c.11-.127.468-.437.577.272l.21 1.356c.009.038.018.503.523.656l.552.179c.11.435.215.885.326 1.338-.353.198-.624.362-.74.428m14.685 155.796c-.454-.065-1.563-.192-.495-1.276 0 0 1.378-1.464 1.936-2.11.39-.439.65-.722.427-1.724l-.57-3.16s-.33-1.433 1.187-.747l3.152 1.471c.282.12.636.284 1.438-.113.119-.061.515-.258.98-.494-.412 4.65-1.64 7.827-3.404 9.95-.246-.44-.433-.784-.443-.803-.022-.05-.302-.601-1.138-.64-1.038-.044-3.616-.429-3.07-.354M41.97 135.196c.17-.15.707-.508.762.407 0 0 .106 1.531.126 1.762.004.05-.043.647.637.894l1.947.776s1.176.454.114.855c-1.035.391-1.848.763-2.112.879-.275.125-.537.414-.571.748-.013.16-.231 1.58-.299 1.921 0 0-.108 1.102-.974.22 0 0-.134-.132-.316-.306-.07-2.503-.164-4.947-.284-7.34.413-.345.876-.737.97-.816m12.251 21.914s.698-.78.98-1.122c.197-.235.328-.385.183-.894L55 153.491s-.217-.728.61-.411l1.724.676c.155.055.346.133.766-.09l1.115-.605c.158 1.063.317 2.103.48 3.094.1.457.203.916.306 1.374l-.235.055c-.246.054-.509.246-.596.513a40.768 40.768 0 0 1-.605 1.507s-.294.877-.82.02l-.95-1.46c-.01-.026-.177-.3-.626-.302-.553.005-1.945-.132-1.65-.108-.241-.022-.84-.06-.297-.644m1.328-25.647c-.023-.029-.296-.34-.833-.227-.661.151-2.356.34-2.001.295-.296.037-1.02.141-.533-.75 0 0 .614-1.193.857-1.707.17-.353.282-.58-.033-1.199l-.91-1.963s-.459-.88.617-.69l2.252.426c.198.024.45.075.885-.318l.36-.33c.269 2.736.532 5.408.789 8-.32-.336-1.428-1.512-1.45-1.537m-8.411-20.713s-.533-.75.49-.703l2.137.128c.191.004.43.019.785-.392.15-.17 1.191-1.386 1.325-1.538.136-.17.588-.588.76.318 0 0 .29 1.514.34 1.74.011.05.044.652.706.82l1.16.33c.055.387.126 1.332.158 1.507-.527.317-.884.565-1.043.669-.24.158-.446.47-.431.811.006.16-.013 1.603-.035 1.951 0 0 .044 1.111-.874.332l-1.625-1.313c-.023-.024-.313-.275-.798-.11-.598.214-2.15.58-1.824.502-.27.064-.932.245-.584-.62 0 0 .431-1.16.594-1.66.118-.34.198-.562-.166-1.087l-1.075-1.686zm15.011 87.12s.46-.522.647-.753c.129-.156.219-.26.141-.615l-.19-1.127s-.11-.51.396-.27l1.05.53c.095.04.214.099.477-.04l.988-.537c.107-.06.42-.186.318.334l-.191 1c-.006.028-.116.355.183.584l.847.697.184.218v.172l-.252.107c-.564.076-1.017.17-1.164.197a.541.541 0 0 0-.386.34c-.03.088-.342.846-.424 1.028 0 0-.212.602-.515-.008l-.54-1.049c-.007-.013-.103-.214-.382-.23-.345-.01-1.207-.15-1.023-.123-.15-.023-.52-.067-.164-.455" fill="#E3672A"/><path d="M41.652 187.04c-.934 12.195-2.398 19.96 8.049 19.96 8.237 0 10.713-10.284 8.564-22.263-2.387-13.279-5.01-20.664-9.505-20.737-4.01-.066-6.043 9.123-7.108 23.04" fill="#FBD372"/><path d="M73.144 221.302c.607-1.856 4.007-1.64 5.123.093.945 1.47 1.906 5.328 6.145 7.66 1.857 1.027 4.4 2.068 7.588-.316-.232 1.231-3.245 4.044-7.588 3.054-4.342-.986-7.18-2.64-8.816-4.241-1.642-1.61-3.06-4.397-2.452-6.25" fill="#672D1A"/><path d="M63 171.523c-.366.09-.655.163-.674.17-.2.056-.454.12-.701.704-.1.244-.814 1.97-.9 2.187-.09.238-.434.86-.898-.113l-.902-1.86c-.027-.057-.255-.73-1-.703l-2.166.016s-1.307.018-.49-.888c.794-.88 1.386-1.638 1.58-1.883a1.21 1.21 0 0 0 .2-1.067 72.267 72.267 0 0 1-.577-2.224s-.396-1.252.815-.666l2.113.948c.029.02.413.212.87-.141.347-.274 1.07-.74 1.487-1.003L63 171.523zm-20.493 10.719c-1.027.208-1.841.441-2.106.515L40 183c.229-2.318.43-4.663.606-7 .183-.002.343.152.256.77 0 0-.23 1.744-.26 2.01-.01.059-.18.72.383 1.158l1.605 1.308s.975.78-.083.996m15.773 2.048s.88-1.008 1.237-1.449c.248-.3.418-.495.232-1.148l-.491-2.062s-.271-.934.778-.53l2.176.875c.194.07.438.167.964-.118.159-.086 1.002-.553 1.535-.848A261.16 261.16 0 0 1 66 184.728c-.335.073-.586.135-.717.164-.309.073-.641.318-.756.66-.052.165-.61 1.597-.76 1.94 0 0-.375 1.125-1.036.026l-1.2-1.882c-.016-.03-.224-.384-.79-.384-.701.005-2.457-.171-2.087-.14-.309-.03-1.06-.078-.374-.823m-21.017 23.165c.174 1.232.348 1.336.797 4.76l.344.362c1.003 1.127 1.057-.35 1.057-.35.054-.458.21-2.365.22-2.576a1.31 1.31 0 0 1 .583-1.032c.283-.169 1.151-.706 2.267-1.29 1.148-.599-.174-1.137-.174-1.137l-2.185-.913c-.761-.291-.747-1.091-.752-1.157-.03-.307-.24-2.333-.24-2.333-.12-1.22-.684-.713-.86-.502-.12.131-.799.896-1.268 1.421a20.664 20.664 0 0 0 .211 4.747m15.029 8.514c2.01.085 3.888 0 4.708-.255l-2.835-1.268c-.99-.406-.935-1.41-.94-1.494l-.204-2.94c-.1-1.537-.871-.933-1.112-.676-.23.232-2.06 2.034-2.32 2.294-.626.607-.994.535-1.283.497l-3.27-.616c-1.567-.278-.89 1.062-.89 1.062l.97 2.155c.88.642 4.193 1.117 7.176 1.241" fill="#E3672A"/><path d="M32.332 191.082c-.525.505-.94 1.005-1.177 1.473-.919 1.81 2.484 10.23 3.906 10.442.783.119 2.287-2.918 3.389-6.395.247 1.26 1.085 3.995 3.474 1.403.362-.394-.659-3.85-1.2-5.477.067-.242-1.634-4.172-1.865-5.528-1.407.242-4.22 1.863-6.527 4.082M104 120.343s3.074-10.536 11.601-13.63c0 0 5.486-2.382 4.205 1.563-1.278 3.944-6.154 8.763-6.154 8.763s1.28 1.503.122 2.568c-1.158 1.063-6.999 2.393-7.732 2.393-.73 0-2.066-1.392-2.042-1.657" fill="#672D1A"/></g></svg>