<?xml version="1.0" encoding="UTF-8"?>
<svg width="120px" height="265px" viewBox="0 0 120 265" version="1.1" xmlns="http://www.w3.org/2000/svg" xmlns:xlink="http://www.w3.org/1999/xlink">
    <!-- Generator: Sketch 45.2 (43514) - http://www.bohemiancoding.com/sketch -->
    <title>Group 5</title>
    <desc>Created with Sketch.</desc>
    <defs></defs>
    <g id="Page-1" stroke="none" stroke-width="1" fill="none" fill-rule="evenodd">
        <g id="Returns" transform="translate(-59.000000, -544.000000)">
            <g id="Group-5" transform="translate(59.000000, 544.000000)">
                <path d="M58.3451542,153.027123 L86.9449213,138.009435 L104.307759,121 L107,122.230767 C107,122.230767 93.3019229,138.255976 91.3453299,140.474851 C89.3906626,142.693727 63.2212306,159.212019 60.0436927,159.949703 C56.8623032,160.689328 58.3451542,153.027123 58.3451542,153.027123" id="Fill-7999" fill="#EFA92C"></path>
                <path d="M53.6921389,253.183163 C53.6521072,252.750961 53.4500427,251.986295 53.1583836,251.059309 C54.0981741,249.15449 54.6471796,247.558666 55.2114352,246.138852 L55.266717,246 C56.0787876,246.416557 57.8173049,247.249671 59.243194,247.014991 C62.1807545,256.347432 67.5812144,258.723566 65.5567568,261.260066 C64.2376187,263.47388 59.0945051,265.218335 56.7726695,264.977788 C53.0783203,264.565142 47.5253588,260.559937 48.0324264,258.723566 C48.3946175,257.415226 49.0827805,256.863728 50.3961999,255.252258 C52.4778455,254.516928 53.7531395,253.720971 53.6921389,253.183163" id="Fill-8001" fill="#672D1A"></path>
                <path d="M49.1164278,242 L49.1725964,242.140411 C49.5251028,243.008228 51.4832563,247.862156 52.4555541,250.914143 C52.7518919,251.838515 52.9552609,252.602974 52.9978716,253.032007 C53.0598507,253.570249 51.7640993,254.362011 49.6490611,255.095268 C44.9870675,256.715844 36.3448509,258.061448 29.5833138,255.807073 C26.494041,254.057787 36.2557559,252.476214 45.2078682,242.627949 L45.223363,242.612348 C47.7044655,244.090562 49.1164278,242 49.1164278,242" id="Fill-8003" fill="#672D1A"></path>
                <path d="M16,6.5261194 C16.7476452,6.4141791 17.4913658,6.10261194 18.1251962,5.58022388 C18.3410518,5.39925373 18.5274725,5.20522388 18.6962323,5 L21,10.016791 C20.6487441,10.6156716 20.2955259,11.2891791 19.9638932,12 L16,6.5261194 Z" id="Fill-8005" fill="#EFA92C"></path>
                <path d="M13.3467621,1.0157312 C14.8696387,-0.346163517 17.0705844,-0.336639777 18.2599844,1.03287393 C19.2900566,2.2214366 19.2233613,4.0442803 18.193289,5.39665128 C18.0339613,5.60617355 17.8598124,5.80426732 17.6541685,5.98712312 C17.0557632,6.52235727 16.3536097,6.84045016 15.6477508,6.95473503 C14.5565412,7.12806709 13.4634789,6.80425995 12.7427989,5.97188513 C11.5515463,4.59665718 11.8220329,2.38143542 13.3467621,1.0157312" id="Fill-8007" fill="#672D1A"></path>
                <path d="M30.0186779,14.7126806 C29.4354977,10.0639902 42.6930014,0.497313661 44,1.02062557 C40.1483858,12.1686972 34.0709361,16.1680225 30.0186779,14.7126806" id="Fill-8009" fill="#E3672A"></path>
                <path d="M40,14.0364613 C39.1349934,14.7431657 37.4906073,15.9387546 36.9820882,15.9984534 C36.6867628,16.0371769 36.0314548,15.3369265 36,15.2223694 C36.9838357,15.1061988 39.9458279,13.7637832 40,14.0364613" id="Fill-8011" fill="#672D1A"></path>
                <path d="M19.0219501,22 C19.8462225,21.040874 27.6120466,16.4727667 29.7649677,19.3776044 C31.1053917,15.7862757 26.3579749,15.4547986 24.471961,16.0000686 C25.9890148,12.3047856 29.6962783,14.8663778 29.6962783,14.8663778 C28.8209795,11.1475579 25.2373569,6.73440148 22.9392068,8.33882903 C20.6390941,9.94325658 15.9250407,21.8450492 19.0219501,22" id="Fill-8013" fill="#672D1A"></path>
                <path d="M17.9430825,25.0922919 C13.0231726,23.797546 -0.276911672,36.5292141 0.00439465081,38 C12.9621901,35.5108321 18.6394632,29.6182238 17.9430825,25.0922919" id="Fill-8015" fill="#E3672A"></path>
                <path d="M22.2884707,180.378641 L41.1804025,167.498148 C40.7761308,173.816406 40.4340546,180.260525 39.5555409,186.5904 L22.2884707,180.378641 Z M60.4455083,159.481725 C60.2083874,158.381888 59.9770972,157.283986 59.7535816,156.189958 C57.7225046,143.040314 56.3308767,123.802836 53.8566556,102.619343 C51.9577443,86.3386476 45.4641286,52.8787973 42.4223721,44.5486887 C42.3426839,44.329883 42.2066309,43.9213165 42.0278184,43.4662781 C42.3543456,43.3772067 54.6068907,40.1164204 63.1374142,38.4337462 C64.6689824,41.0555423 67.296749,42.8582692 70.7874804,42.9550859 C75.6037569,42.2909234 77.5629202,39.6304005 79.1741765,36.8285253 C81.5084574,32.9674755 78.8612546,27.7103289 71.6504452,25.5629345 C71.0848535,24.6625393 69.6718458,22.5674259 68.6320121,22.4802909 C68.0839128,22.4338189 66.5873298,23.5317202 65.6407896,24.2752725 C59.6836115,22.9295204 52.2978768,21.3146179 45.4408053,19.8333224 C44.5525735,17.238635 43.1803817,14.3747971 42.8985577,14.1172647 C41.6021669,13.7028892 38.3174586,15.8270475 35.7110717,17.7478908 C33.3418057,17.2425076 31.2271533,16.7971508 29.4992801,16.4350564 C29.7150213,16.9346305 29.7325138,17.5639391 29.4331972,18.3655813 C27.4371052,15.6779498 20.5664284,19.4634827 19.0290294,20.7317814 L18.7549798,21.0028681 L9.12825775,13 C9.00969727,13.4821471 8.80173053,13.9604216 8.49463946,14.4038421 C8.09231128,14.9828059 7.57142263,15.4184811 7,15.7186128 L17.8939586,22.1317508 C20.1019046,27.2107547 25.4332388,37.2080468 28.7023982,46.4772773 L28.7179471,46.475341 C33.7344158,59.8495994 38.0239728,87.9574228 39.3495178,105.142386 C40.4865322,119.906933 42.0083823,135.81198 41.8703857,155.061075 C41.8315134,155.841418 41.7868102,156.658551 41.7440507,157.491174 C37.6760658,160.839096 21.1728361,174.499931 15.4994257,180.6962 C17.5285591,182.493118 32.4768973,187.457878 36.1853136,188.679705 C37.7965699,187.920662 37.9695516,187.130638 39.3320253,186.958304 C39.5341612,188.408618 39.2056903,193.445023 37.8082316,196.365014 C37.0793762,201.308475 36.9860827,205.19857 37.9306793,208.141797 C39.4194879,219.601021 44.5273065,237.225533 45.6759826,242.736339 L45.6915315,242.720848 C48.1793579,244.18859 49.5981964,242.11284 49.5981964,242.11284 L49.6545613,242.252256 C47.6934543,228.796671 47.3358293,220.145131 47.3921941,215.18618 C47.7206649,215.250079 48.053023,215.308169 48.3950991,215.36045 C51.5981756,215.865833 54.917869,216.183392 57.8838246,215.600555 C57.0986043,222.499713 55.9324357,233.705278 55.0422603,246.092006 L55.0986251,245.954526 C55.9266049,246.366965 57.6991812,247.191843 59.1530048,246.959483 C60.8186823,236.818903 64.7622759,219.724947 66.2024941,210.020041 C72.0877585,212.078364 73.5124278,218.24946 73.3608259,219.684284 C73.2286601,220.879002 74.6747092,222.375788 74.9507025,219.843063 C75.4735347,214.996419 72.2937816,210.159457 68.8496969,207.965591 C68.0858565,207.477635 67.4522382,207.129094 66.9119134,206.873498 C66.9566165,206.399097 66.9916016,205.957612 67.0149249,205.554855 C67.6018965,202.838178 67.840961,199.461212 67.619389,195.261304 C67.5630242,194.120803 67.4347456,192.866059 67.2539895,191.526116 C67.075177,186.782098 60.4455083,159.481725 60.4455083,159.481725 L60.4455083,159.481725 Z" id="Fill-8017" fill="#EFA92C"></path>
                <path d="M2.73469573,10.6957208 C3.92028222,9.04020956 6.11963107,8.50438559 7.64886582,9.50212677 C8.78672339,10.2467373 9.22392034,11.6287936 8.89172703,12.9720489 C8.77335929,13.4302707 8.56907949,13.8884926 8.26743269,14.3116088 C7.87223719,14.8640618 7.36058312,15.2797873 6.79929096,15.5661759 C5.68434328,16.1408009 4.37275243,16.168516 3.35517175,15.5052029 C1.825937,14.5074617 1.55101839,12.3549275 2.73469573,10.6957208" id="Fill-8019" fill="#672D1A"></path>
                <path d="M44.9225917,20.8968407 C46.6337486,23.0652721 46.2674809,26.2063509 44.1023047,27.9208802 C41.9371285,29.6335023 38.7933309,29.2692364 37.0783587,27.100805 C35.3652942,24.938095 35.7334695,21.793202 37.8967381,20.0786727 C40.0638219,18.3660505 43.2095272,18.7322236 44.9225917,20.8968407" id="Fill-8021" fill="#FFFFFE"></path>
                <path d="M44.5707097,20.7588857 C45.2554449,21.6234021 45.1032815,22.8840739 44.2410223,23.5690519 C43.3748616,24.2540298 42.1146367,24.1057155 41.4338031,23.2431506 C40.7451663,22.3747313 40.893428,21.116011 41.757638,20.4329845 C42.6277004,19.746055 43.880122,19.8924179 44.5707097,20.7588857" id="Fill-8023" fill="#672D1A"></path>
                <path d="M37.9231684,26.897677 C39.6343501,29.0632484 39.2661694,32.205712 37.1028695,33.9209972 C34.9395695,35.6343744 31.7919109,35.2680399 30.0788215,33.1005604 C28.3657322,30.938805 28.7320052,27.7925255 30.8991205,26.0791483 C33.0643281,24.365771 36.210079,24.7321056 37.9231684,26.897677" id="Fill-8025" fill="#FFFFFE"></path>
                <path d="M36.569257,27.7583481 C37.2541449,28.624717 37.1058501,29.8832933 36.2414473,30.5662418 C35.3770446,31.255044 34.1145874,31.1067467 33.4336019,30.2403778 C32.7448115,29.3759602 32.8931063,28.1173839 33.7614116,27.4305329 C34.6258143,26.7475845 35.8804665,26.8919793 36.569257,27.7583481" id="Fill-8027" fill="#672D1A"></path>
                <path d="M79,37.8698413 C71.1683519,44.5240439 64.903418,39.8231258 65.2821206,35 C63.5020259,39.3953992 70.4590053,45.4833734 77.3448579,39.5074228 C77.5197916,39.3567002 78.9404072,38.1916546 79,37.8698413" id="Fill-8029" fill="#672D1A"></path>
                <path d="M26.0000061,26 C26.485702,25.3491228 28.3309222,23.6403509 28.9926563,23.2491228 C29.0711312,22.6807018 28.5027185,22.1087719 28.1442792,22 C26.5514512,24.3526316 25.9978851,25.0070175 26.0000061,26" id="Fill-8031" fill="#672D1A"></path>
                <path d="M67.0748796,26.9773328 C67.8397128,27.7530577 68.2025448,28.6118959 67.8850668,28.9067505 C67.5655273,29.1936896 66.6893707,28.7959327 65.9245375,28.0221867 C65.1576427,27.244483 64.7989339,26.3836658 65.1143503,26.0947479 C65.4338897,25.80583 66.3100464,26.1996291 67.0748796,26.9773328" id="Fill-8033" fill="#672D1A"></path>
                <path d="M70.0759147,24.9758654 C70.8424479,25.7519797 71.2030482,26.6152089 70.8836594,26.9062518 C70.5663311,27.1933349 69.6885269,26.7993381 68.9261148,26.0212439 C68.157521,25.2471095 67.7969207,24.3838803 68.1163095,24.0948173 C68.4336378,23.8057543 69.3093814,24.1997511 70.0759147,24.9758654" id="Fill-8035" fill="#672D1A"></path>
                <path d="M29.0318318,41.3114785 C29.0318318,41.3114785 30.6314539,42.5733436 30.8729063,42.759261 C30.9238377,42.8027736 31.4821964,43.3783265 32.2593713,42.9491341 L34.541851,41.776272 C34.541851,41.776272 35.9094525,41.0583143 35.4793654,42.4309387 C35.0587101,43.7699398 34.7946215,44.8715995 34.7059632,45.2276116 C34.6154186,45.6014243 34.6946451,46.1057748 35.0058924,46.4380528 C35.1473684,46.5923247 36.3885846,48.0677971 36.6753094,48.4336984 C36.6753094,48.4336984 37.6882777,49.5175575 36.1358142,49.5571144 L33.4477698,49.7034749 C33.4043839,49.701497 32.9082746,49.7054527 32.5970274,50.314629 C32.2159853,51.068188 31.0634274,52.8423149 31.2992207,52.4645465 C31.1464266,52.7018879 30.8389521,53.212172 30.5088414,52.9036281 C29.9504827,50.8921597 29.3826923,49.0428747 28.7979247,47.4111525 C28.7658568,47.3261052 28.418769,46.4143186 28,45.1643206 C28.0773402,45.0021373 28.1282716,44.7746851 28.1207262,44.4226287 C28.1075218,44.1160627 28.043386,41.9523002 28.0282952,41.6773798 C28.0113181,41.3787252 28.0773402,40.5539638 29.0318318,41.3114785" id="Fill-8037" fill="#E3672A"></path>
                <path d="M47.9411136,77.5887086 C47.8961854,77.5735234 47.312118,77.3628296 46.6928893,77.8848189 C45.9310623,78.5320856 43.8370147,79.9518965 44.2765303,79.6443974 C43.911244,79.8968504 43.038073,80.5327282 43.0419798,79.0654638 C43.0419798,79.0654638 43.0029118,77.1274599 42.9501699,76.305564 C42.9247756,75.7380193 42.9091484,75.3735758 42.0555115,74.8098274 L39.4613928,72.9477492 C39.4613928,72.9477492 38.2346559,72.1524273 39.7817508,71.6456231 L43.0302594,70.6187278 C43.3115494,70.5162281 43.6807425,70.4023395 43.9698461,69.6013232 C44.0890036,69.2653519 44.9250599,66.902164 45.0266369,66.6003593 C45.1282138,66.2738787 45.5501488,65.4083256 46.3451837,66.6421184 C46.3451837,66.6421184 47.6715441,68.6845202 47.8746979,68.9939175 C47.9000922,69.0280841 48.0270633,69.2824352 48.2985863,69.4988235 C48.8767935,72.3669174 49.4510939,75.3071408 50,78.2397716 C49.097528,77.9569483 47.9723681,77.6038937 47.9411136,77.5887086" id="Fill-8039" fill="#E3672A"></path>
                <path d="M43.7791234,88.8376736 C43.7791234,88.8376736 44.5495642,89.8172052 43.2126229,89.7062793 L40.8937472,89.5727923 C40.8559805,89.5652719 40.4329934,89.5257898 40.1100881,89.9920544 C39.715426,90.5711248 38.5616532,91.9078752 38.7995835,91.62022 C38.695725,91.7499468 38.5106682,91.9717985 38.3218347,92 C37.9385026,88.8489542 37.4947438,85.5775822 37,82.2742484 C37.0793101,82.0223151 37.2945803,81.7929431 37.8516392,82.3137305 C37.8516392,82.3137305 39.1111588,83.4925525 39.303769,83.6674017 C39.343424,83.7087638 39.7701878,84.2276711 40.4764251,83.9531767 L42.5403755,83.2105376 C42.5403755,83.2105376 43.7829001,82.7517935 43.2900446,83.8328504 C42.8085191,84.8819456 42.4818371,85.7561915 42.374202,86.0419666 C42.2646786,86.335262 42.2854503,86.7564042 42.5233805,87.0553399 C42.632904,87.1944672 43.5676299,88.5124165 43.7791234,88.8376736" id="Fill-8041" fill="#E3672A"></path>
                <path d="M32.0136187,59.0131765 C32.0136187,59.0131765 33.2568105,60.2461176 33.4416356,60.4305882 C33.4824916,60.4738824 33.8988344,61.016 34.6361892,60.7731765 L36.7976697,60.1256471 C36.7976697,60.1256471 38.0972818,59.7284706 37.5350245,60.7863529 C36.994168,61.8122353 36.6128447,62.6724706 36.4883309,62.9472941 C36.3579806,63.2409412 36.3599261,63.6588235 36.5933894,63.9712941 C36.6984478,64.1162353 37.5933903,65.4790588 37.7976706,65.8141176 C37.7976706,65.8141176 38.5428075,66.8287059 37.1731564,66.6536471 L34.7937769,66.4108235 C34.7568118,66.4032941 34.3210138,66.3430588 33.9610913,66.7948235 L33.7937759,67 C33.2237365,64.2197647 32.6225687,61.5317647 32,59 L32.0136187,59.0131765 Z" id="Fill-8043" fill="#E3672A"></path>
                <path d="M53.615727,101.020024 C53.6256823,101.266044 53.5918344,103.512147 53.5599776,104.051136 C53.5599776,104.051136 53.6296644,105.782664 52.1383666,104.56759 L49.4942499,102.528068 C49.45642,102.492386 48.9825496,102.096125 48.1940932,102.360925 C47.224451,102.689577 44.6997974,103.262371 45.2274261,103.134666 C44.7854126,103.239835 43.7142268,103.517781 44.2816765,102.169368 C44.2816765,102.169368 44.9825267,100.370232 45.2493277,99.5964904 C45.4364865,99.0612568 45.5659049,98.7175805 44.9745625,97.898767 L43.222437,95.2751834 C43.222437,95.2751834 42.3623026,94.1126936 44.0248308,94.1878141 L47.5051893,94.3831274 C47.8058381,94.3887615 48.1940932,94.4112976 48.7814534,93.7765293 C49.0203796,93.5060955 50.7167557,91.6205709 50.9317893,91.3839413 C51.152796,91.1153855 51.8874941,90.4674711 52.1682324,91.8778586 C52.1682324,91.8778586 52.6480759,94.2291304 52.7217448,94.5840748 C52.7336911,94.6460492 52.7794853,95.2545253 53.3489261,95.6282498 C53.5918344,97.1776102 53.808859,98.6480941 54,100.034067 C53.7670469,100.295111 53.5997986,100.644421 53.615727,101.020024" id="Fill-8045" fill="#E3672A"></path>
                <path d="M43.1917949,115.877567 C43.1917949,115.877567 43.6768029,118.229084 43.7512647,118.580309 C43.765352,118.659194 43.8217015,119.59642 44.9124662,119.859369 L48.0458992,120.704563 C48.0458992,120.704563 49.9356189,121.198531 48.3960709,122.015552 C46.9007975,122.808156 45.7416084,123.525632 45.3652745,123.758529 C44.9708282,124.000818 44.6307189,124.489152 44.6548687,125.020685 C44.6609061,125.268609 44.6287064,127.513068 44.5985192,128.050235 C44.5985192,128.050235 44.668956,129.783822 43.1595952,128.566743 C43.1595952,128.566743 41.3181751,127.167478 40.6983309,126.688534 C40.4829955,123.555683 40.2435102,120.503594 40,117.521 C40.5393449,116.927486 41.7589084,115.578932 41.9400317,115.379842 C42.1654296,115.113137 42.9040102,114.470789 43.1917949,115.877567" id="Fill-8047" fill="#E3672A"></path>
                <path d="M49.1452557,137.464468 C49.1452557,137.464468 48.4600787,136.206856 50.0659622,136.479433 L53.4120395,137.086621 C53.7098579,137.127977 54.0855373,137.197531 54.7356768,136.63546 C54.9264363,136.464394 55.9269504,135.57899 56.5809829,135 C57.0539886,139.524772 57.5172617,143.773207 58,147.671992 C57.9182459,148.307378 57.6398928,149.779291 56.8749083,148.482203 L54.2821364,145.412426 C54.2490454,145.37295 53.8441681,144.923668 53.0441462,145.089094 C52.0611508,145.303396 49.5326142,145.572212 50.0659622,145.508298 C49.6260475,145.555294 48.5496189,145.705681 49.2717798,144.43303 C49.2717798,144.43303 50.1866468,142.731776 50.5487005,141.99488 C50.7998023,141.487323 50.9710966,141.158351 50.5039304,140.278587 L49.1452557,137.464468 Z" id="Fill-8049" fill="#E3672A"></path>
                <path d="M47.2572817,163.631617 C45.7068276,163.917406 44.4730934,164.241556 44.0735108,164.341294 C43.6536729,164.452541 43.2025312,164.813134 43.0460127,165.332925 C42.9741983,165.572681 42.2118611,167.722813 42.0074663,168.231095 C42.0074663,168.231095 41.6097251,169.355071 41.0020649,168.88515 C40.9578715,168.748968 41.637346,157.060385 41.6704911,156.523332 C42.3941591,156.080263 43.6647212,155.311125 43.8617504,155.186452 C44.1453252,155.004238 44.9923666,154.61871 44.7787649,156.064918 C44.7787649,156.064918 44.4252171,158.483576 44.3773409,158.848006 C44.3626097,158.924727 44.1048145,159.847308 44.9592215,160.443821 L47.3824966,162.256376 C47.3824966,162.256376 48.8519293,163.336237 47.2572817,163.631617" id="Fill-8051" fill="#E3672A"></path>
                <path d="M44.260943,54.4073368 C44.0717913,54.5235699 43.9060397,54.7618477 43.9060397,55.0272465 C43.9079897,55.1492912 43.8533892,56.2651287 43.8260889,56.5382764 C43.8260889,56.5382764 43.8260889,57.3984011 43.1455325,56.7707425 L41.9326211,55.7052727 C41.9150709,55.689775 41.6966689,55.4844299 41.3203153,55.6026002 C40.8542609,55.7498287 39.6530496,55.9939182 39.9007019,55.9396761 C39.69205,55.9822949 39.1772451,56.1043396 39.4716979,55.4418111 C39.4716979,55.4418111 39.8344013,54.5565026 39.9787027,54.1748707 C40.0762036,53.9152835 40.1425042,53.7409339 39.8753517,53.3244321 L39.0933943,51.9916262 C39.0933943,51.9916262 38.7111907,51.3949631 39.4931481,51.4608286 L41.1350636,51.6177432 C41.281315,51.6235548 41.4646167,51.642927 41.7512694,51.3368466 L42.8120794,50.1783904 C42.9212804,50.050534 43.2800838,49.7405792 43.3892848,50.4496009 C43.3892848,50.4496009 43.5706365,51.6274293 43.5998868,51.8056533 C43.6076869,51.8443977 43.617437,52.3093299 44.1224917,52.4623701 L44.6743469,52.6405942 C44.783548,53.0764682 44.888849,53.5259027 45,53.9792117 C44.6470467,54.1768079 44.3759941,54.3414714 44.260943,54.4073368" id="Fill-8053" fill="#E3672A"></path>
                <path d="M58.9447792,210.202758 C58.4914636,210.137613 57.3818259,210.011154 58.450074,208.926678 C58.450074,208.926678 59.8277591,207.462826 60.3855344,206.817122 C60.77578,206.378349 61.0359437,206.094776 60.8132278,205.092689 L60.2436269,201.933145 C60.2436269,201.933145 59.9125094,200.49995 61.4301312,201.185891 L64.5816599,202.657407 C64.863504,202.776201 65.2182727,202.94098 66.0204442,202.54436 C66.1387004,202.483047 66.5348588,202.285696 67,202.050023 C66.5880741,206.700243 65.3601802,209.877032 63.5961913,212 C63.3498241,211.559312 63.1625851,211.216341 63.1527304,211.197181 C63.1310501,211.147364 62.851177,210.595545 62.0154996,210.557225 C60.9768156,210.513156 58.3988296,210.128032 58.9447792,210.202758" id="Fill-8055" fill="#E3672A"></path>
                <path d="M41.9700072,135.196092 C42.1395032,135.046136 42.6765808,134.688115 42.7317181,135.602849 C42.7317181,135.602849 42.8379083,137.134279 42.8583295,137.364837 C42.8624138,137.415447 42.815445,138.011524 43.4954711,138.258952 L45.4416118,139.034977 C45.4416118,139.034977 46.6178731,139.488595 45.5559705,139.889729 C44.5206155,140.28149 43.7078516,140.652632 43.4444181,140.768848 C43.1687318,140.894437 42.9073404,141.183103 42.8726244,141.516756 C42.8603717,141.676085 42.6418648,143.096922 42.5744748,143.438073 C42.5744748,143.438073 42.4662424,144.540253 41.6003834,143.657384 C41.6003834,143.657384 41.4656034,143.526172 41.2838547,143.351848 C41.2144226,140.84945 41.1204851,138.40516 41,136.01148 C41.4125083,135.66658 41.8760696,135.274819 41.9700072,135.196092" id="Fill-8057" fill="#E3672A"></path>
                <path d="M54.2209501,157.110141 C54.2209501,157.110141 54.9189702,156.330731 55.2013601,155.988235 C55.3982376,155.753117 55.5294892,155.603159 55.384317,155.094043 L54.9985167,153.490792 C54.9985167,153.490792 54.7817526,152.76322 55.6090357,153.079797 L57.3332051,153.755532 C57.4883207,153.811072 57.6792322,153.888828 58.0988397,153.666668 C58.2141821,153.603723 58.7948712,153.288997 59.2144788,153.061284 C59.371583,154.123947 59.5306759,155.164394 59.6937461,156.154855 C59.7931792,156.612133 59.8965896,157.071263 60,157.528542 L59.765338,157.584081 C59.5187439,157.63777 59.2562406,157.830308 59.1687395,158.0969 C59.1269777,158.220939 58.6854948,159.339142 58.5641865,159.603882 C58.5641865,159.603882 58.2698646,160.481412 57.744858,159.624247 L56.7942779,158.163548 C56.7843346,158.137629 56.617287,157.863632 56.1678495,157.861781 C55.6150017,157.867335 54.2229387,157.730336 54.5172606,157.754404 C54.2766326,157.732188 53.6780455,157.69331 54.2209501,157.110141" id="Fill-8059" fill="#E3672A"></path>
                <path d="M55.5494136,131.463115 C55.5269713,131.434426 55.2535837,131.122951 54.7170095,131.235656 C54.0559828,131.387295 52.3605716,131.57582 52.7155675,131.530738 C52.4197376,131.567623 51.6954645,131.672131 52.1830737,130.780738 C52.1830737,130.780738 52.7971757,129.588115 53.0399602,129.07377 C53.2092973,128.721311 53.3215087,128.493852 53.0073169,127.875 L52.0973851,125.911885 C52.0973851,125.911885 51.6383387,125.032787 52.7135273,125.221311 L54.9659147,125.647541 C55.1638146,125.672131 55.4168002,125.723361 55.851364,125.329918 L56.2104403,125 C56.4797475,127.735656 56.742934,130.407787 57,133 C56.6796877,132.663934 55.5718558,131.487705 55.5494136,131.463115" id="Fill-8061" fill="#E3672A"></path>
                <path d="M47.138598,110.749442 C47.138598,110.749442 46.6058482,109.999976 47.6293389,110.047053 L49.7660669,110.175102 C49.9570166,110.178868 50.1957038,110.193933 50.5508704,109.783421 C50.7017207,109.612061 51.742397,108.397474 51.8760618,108.244944 C52.0116361,108.075467 52.4641871,107.657423 52.6360419,108.563185 C52.6360419,108.563185 52.9262855,110.077182 52.9759325,110.303152 C52.9873894,110.352112 53.0198509,110.954698 53.6824466,111.122292 L54.8415117,111.453714 C54.8968871,111.839746 54.9675385,112.785053 55,112.960179 C54.4729786,113.276537 54.1159026,113.525103 53.9574143,113.628673 C53.7168176,113.786852 53.5105918,114.099443 53.5258678,114.440281 C53.5315963,114.600343 53.5125013,116.042783 53.4914968,116.391153 C53.4914968,116.391153 53.5354153,117.50217 52.6169469,116.722575 L50.9919644,115.410067 C50.9690504,115.385587 50.6788067,115.135138 50.1937943,115.300849 C49.5961216,115.513637 48.0436999,115.880838 48.370224,115.801748 C48.0990754,115.865773 47.4383892,116.046549 47.7859178,115.182215 C47.7859178,115.182215 48.2174642,114.022237 48.3797715,113.521337 C48.4981604,113.182383 48.5783593,112.960179 48.2136452,112.434799 L47.138598,110.749442 Z" id="Fill-8063" fill="#E3672A"></path>
                <path d="M62.1503774,197.87 C62.1503774,197.87 62.6096219,197.348401 62.7969937,197.117216 C62.9255822,196.960545 63.0155941,196.857372 62.938441,196.501997 L62.7473953,195.374732 C62.7473953,195.374732 62.6371766,194.864596 63.1441826,195.105334 L64.1949342,195.634576 C64.2886201,195.674699 64.4080237,195.733928 64.6707116,195.594453 L65.6590059,195.057569 C65.7655506,194.99834 66.0796739,194.872239 65.9768031,195.391927 L65.7857574,196.391181 C65.7802464,196.41984 65.6700277,196.746556 65.9694552,196.97583 L66.8163022,197.673206 L67,197.891016 L67,198.062972 L66.748334,198.169967 C66.1843816,198.246392 65.730648,198.340012 65.5836898,198.366761 C65.4312206,198.39733 65.2622186,198.523431 65.1979243,198.706851 C65.1685327,198.794739 64.8562464,199.553255 64.7735823,199.734764 C64.7735823,199.734764 64.5623298,200.336608 64.2592284,199.727121 L63.7191568,198.678191 C63.7118089,198.664817 63.616286,198.464202 63.3370653,198.448917 C62.9917134,198.437453 62.1301706,198.297978 62.3138684,198.324727 C62.1632362,198.301799 61.7940036,198.257855 62.1503774,197.87" id="Fill-8065" fill="#E3672A"></path>
                <path d="M41.6520864,187.039513 C40.7176841,199.234872 39.2535888,207 49.7006431,207 C57.9376673,207 60.4135359,196.715606 58.2650057,184.737358 C55.8784113,171.458402 53.2557364,164.072729 48.7602892,164.000359 C44.7508899,163.933856 42.7174241,173.122917 41.6520864,187.039513" id="Fill-8067" fill="#FBD372"></path>
                <path d="M73.143911,221.302406 C73.7507516,219.445587 77.1505906,219.661805 78.2666414,221.395342 C79.2123173,222.865245 80.1733078,226.723029 84.4116206,229.055908 C86.2685147,230.081995 88.8126509,231.123256 92,228.739168 C91.7683668,229.970093 88.7552212,232.782824 84.4116206,231.792773 C80.0699343,230.806515 77.2329065,229.152637 75.5961597,227.551865 C73.9536699,225.94161 72.535156,223.155432 73.143911,221.302406" id="Fill-8069" fill="#672D1A"></path>
                <path d="M63,171.522694 C62.6339917,171.613511 62.3453357,171.686165 62.3264693,171.69222 C62.1264853,171.748728 61.8717889,171.813309 61.6246389,172.396558 C61.524647,172.640755 60.8114968,174.366282 60.7247113,174.584243 C60.6341525,174.822386 60.2907839,175.44398 59.8266703,174.471226 C59.8266703,174.471226 59.0418278,172.852662 58.924856,172.610483 C58.8984431,172.553974 58.6701596,171.881927 57.9249365,171.908163 L55.7590729,171.924308 C55.7590729,171.924308 54.4516309,171.942471 55.2685463,171.036317 C56.0628221,170.1564 56.6552273,169.397571 56.8495513,169.153374 C57.0533085,168.897068 57.1702802,168.471236 57.0495352,168.085767 C56.992936,167.906151 56.5608952,166.26135 56.4722231,165.861754 C56.4722231,165.861754 56.0760286,164.610495 57.2872519,165.195762 L59.4002895,166.144297 C59.4285891,166.164479 59.8134638,166.356204 60.2700309,166.003026 C60.6171728,165.728556 61.3397562,165.262361 61.7567038,165 L63,171.522694 Z" id="Fill-8071" fill="#E3672A"></path>
                <path d="M42.506746,182.241669 C41.4804828,182.449724 40.6659611,182.683056 40.4012843,182.756945 L40,183 C40.2288174,180.682228 40.4303134,178.337234 40.6061954,176.000018 C40.7889078,175.998074 40.9494215,176.151684 40.8623343,176.770016 C40.8623343,176.770016 40.6318093,178.514178 40.6010726,178.780566 C40.5925347,178.8389 40.4217754,179.500009 40.985281,179.937508 L42.5904181,181.246116 C42.5904181,181.246116 43.5654535,182.025836 42.506746,182.241669" id="Fill-8073" fill="#E3672A"></path>
                <path d="M58.2797219,184.289322 C58.2797219,184.289322 59.1608514,183.281855 59.5172633,182.84097 C59.7647716,182.540794 59.9350573,182.345679 59.748931,181.692795 L59.2578746,179.630957 C59.2578746,179.630957 58.9866056,178.696657 60.0360406,179.101896 L62.2121334,179.97616 C62.4061799,180.045576 62.649728,180.143133 63.1764256,179.857965 C63.3348309,179.771665 64.1783391,179.304515 64.7109769,179.009966 C65.1782725,180.994884 65.6138871,182.902882 66,184.728331 C65.6653688,184.801499 65.4139004,184.86341 65.283216,184.891552 C64.9743257,184.96472 64.6416746,185.210489 64.5268308,185.55194 C64.475349,185.717037 63.9169704,187.148505 63.7664853,187.491832 C63.7664853,187.491832 63.3922528,188.617494 62.7309107,187.518097 L61.5309906,185.636365 C61.5151501,185.606347 61.3072431,185.251764 60.7409442,185.251764 C60.0400008,185.257392 58.2836821,185.081038 58.6539544,185.111056 C58.3450641,185.082914 57.594619,185.034136 58.2797219,184.289322" id="Fill-8075" fill="#E3672A"></path>
                <path d="M37.2632999,207.453716 C37.4370445,208.686076 37.6107892,208.789602 38.0603757,212.21393 C38.2627792,212.428946 38.4042826,212.576272 38.4042826,212.576272 C39.4073443,213.703115 39.4610797,212.225875 39.4610797,212.225875 C39.5148152,211.767971 39.670648,209.8607 39.6813951,209.649666 C39.6957245,209.197734 39.9679841,208.803538 40.2635291,208.618386 C40.5465358,208.44916 41.4152588,207.91162 42.531165,207.32829 C43.6793123,206.729033 42.3574203,206.191493 42.3574203,206.191493 L40.1721788,205.277675 C39.4109266,204.987005 39.4252561,204.186668 39.4198825,204.120969 C39.3894325,203.814372 39.1798642,201.787648 39.1798642,201.787648 C39.059855,200.567233 38.4956329,201.07491 38.3200971,201.285944 C38.2000879,201.417342 37.5212301,202.181843 37.0519405,202.707438 C36.928349,204.465392 37.0358199,206.00634 37.2632999,207.453716" id="Fill-8077" fill="#E3672A"></path>
                <path d="M52.2921632,215.968345 C54.3013973,216.052843 56.1795944,215.968345 57,215.712839 L54.1646631,214.445369 C53.1752387,214.038973 53.2303122,213.035057 53.224615,212.950559 C53.1980278,212.566294 53.0214127,210.011235 53.0214127,210.011235 C52.920761,208.474176 52.1497317,209.077733 51.9085477,209.335251 C51.6787581,209.566614 49.8499373,211.369239 49.5897624,211.628768 C48.9630637,212.236349 48.5946408,212.163922 48.3059796,212.125697 L45.0357517,211.510069 C43.4690049,211.232432 44.1450799,212.572329 44.1450799,212.572329 L45.1155133,214.727029 C45.9966897,215.368811 49.3086975,215.843609 52.2921632,215.968345" id="Fill-8079" fill="#E3672A"></path>
                <path d="M32.3320643,191.082083 C31.8066983,191.587465 31.3924313,192.086993 31.1551692,192.555301 C30.2362495,194.36414 33.6388887,202.785875 35.060578,202.996614 C35.8439194,203.115642 37.3484622,200.079447 38.450036,196.602261 C38.6967132,197.86279 39.5346626,200.596536 41.9242305,198.005233 C42.2857726,197.611074 41.2651692,194.155353 40.7247389,192.527983 C40.7906451,192.286024 39.090267,188.356141 38.858654,187 C37.4520289,187.241959 34.6387788,188.863475 32.3320643,191.082083" id="Fill-8081" fill="#672D1A"></path>
                <path d="M104.000335,120.343272 C104.000335,120.343272 107.074395,109.807488 115.601452,106.71248 C115.601452,106.71248 121.086649,104.330813 119.806265,108.276416 C118.527774,112.220086 113.652464,117.039482 113.652464,117.039482 C113.652464,117.039482 114.932849,118.541556 113.773684,119.606734 C112.616414,120.669978 106.775133,122 106.042132,122 C105.312919,122 103.975713,120.608117 104.000335,120.343272" id="Fill-8083" fill="#672D1A"></path>
            </g>
        </g>
    </g>
</svg>