<?xml version="1.0" encoding="UTF-8"?>
<svg width="80px" height="79px" viewBox="0 0 80 79" version="1.1" xmlns="http://www.w3.org/2000/svg" xmlns:xlink="http://www.w3.org/1999/xlink">
    <!-- Generator: Sketch 45.2 (43514) - http://www.bohemiancoding.com/sketch -->
    <title>ico-changed-mind</title>
    <desc>Created with Sketch.</desc>
    <defs></defs>
    <g id="Page-1" stroke="none" stroke-width="1" fill="none" fill-rule="evenodd">
        <g id="Returns" transform="translate(-419.000000, -745.000000)" fill-rule="nonzero" fill="#059DDB">
            <g id="Group-2" transform="translate(179.000000, 528.000000)">
                <g id="ico-changed-mind" transform="translate(240.000000, 217.000000)">
                    <path d="M58.220461,4.59983826 C54.0110451,4.59983826 49.9137116,5.73683532 46.3035748,7.89787045 C42.5153716,2.9332302 36.6916082,0 30.519847,0 C19.4706952,0 10.4824127,9.20615778 10.4824127,20.5233524 C10.4824127,21.6084995 10.5682823,22.7010536 10.7382136,23.7815712 C4.36488497,25.884275 0,31.9636909 0,38.9291867 C0,46.8261313 5.82737905,53.6120038 13.3974581,54.7017803 C16.7093112,63.9996015 25.3044015,70.1947541 35.0112766,70.1947541 C45.2785635,70.1947541 54.2216515,63.2894413 57.0842712,53.2833117 C57.4666167,53.3046072 57.8426349,53.3157179 58.2195571,53.3157179 C71.3322898,53.3157179 82,42.3892503 82,28.9591669 C82,15.5272318 71.3331937,4.59983826 58.220461,4.59983826 Z M12.5523209,66.3411858 C9.14465547,66.3411858 6.37332863,69.1809008 6.37332863,72.6724447 C6.37332863,76.1621368 9.14465547,79 12.5523209,79 C15.9590824,79 18.7295054,76.1621368 18.7295054,72.6724447 C18.7295054,69.1818267 15.9590824,66.3411858 12.5523209,66.3411858 Z" id="Shape"></path>
                </g>
            </g>
        </g>
    </g>
</svg>