<?xml version="1.0" encoding="UTF-8"?>
<svg width="63px" height="62px" viewBox="0 0 63 62" version="1.1" xmlns="http://www.w3.org/2000/svg" xmlns:xlink="http://www.w3.org/1999/xlink">
    <!-- Generator: Sketch 46 (44423) - http://www.bohemiancoding.com/sketch -->
    <title>ICN: Drivers ID</title>
    <desc>Created with Sketch.</desc>
    <defs></defs>
    <g id="Scenario-3---Recalled-Item" stroke="none" stroke-width="1" fill="none" fill-rule="evenodd">
        <g id="All-Scenarios---Recalled-Item-Step-2-Option-1" transform="translate(-143.000000, -669.000000)" fill-rule="nonzero" fill="#009DDB">
            <g id="What-you'll-Need" transform="translate(113.000000, 557.000000)">
                <g id="ICN:-Drivers-ID" transform="translate(29.000000, 111.000000)">
                    <rect id="Rectangle-path" x="3" y="9.6" width="57.6" height="2.8"></rect>
                    <path d="M45.4,59.8 C43.4,59.8 40.8,59.4 38,58 L32.2,57.6 C31.4,57.6 30.8,56.8 30.8,56.2 L30.8,45.6 C30.8,45.2 31,45 31.2,44.6 L35.4,39.2 C37.4,36.8 40.2,35.2 43.4,35.2 L47.8,35.2 C50.8,35.2 53.6,36.6 55.6,38.8 L60.2,44.2 C60.4,44.4 60.6,44.8 60.6,45.2 L60.6,56.6 C60.6,57.4 60,58.2 59,58.2 L52,58.2 C51,58.6 48.8,59.8 45.4,59.8 Z M33.8,54.6 L38.6,55 C38.8,55 39,55 39.2,55.2 C46.4,58.6 50.6,55.4 50.8,55.4 C51,55.2 51.4,55 51.8,55 L57.8,55 L57.8,45.8 L53.6,40.8 C52,39 50,38 47.8,38 L43.4,38 C41.2,38 39.2,39 37.8,40.8 L33.8,45.8 L33.8,54.6 Z" id="Shape"></path>
                    <path d="M48.6,52.2 L42.8,52.2 C42,52.2 41.2,51.6 41.2,50.6 C41.2,49.6 41.8,49 42.8,49 L48.6,49 C49.4,49 50.2,49.6 50.2,50.6 C50.2,51.6 49.4,52.2 48.6,52.2 Z" id="Shape"></path>
                    <path d="M46.4,47.8 C46.2,47.8 46.2,47.8 46,47.8 C41.4,47.8 32.4,46.8 32,46.8 C31.2,46.8 30.6,46 30.6,45.2 C30.6,44.4 31.4,43.8 32.2,43.8 C32.2,43.8 41.4,44.8 46,44.8 C50.6,44.8 58.6,43.6 58.6,43.6 C59.4,43.4 60.2,44 60.4,44.8 C60.6,45.6 60,46.4 59.2,46.6 C59,46.6 51.4,47.8 46.4,47.8 Z" id="Shape"></path>
                    <path d="M33,47.2 C32.8,47.2 32.6,47.2 32.4,47 C31.6,46.6 29.2,45.4 28.8,43.6 C28.6,42.8 28.8,42 29.4,41.2 C30,40.4 30.8,40 31.6,40.2 C33.4,40.2 34.8,42 35.2,42.4 C35.6,43 35.6,44 34.8,44.4 C34.6,44.6 34.4,44.6 34.2,44.6 C34.6,45 34.6,45.6 34.4,46.2 C34,47 33.6,47.2 33,47.2 Z" id="Shape"></path>
                    <path d="M59,47.2 C58.4,47.2 57.8,46.8 57.6,46.4 C57.4,45.8 57.4,45.2 57.8,44.8 C57.6,44.8 57.4,44.6 57.2,44.6 C56.6,44.2 56.4,43.2 56.8,42.6 C57,42.2 58.4,40.4 60.4,40.4 C61.2,40.4 62,40.8 62.6,41.4 C63.2,42 63.4,43 63.2,43.8 C62.8,45.6 60.4,47 59.6,47.2 C59.4,47.2 59.2,47.2 59,47.2 Z" id="Shape"></path>
                    <path d="M35.2,63 C32.8,63 30.8,61 30.8,58.6 L30.8,52.4 C30.8,51.6 31.4,50.8 32.4,50.8 C33.4,50.8 32,51.4 32,52.4 L34,56.8 L34,58.6 C34,59.4 34.6,60 35.4,60 C36.2,60 36.8,59.4 36.8,58.6 L36.8,56.4 C36.8,55.6 37.4,56.8 38.4,56.8 C39.4,56.8 40,55.4 40,56.4 L40,58.6 C39.4,61 37.4,63 35.2,63 Z" id="Shape"></path>
                    <path d="M56,62.4 C53.6,62.4 51.6,60.4 51.6,58 L51.6,57 C51.6,56.2 52.2,55.4 53.2,55.4 C54.2,55.4 54.8,56 54.8,57 L54.8,58 C54.8,58.8 55.4,59.4 56.2,59.4 C57,59.4 57.4,58.8 57.6,58 L57.6,55.8 C57.6,55 58.2,54.4 59.2,54.4 L59.2,54.4 C60,54.4 60.6,55.2 60.6,56 L60.6,58.4 C60.2,60.6 58.4,62.4 56,62.4 Z" id="Shape"></path>
                    <path d="M26.2,41.4 L8,41.4 C5.8,41.4 4.4,39.4 4.4,37.4 L4.4,9.2 C4.4,6.6 6,4.8 8,4.8 L55.6,4.8 C57.8,4.8 59.2,6.8 59.2,8.8 L59.2,36.4 L62,36.4 L62,9.2 C62,5.2 59.2,1.8 55.4,1.8 L8,1.8 C4.4,1.8 1.4,5 1.4,9.2 L1.4,37.4 C1.4,41.4 4.2,44.8 8,44.8 L26.2,44.8 L26.2,41.4 Z" id="Shape"></path>
                    <path d="M38.8,53.6 C38.2,53.6 37.8,53.4 37.4,52.8 C35,48.2 32.6,48.4 32.4,48.4 C31.6,48.4 30.8,47.8 30.8,47 C30.8,46.2 31.2,45.4 32,45.4 C32.2,45.4 36.6,44.8 40,51.4 C40.4,52.2 40.2,53 39.4,53.4 C39.4,53.6 39.2,53.6 38.8,53.6 Z" id="Shape"></path>
                    <path d="M52.4,53.6 C52.2,53.6 52,53.6 51.8,53.4 C51,53 50.8,52.2 51.2,51.4 C54.6,44.8 59,45.4 59.2,45.4 C60,45.6 60.6,46.2 60.4,47 C60.2,47.8 59.6,48.4 58.8,48.2 C58.6,48.2 56.2,48.2 53.8,52.6 C53.4,53.4 53,53.6 52.4,53.6 Z" id="Shape"></path>
                    <path d="M12.1684401,25.5129448 C10.9901826,24.5253669 10.2,23.0538584 10.2,21.4 C10.2,18.4 12.6,16 15.6,16 C18.6,16 21,18.4 21,21.4 C21,23.064977 20.2607604,24.5451442 19.0899854,25.5327972 C22.3814637,26.6646243 23.8,29.4323122 23.8,32.2 C23.8,33.2 23.4,33.8 22.6,33.8 L9,33.8 C8.2,33.8 7.4,33.2 7.4,32.2 C7.4,29.415991 8.83531598,26.6319819 12.1684401,25.5129448 Z M15.6,18.8 C14.2,18.8 13.2,20 13.2,21.2 C13.2,22.6 14.4,23.6 15.6,23.6 C16.8,23.6 18,22.4 18,21.2 C18,20 17,18.8 15.6,18.8 Z M10.4,31 L20.8,31 C20.4,29.6 19,28 15.6,28 C12.2,28 10.8,29.6 10.4,31 Z M54.6,32.6 L27.4,32.6 C26.8,32.6 26.2,32 26.2,31.4 C26.2,30.8 26.8,30.2 27.4,30.2 L54.6,30.2 C55.2,30.2 55.8,30.8 55.8,31.4 C55.8,32.2 55.4,32.6 54.6,32.6 Z M54.6,29 L27.4,29 C26.8,29 26.2,28.4 26.2,27.8 C26.2,27.2 26.8,26.6 27.4,26.6 L54.6,26.6 C55.2,26.6 55.8,27.2 55.8,27.8 C55.8,28.4 55.4,29 54.6,29 Z M54.6,25.6 L27.4,25.6 C26.8,25.6 26.2,25 26.2,24.4 C26.2,23.8 26.8,23.2 27.4,23.2 L54.6,23.2 C55.2,23.2 55.8,23.8 55.8,24.4 C55.8,25 55.4,25.6 54.6,25.6 Z M41,22 L27.4,22 C26.8,22 26.2,21.4 26.2,20.8 C26.2,20.2 26.8,19.6 27.4,19.6 L41,19.6 C41.6,19.6 42.2,20.2 42.2,20.8 C42.2,21.4 41.8,22 41,22 Z" id="Combined-Shape"></path>
                </g>
            </g>
        </g>
    </g>
</svg>