<?xml version="1.0" encoding="UTF-8"?>
<svg width="109px" height="55px" viewBox="0 0 109 55" version="1.1" xmlns="http://www.w3.org/2000/svg" xmlns:xlink="http://www.w3.org/1999/xlink">
    <!-- Generator: Sketch 45.2 (43514) - http://www.bohemiancoding.com/sketch -->
    <title>ICN: Ship to home</title>
    <desc>Created with Sketch.</desc>
    <defs></defs>
    <g id="Page-1" stroke="none" stroke-width="1" fill="none" fill-rule="evenodd">
        <g id="Returns" transform="translate(-734.000000, -1627.000000)" fill-rule="nonzero" fill="#059DDB">
            <g id="Group-2" transform="translate(523.000000, 1386.000000)">
                <path d="M320.993829,267.1852 C320.982858,266.7862 320.864918,266.3935 320.645496,266.0589 L308.822748,247.9499 C308.433273,247.3584 307.777064,247 307.076284,247 L298.600411,247 L291.099597,247 L291.096854,247 C289.940087,247 289,247.9597 289,249.1434 L289,284.0601 C289,285.2403 289.940087,286.2 291.099597,286.2 L295.399589,286.2 L295.40096,286.2 C295.40096,291.6124 299.698894,296 305.000686,296 C310.301791,296 314.59904,291.6124 314.600411,286.2 L318.900403,286.2 C320.057855,286.2 321,285.2403 321,284.0573 L321,267.2468 C320.999314,267.2265 320.9952,267.2055 320.993829,267.1852 Z M298,267 L298,254 L306.277109,254 L315,267 L298,267 Z M305,291 C302.244286,291 300,288.756429 300,286 C300,283.243571 302.244286,281 305,281 C307.756429,281 310,283.243571 310,286 C310,288.756429 307.756429,291 305,291 Z M282.18703,241 L245.813662,241 C244.259363,241 243,242.261093 243,243.817526 L243,283.476428 C243,285.032169 244.259363,286.293955 245.81297,286.293955 L252.691349,286.293955 C252.691349,291.654465 257.030924,296 262.384083,296 C267.737241,296 272.076816,291.654465 272.076816,286.293955 L282.18703,286.293955 C283.740637,286.293955 285,285.032169 285,283.476428 L285,243.816833 C285.000692,242.261093 283.742021,241 282.18703,241 Z M263,291 C260.244286,291 258,288.756429 258,286 C258,283.243571 260.244286,281 263,281 C265.756429,281 268,283.243571 268,286 C268,288.756429 265.756429,291 263,291 Z M212,255 L237,255 C237.552285,255 238,255.447715 238,256 L238,260 C238,260.552285 237.552285,261 237,261 L212,261 C211.447715,261 211,260.552285 211,260 L211,256 C211,255.447715 211.447715,255 212,255 L212,255 Z M220,266 L237,266 C237.552285,266 238,266.447715 238,267 L238,271 C238,271.552285 237.552285,272 237,272 L220,272 C219.447715,272 219,271.552285 219,271 L219,267 C219,266.447715 219.447715,266 220,266 Z M228,277 L237,277 C237.552285,277 238,277.447715 238,278 L238,282 C238,282.552285 237.552285,283 237,283 L228,283 C227.447715,283 227,282.552285 227,282 L227,278 C227,277.447715 227.447715,277 228,277 Z" id="ICN:-Ship-to-home"></path>
            </g>
        </g>
    </g>
</svg>