<?xml version="1.0" encoding="UTF-8"?>
<svg width="82px" height="85px" viewBox="0 0 82 85" version="1.1" xmlns="http://www.w3.org/2000/svg" xmlns:xlink="http://www.w3.org/1999/xlink">
    <!-- Generator: Sketch 45.2 (43514) - http://www.bohemiancoding.com/sketch -->
    <title>ico-recall</title>
    <desc>Created with Sketch.</desc>
    <defs></defs>
    <g id="Page-1" stroke="none" stroke-width="1" fill="none" fill-rule="evenodd">
        <g id="Returns" transform="translate(-1105.000000, -740.000000)" fill="#FF000D">
            <g id="Group-2" transform="translate(867.000000, 528.000000)">
                <g id="ico-recall" transform="translate(238.000000, 212.000000)">
                    <path d="M80.2,21.8 L45.6,1.8 C43.4,0.5 40.6,0.5 38.4,1.8 L3.8,21.8 C1.6,23.1 0.2,25.5 0.2,28 L0.2,68 C0.2,70.6 1.6,73 3.8,74.2 L38.4,94.2 C39.5,94.8 40.7,95.2 42,95.2 C43.3,95.2 44.5,94.9 45.6,94.2 L80.2,74.2 C82.4,72.9 83.8,70.5 83.8,68 L83.8,28 C83.8,25.5 82.4,23.1 80.2,21.8 Z M62.7,47.1 L53.1,65 C53.1,65.1 49.3,72.5 41.9,72.5 C41.2,72.5 38.9,72.4 38.3,72.3 C29.7,70.7 27.5,62.9 27.5,62.8 L21.2,43.2 C21.1,42.9 20.6,41.8 20.9,40.7 C21.1,40.1 21.6,39.6 22.4,39.2 C23.2,38.8 24,38.7 24.6,39.1 C25.6,39.5 25.9,40.5 25.9,40.5 C27.4,44.5 29.1,48 29.8,48.1 C29.9,48.1 30,47.9 30.1,47.8 C30.4,47.2 30.1,46.1 30,45.8 L27,33.4 C27,33.2 25.8,29.4 28.2,28.4 C28.9,28.2 29.6,28.2 30.2,28.4 C31.2,29 31.6,30.1 31.6,30.1 L35.5,43.2 C35.7,43.8 36,45.2 36.6,45.1 C36.7,45.1 36.8,45 36.9,44.9 C37.1,44.6 37.1,43.5 37.1,43.5 L35.9,28.1 C35.7,26.8 35.8,24.3 38.3,23.8 C39.3,23.6 40.1,23.7 40.7,24.1 C41.7,24.8 41.9,26 41.9,26.1 C41.9,26.1 43.1,39.8 43.4,42.4 C43.5,43.9 43.7,44.4 43.9,44.4 C44.7,44.4 44.9,42.9 44.9,42.9 L46.5,30.5 C46.5,30.2 46.6,28.5 47.6,27.6 C48.2,27.2 48.8,27 49.5,27.1 C50.4,27.2 51.1,27.5 51.5,28.1 C52.1,28.9 52,30 51.9,30.1 L50.2,47.5 C50.2,48.2 50.4,50.3 51.4,50.5 C52.7,50.7 53.4,49.6 53.4,49.6 L57.5,43.6 C58.2,42.8 60,41.5 61.7,42.8 C63.5,43.9 63.1,46.1 62.7,47.1 Z" id="Shape"></path>
                </g>
            </g>
        </g>
    </g>
</svg>