<?xml version="1.0" encoding="UTF-8"?>
<svg width="63px" height="50px" viewBox="0 0 63 50" version="1.1" xmlns="http://www.w3.org/2000/svg" xmlns:xlink="http://www.w3.org/1999/xlink">
    <!-- Generator: Sketch 46 (44423) - http://www.bohemiancoding.com/sketch -->
    <title>ICN: State ID</title>
    <desc>Created with Sketch.</desc>
    <defs></defs>
    <g id="Scenario-3---Recalled-Item" stroke="none" stroke-width="1" fill="none" fill-rule="evenodd">
        <g id="All-Scenarios---Recalled-Item-Step-2-Option-1" transform="translate(-529.000000, -675.000000)" fill="#009DDB">
            <g id="What-you'll-Need" transform="translate(113.000000, 557.000000)">
                <g id="ICN:-State-ID" transform="translate(415.000000, 118.000000)">
                    <path d="M23.6711752,22.1663738 C22.9023593,21.4573353 22.4,20.4565765 22.4,19.4 L24.8,19.4 C24.8,20.2 25.4,20.8 26.2,20.8 C27,20.8 27.6,20.2 27.6,19.4 L27.6,18 L30,18 L30,19.4 C30,20.4265569 29.5257814,21.4004229 28.7937053,22.1052368 C30.2454822,22.9716623 31.2,24.5556696 31.2,26.4 C31.2,27 30.6,27.6 30,27.6 L22.4,27.6 C21.8,27.6 21.2,27 21.2,26.4 C21.2,24.6968345 22.2298601,23.0794907 23.6711752,22.1663738 Z M24,25.2 L28.4,25.2 C28,24.4 27,23.8 26.2,23.8 C25.4,23.8 24.4,24.4 24,25.2 Z M49,19.6 L34.8,19.6 C34.2,19.6 33.6,19 33.6,18.4 C33.6,17.8 34.2,17.2 34.8,17.2 L49,17.2 C49.6,17.2 50.2,17.8 50.2,18.4 C50.2,19 49.6,19.6 49,19.6 Z M56.2,23.4 L34.8,23.4 C34.2,23.4 33.6,22.8 33.6,22.2 C33.6,21.6 34.2,21 34.8,21 L56.2,21 C56.8,21 57.4,21.6 57.4,22.2 C57.4,22.8 56.8,23.4 56.2,23.4 Z M56.2,26.8 L34.8,26.8 C34.2,26.8 33.6,26.2 33.6,25.6 C33.6,25 34.2,24.4 34.8,24.4 L56.2,24.4 C56.8,24.4 57.4,25 57.4,25.6 C57.4,26.2 56.8,26.8 56.2,26.8 Z" id="Combined-Shape" fill-rule="nonzero"></path>
                    <path d="M34.8,49.6 L15.6,49.6 C7.8,49.6 1.4,43.2 1.4,35.2 L1.4,26.6 C1.2,13 10,8 18.2,8 L25.8,8 C29.2,8 32.6,9.8 32.6,13.4 L32.6,14.6 C32.6,17.8 29.8,20 25.8,20 L21.6,20 C20.6,22.6 17.8,29 13,29 C12.2,29 11.4,28.4 11.4,27.4 C11.4,26.4 12.2,26 13,26 C16.2,26 18.6,20.2 19.2,18 C19.4,17.4 20,17 20.6,17 L25.8,17 C27.2,17 29.6,16.6 29.6,14.6 L29.6,13.4 C29.6,11.8 27.4,11 25.8,11 L18.2,11 C14,11 4.2,12.6 4.2,26.6 L4.2,35.2 C4.2,41.4 9.4,46.6 15.4,46.6 L34.6,46.6 C35.4,46.6 36.2,47.2 36.2,48.2 C36.2,49.2 35.6,49.6 34.8,49.6 Z" id="Shape"></path>
                    <path d="M45,41.6 L34.8,41.6 C34,41.6 33.2,41 33.2,40 C33.2,39 34.8,41 34.8,38.8 L45,38.6 C46.2,38.6 47.4,37.8 47.4,36.4 C47.4,35.2 46.6,34 45,34 L28.4,34 C27.6,34 26.8,33.4 26.8,32.4 C26.8,31.4 27.4,30.8 28.4,30.8 L45,30.8 C48,30.8 50.4,33.2 50.4,36.2 C50.4,39.4 48,41.6 45,41.6 Z" id="Shape"></path>
                    <path d="M34.8,49.6 L31,49.6 C30.2,49.6 29.4,49 29.4,48 C29.4,47 30,46.4 31,46.4 L34.8,46.4 C36,46.4 37,45.6 37,44 C37,42.8 36.2,41.8 34.8,41.8 L28.4,41.8 C27.6,41.8 26.8,41.2 26.8,40.2 C26.8,39.2 27.4,38.6 28.4,38.6 L34.8,38.6 C37.8,38.6 40,41 40,43.8 C40,47.2 37.8,49.6 34.8,49.6 Z" id="Shape"></path>
                    <path d="M58,34 L19.4,34 C16.4,34 14,31.8 14,28.8 L14,26.8 C14,26 14.6,25.2 15.6,25.2 C16.6,25.2 17.2,25.8 17.2,26.8 L17.2,28.8 C17.2,30 18,31 19.6,31 L58,31 C59.2,31 60.4,30.2 60.4,28.8 L60.4,5.8 C60.4,4.6 59.6,3.6 58,3.6 L19.4,3.6 C18,3.6 17,4.4 17,5.8 L17,9.6 C17,10.4 16.4,11.2 15.4,11.2 C14.4,11.2 14,10.4 14,9.6 L14,5.8 C14,2.8 16.2,0.6 19.4,0.6 L58,0.6 C61,0.6 63.4,3 63.4,5.8 L63.4,28.8 C63.4,31.8 61,34 58,34 Z" id="Shape"></path>
                    <rect id="Rectangle-path" x="28.4" y="8.6" width="32" height="2.4"></rect>
                </g>
            </g>
        </g>
    </g>
</svg>