<svg width="82" height="85" viewBox="0 0 82 85" xmlns="http://www.w3.org/2000/svg"><title>ico-recall</title><path d="M80.2 21.8l-34.6-20c-2.2-1.3-5-1.3-7.2 0l-34.6 20C1.6 23.1.2 25.5.2 28v40c0 2.6 1.4 5 3.6 6.2l34.6 20c1.1.6 2.3 1 3.6 1 1.3 0 2.5-.3 3.6-1l34.6-20c2.2-1.3 3.6-3.7 3.6-6.2V28c0-2.5-1.4-4.9-3.6-6.2zM62.7 47.1L53.1 65c0 .1-3.8 7.5-11.2 7.5-.7 0-3-.1-3.6-.2-8.6-1.6-10.8-9.4-10.8-9.5l-6.3-19.6c-.1-.3-.6-1.4-.3-2.5.2-.6.7-1.1 1.5-1.5.8-.4 1.6-.5 2.2-.1 1 .4 1.3 1.4 1.3 1.4 1.5 4 3.2 7.5 3.9 7.6.1 0 .2-.2.3-.3.3-.6 0-1.7-.1-2l-3-12.4c0-.2-1.2-4 1.2-5 .7-.2 1.4-.2 2 0 1 .6 1.4 1.7 1.4 1.7l3.9 13.1c.2.6.5 2 1.1 1.9.1 0 .2-.1.3-.2.2-.3.2-1.4.2-1.4l-1.2-15.4c-.2-1.3-.1-3.8 2.4-4.3 1-.2 1.8-.1 2.4.3 1 .7 1.2 1.9 1.2 2 0 0 1.2 13.7 1.5 16.3.1 1.5.3 2 .5 2 .8 0 1-1.5 1-1.5l1.6-12.4c0-.3.1-2 1.1-2.9.6-.4 1.2-.6 1.9-.5.9.1 1.6.4 2 1 .6.8.5 1.9.4 2l-1.7 17.4c0 .7.2 2.8 1.2 3 1.3.2 2-.9 2-.9l4.1-6c.7-.8 2.5-2.1 4.2-.8 1.8 1.1 1.4 3.3 1 4.3z" fill="#FF000D" fill-rule="evenodd"/></svg>