<svg width="33" height="43" viewBox="0 0 33 43" xmlns="http://www.w3.org/2000/svg"><title>ICN</title><g fill="none"><path fill="#FFF" d="M17.487 40.987l1.755-1.603 1.62 1.603 1.755-1.603 1.62 1.603 1.754-1.603 1.62 1.603 1.755-1.603 1.62 1.603V21.884l-1.62 1.603-1.755-1.603-1.62 1.603-1.755-1.603-1.62 1.603-1.754-1.603-1.62 1.603-1.755-1.603z"/><path d="M30.986 42.055c-.27 0-.54-.133-.675-.267l-.945-.935-.945.935a1.067 1.067 0 0 1-1.485 0l-.945-.935-.945.802c-.405.4-1.08.4-1.485 0l-.944-.935-.945.935c-.405.4-1.08.4-1.485 0l-.945-.935-.945.935c-.27.267-.675.4-1.08.267a1.005 1.005 0 0 1-.675-.935V21.884c0-.4.27-.802.675-.935.405-.134.81-.134 1.08.267l.945.935.945-.935c.405-.4 1.08-.4 1.485 0l.945.935.944-.935c.405-.4 1.08-.4 1.485 0l.945.935.945-.935c.405-.4 1.08-.4 1.485 0l.945.935.945-.935c.27-.267.675-.4 1.08-.267s.675.534.675.935v19.103c0 .4-.27.801-.675.935-.135 0-.27.133-.405.133zm-8.37-3.74c.27 0 .54.134.675.267l.945.935.945-.935c.405-.4 1.08-.4 1.485 0l.945.935.945-.935c.405-.4.945-.4 1.35 0V24.288c-.405.401-.945.401-1.35 0l-.945-.935-.945.935a1.067 1.067 0 0 1-1.485 0l-.945-.935-.945.935a1.066 1.066 0 0 1-1.484 0l-.945-.935-.945.935c-.405.401-.945.401-1.35 0v14.294c.405-.4.945-.267 1.35 0l.945.935.945-.935c.27-.133.54-.267.81-.267z" fill="#009DDB"/><path d="M20.052 26.827h4.994" fill="#FFF"/><path d="M25.046 27.494h-4.994c-.405 0-.675-.267-.675-.667 0-.401.27-.668.675-.668h4.994c.405 0 .675.267.675.668 0 .4-.27.667-.675.667z" fill="#009DDB"/><path d="M20.052 29.365h3.374" fill="#FFF"/><path d="M23.426 30.033h-3.374c-.405 0-.675-.268-.675-.668 0-.401.27-.668.675-.668h3.374c.405 0 .675.267.675.668 0 .4-.27.668-.675.668z" fill="#009DDB"/><path d="M20.052 31.77h4.184" fill="#FFF"/><path d="M24.236 32.437h-4.184c-.405 0-.675-.267-.675-.668 0-.4.27-.668.675-.668h4.184c.405 0 .675.268.675.668 0 .401-.27.668-.675.668z" fill="#009DDB"/><path d="M20.052 34.307h2.565" fill="#FFF"/><path d="M22.617 34.975h-2.565c-.405 0-.675-.267-.675-.668 0-.4.27-.668.675-.668h2.565c.404 0 .674.268.674.668 0 .401-.27.668-.674.668z" fill="#009DDB"/><path d="M27.611 26.827h.81" fill="#FFF"/><path d="M28.421 27.494h-.81c-.405 0-.675-.267-.675-.667 0-.401.27-.668.675-.668h.81c.405 0 .675.267.675.668 0 .4-.27.667-.675.667z" fill="#009DDB"/><path d="M27.611 29.365h.81" fill="#FFF"/><path d="M28.421 30.033h-.81c-.405 0-.675-.268-.675-.668 0-.401.27-.668.675-.668h.81c.405 0 .675.267.675.668 0 .4-.27.668-.675.668z" fill="#009DDB"/><path d="M27.611 31.77h.81" fill="#FFF"/><path d="M28.421 32.437h-.81c-.405 0-.675-.267-.675-.668 0-.4.27-.668.675-.668h.81c.405 0 .675.268.675.668 0 .401-.27.668-.675.668z" fill="#009DDB"/><path d="M27.611 34.307h.81" fill="#FFF"/><path d="M28.421 34.975h-.81c-.405 0-.675-.267-.675-.668 0-.4.27-.668.675-.668h.81c.405 0 .675.268.675.668 0 .401-.27.668-.675.668z" fill="#009DDB"/><g fill="#009DDB"><path d="M12.776 30.295H1.49c-.55 0-1.101-.404-1.101-1.078V9.021c0-.539.55-.942 1.1-.942h26.426c.551 0 1.102.403 1.102.942v9.29c0 .539-.413 1.077-1.102 1.077-.688 0-1.1-.403-1.1-1.077v-8.213H2.59v18.177h10.322c.55 0 1.101.404 1.101 1.077 0 .673-.688.943-1.238.943z"/><path d="M27.915 10.098H1.49c-.413 0-.826-.27-.964-.673-.137-.404 0-.808.275-1.077L8.371.942c.138-.134.413-.269.689-.269h11.286c.275 0 .55.135.688.27l7.57 7.405c.413.27.413.673.275 1.077-.138.404-.55.673-.964.673zM3.967 8.078h21.471l-5.505-5.385H9.473L3.966 8.079z"/><path d="M14.703 9.883c-.551 0-1.102-.407-1.102-1.084v-6.1c0-.541.413-1.083 1.102-1.083.688 0 1.1.406 1.1 1.084v6.099c0 .542-.55 1.084-1.1 1.084z"/></g></g></svg>