<svg width="63" height="50" viewBox="0 0 63 50" xmlns="http://www.w3.org/2000/svg"><title>ICN: State ID</title><g fill="#009DDB" fill-rule="evenodd"><path d="M22.671 22.166c-.769-.709-1.271-1.71-1.271-2.766h2.4c0 .8.6 1.4 1.4 1.4.8 0 1.4-.6 1.4-1.4V18H29v1.4c0 1.027-.474 2-1.206 2.705 1.451.867 2.406 2.45 2.406 4.295 0 .6-.6 1.2-1.2 1.2h-7.6c-.6 0-1.2-.6-1.2-1.2 0-1.703 1.03-3.32 2.471-4.234zM23 25.2h4.4c-.4-.8-1.4-1.4-2.2-1.4-.8 0-1.8.6-2.2 1.4zm25-5.6H33.8c-.6 0-1.2-.6-1.2-1.2s.6-1.2 1.2-1.2H48c.6 0 1.2.6 1.2 1.2s-.6 1.2-1.2 1.2zm7.2 3.8H33.8c-.6 0-1.2-.6-1.2-1.2s.6-1.2 1.2-1.2h21.4c.6 0 1.2.6 1.2 1.2s-.6 1.2-1.2 1.2zm0 3.4H33.8c-.6 0-1.2-.6-1.2-1.2s.6-1.2 1.2-1.2h21.4c.6 0 1.2.6 1.2 1.2s-.6 1.2-1.2 1.2z" fill-rule="nonzero"/><path d="M33.8 49.6H14.6C6.8 49.6.4 43.2.4 35.2v-8.6C.2 13 9 8 17.2 8h7.6c3.4 0 6.8 1.8 6.8 5.4v1.2c0 3.2-2.8 5.4-6.8 5.4h-4.2c-1 2.6-3.8 9-8.6 9-.8 0-1.6-.6-1.6-1.6S11.2 26 12 26c3.2 0 5.6-5.8 6.2-8 .2-.6.8-1 1.4-1h5.2c1.4 0 3.8-.4 3.8-2.4v-1.2c0-1.6-2.2-2.4-3.8-2.4h-7.6c-4.2 0-14 1.6-14 15.6v8.6c0 6.2 5.2 11.4 11.2 11.4h19.2c.8 0 1.6.6 1.6 1.6s-.6 1.4-1.4 1.4z"/><path d="M44 41.6H33.8c-.8 0-1.6-.6-1.6-1.6s1.6 1 1.6-1.2l10.2-.2c1.2 0 2.4-.8 2.4-2.2 0-1.2-.8-2.4-2.4-2.4H27.4c-.8 0-1.6-.6-1.6-1.6s.6-1.6 1.6-1.6H44c3 0 5.4 2.4 5.4 5.4 0 3.2-2.4 5.4-5.4 5.4z"/><path d="M33.8 49.6H30c-.8 0-1.6-.6-1.6-1.6s.6-1.6 1.6-1.6h3.8c1.2 0 2.2-.8 2.2-2.4 0-1.2-.8-2.2-2.2-2.2h-6.4c-.8 0-1.6-.6-1.6-1.6s.6-1.6 1.6-1.6h6.4c3 0 5.2 2.4 5.2 5.2 0 3.4-2.2 5.8-5.2 5.8zM57 34H18.4c-3 0-5.4-2.2-5.4-5.2v-2c0-.8.6-1.6 1.6-1.6s1.6.6 1.6 1.6v2c0 1.2.8 2.2 2.4 2.2H57c1.2 0 2.4-.8 2.4-2.2v-23c0-1.2-.8-2.2-2.4-2.2H18.4c-1.4 0-2.4.8-2.4 2.2v3.8c0 .8-.6 1.6-1.6 1.6S13 10.4 13 9.6V5.8c0-3 2.2-5.2 5.4-5.2H57c3 0 5.4 2.4 5.4 5.2v23c0 3-2.4 5.2-5.4 5.2z"/><path d="M27.4 8.6h32V11h-32z"/></g></svg>