<?xml version="1.0" encoding="UTF-8"?>
<svg width="70px" height="77px" viewBox="0 0 70 77" version="1.1" xmlns="http://www.w3.org/2000/svg" xmlns:xlink="http://www.w3.org/1999/xlink">
    <!-- Generator: Sketch 45.2 (43514) - http://www.bohemiancoding.com/sketch -->
    <title>Shape</title>
    <desc>Created with Sketch.</desc>
    <defs></defs>
    <g id="Page-1" stroke="none" stroke-width="1" fill="none" fill-rule="evenodd">
        <g id="Returns" transform="translate(-429.000000, -1606.000000)" fill-rule="nonzero" fill="#009DDB">
            <g id="Group-2" transform="translate(179.000000, 1386.000000)">
                <path d="M251.876486,244.9908 L261.588647,223.176352 C262.448321,221.243458 264.351044,220 266.449059,220 L310.547984,220 C312.645999,220 314.548722,221.243458 315.408396,223.176352 L325.120557,244.9908 C327.88432,251.194748 323.838309,258.536233 317.115172,258.991248 L316.404737,258.991248 C312.836966,258.993351 309.522583,257.129241 307.645599,254.06484 C307.521868,253.86643 307.305954,253.746061 307.073786,253.746061 C306.841618,253.746061 306.625704,253.86643 306.501973,254.06484 C304.63902,257.109261 301.356475,258.971726 297.812982,258.994839 C294.269488,259.017951 290.9634,257.19846 289.061671,254.178594 C288.93716,253.984113 288.723498,253.86667 288.49419,253.86667 C288.264882,253.86667 288.051219,253.984113 287.926708,254.178594 C286.02646,257.199389 282.721281,259.02052 279.177795,258.999185 C275.634308,258.977851 272.350861,257.117052 270.486406,254.073591 C270.362675,253.875181 270.146761,253.754811 269.914593,253.754811 C269.682425,253.754811 269.466511,253.875181 269.34278,254.073591 C267.465796,257.137992 264.151414,259.002102 260.583642,258.999998 C260.213192,258.99869 259.843052,258.978245 259.474671,258.938746 C252.976794,258.273725 249.182033,251.037243 251.876486,244.9908 Z M327,292.749522 C327,295.096996 325.089929,297 322.733737,297 L254.266263,297 C252.742074,297 251.333665,296.189864 250.571571,294.874761 C249.809476,293.559659 249.809476,291.939385 250.571571,290.624283 C251.333665,289.30918 252.742074,288.499044 254.266263,288.499044 L257.496187,288.499044 L257.496187,263.6587 C258.182511,263.803043 258.877883,263.900782 259.577501,263.951243 L260.674294,263.951243 C264.006006,263.946924 267.254837,262.916073 269.975438,261 C275.51757,264.907465 282.921541,264.941854 288.5,261.086042 C294.078459,264.941854 301.48243,264.907465 307.024563,261 C309.745164,262.916073 312.993994,263.946924 316.325707,263.951243 L317.422499,263.951243 C318.124996,263.901011 318.823256,263.803271 319.51245,263.6587 L319.51245,288.499044 L322.733737,288.499044 C323.86522,288.499044 324.950361,288.946861 325.750441,289.74398 C326.55052,290.541099 327,291.622225 327,292.749522 L327,292.749522 Z" id="Shape"></path>
            </g>
        </g>
    </g>
</svg>