<?xml version="1.0" encoding="UTF-8"?>
<svg width="73px" height="89px" viewBox="0 0 73 89" version="1.1" xmlns="http://www.w3.org/2000/svg" xmlns:xlink="http://www.w3.org/1999/xlink">
    <!-- Generator: Sketch 45.2 (43514) - http://www.bohemiancoding.com/sketch -->
    <title>ico-broken</title>
    <desc>Created with Sketch.</desc>
    <defs>
        <path d="M48.1,0.2 L3.9,0.2 C2.3,0.2 0.9,1.5 0.9,3.2 L0.9,84.9 C0.9,86.5 2.2,87.9 3.9,87.9 L48.1,87.9 C49.7,87.9 51.1,86.6 51.1,84.9 L51.1,3.1 C51.1,1.5 49.7,0.2 48.1,0.2 Z" id="path-1"></path>
    </defs>
    <g id="Page-1" stroke="none" stroke-width="1" fill="none" fill-rule="evenodd">
        <g id="Returns" transform="translate(-770.000000, -736.000000)">
            <g id="Group-2" transform="translate(523.000000, 528.000000)">
                <g id="ico-broken" transform="translate(285.000000, 259.000000) rotate(14.000000) translate(-285.000000, -259.000000) translate(259.000000, 215.000000)">
                    <g id="Shape-path">
                        <use fill="#FF7513" fill-rule="evenodd" xlink:href="#path-1"></use>
                        <path stroke="#FF7513" stroke-width="3" d="M48.1,-1.3 C50.5322679,-1.3 52.6,0.673744304 52.6,3.1 L52.6,84.9 C52.6,87.4021524 50.5556909,89.4 48.1,89.4 L3.9,89.4 C1.39784756,89.4 -0.6,87.3556909 -0.6,84.9 L-0.6,3.2 C-0.6,0.697847561 1.44430913,-1.3 3.9,-1.3 L48.1,-1.3 Z"></path>
                    </g>
                    <path d="M45.7280633,2.9339507 C47.1049558,2.9339507 48.3097367,4.14501109 48.3097367,5.63554695 L48.3097367,81.8391929 C48.3097367,83.4228873 47.1049558,84.6339476 45.7280633,84.6339476 L7.69140929,84.6339476 C6.22846105,84.6339476 5.10973593,83.3297288 5.10973593,81.8391929 L5.10973593,5.72870544 C5.10973593,4.14501109 6.31451683,2.9339507 7.69140929,2.9339507 L45.7280633,2.9339507 Z M26.2318365,76.2367197 C24.9893586,76.2367197 23.9380312,77.3234187 23.9380312,78.6076992 C23.9380312,79.8919797 24.9893586,80.9786786 26.2318365,80.9786786 C27.4743144,80.9786786 28.5256418,79.8919797 28.5256418,78.6076992 C28.5256418,77.3234187 27.4743144,76.2367197 26.2318365,76.2367197 Z" id="Shape-path" fill="#FFFFFF"></path>
                    <path d="M49.1,84.9 C49.1,85.4 48.7,85.9 48.1,85.9 L3.9,85.9 C3.4,85.9 2.9,85.5 2.9,84.9 L2.9,71.7 L49.1,71.7 L49.1,84.9 Z M49.1,69.7 L2.9,69.7 L2.9,33 L15.9,37.8 L24.8,32.3 L24,41.2 L14.9,43.2 L12.6,50.9 L8.2,50.9 L8.2,52.9 L14.1,52.9 L16.5,44.9 L22.8,43.5 L19,48.6 L23.3,57 L31.8,53.3 L37.8,64.3 L39.6,63.4 L32.8,50.7 L24.3,54.4 L21.4,48.8 L25.9,42.8 L26,42.8 L26.9,32 L31.3,34.6 L33.5,40.4 L38.8,41.1 L39,46.7 L49.1,47.4 L49.1,69.7 Z M49.1,45.4 L40.9,44.8 L40.7,39.3 L35,38.6 L33,33.3 L29,31 L35.3,30.1 L41,32.3 L49.1,23 L49.1,45.4 Z M49.1,19.8 L40.4,29.8 L35.5,27.9 L28.5,28.9 L33.6,23.1 L29.1,16.3 L27.4,17.4 L31.1,23 L26,28.9 L22.3,25.2 L12.9,25.2 L8.2,17.7 L6.5,18.8 L11.8,27.3 L21.4,27.3 L24.4,30.3 L15.7,35.7 L2.9,31 L2.9,3.1 C2.9,2.6 3.3,2.1 3.9,2.1 L48.1,2.1 C48.6,2.1 49.1,2.5 49.1,3.1 L49.1,19.8 Z" id="Shape" fill="#FF7513" fill-rule="nonzero"></path>
                    <path d="M31.8,7.4 L15.7,7.4 C15.1,7.4 14.7,7 14.7,6.4 C14.7,5.8 15.1,5.4 15.7,5.4 L31.8,5.4 C32.4,5.4 32.8,5.8 32.8,6.4 C32.8,7 32.4,7.4 31.8,7.4 Z" id="Shape" fill="#FFFFFF" fill-rule="nonzero"></path>
                    <path d="M36.3,7.4 L34.8,7.4 C34.2,7.4 33.8,7 33.8,6.4 C33.8,5.8 34.2,5.4 34.8,5.4 L36.3,5.4 C36.9,5.4 37.3,5.8 37.3,6.4 C37.3,7 36.8,7.4 36.3,7.4 Z" id="Shape" fill="#FFFFFF" fill-rule="nonzero"></path>
                </g>
            </g>
        </g>
    </g>
</svg>