<?xml version="1.0" encoding="UTF-8"?>
<svg width="33px" height="43px" viewBox="0 0 33 43" version="1.1" xmlns="http://www.w3.org/2000/svg" xmlns:xlink="http://www.w3.org/1999/xlink">
    <!-- Generator: Sketch 46 (44423) - http://www.bohemiancoding.com/sketch -->
    <title>ICN</title>
    <desc>Created with Sketch.</desc>
    <defs></defs>
    <g id="Scenario-1---Changed-Mind,-Purchased-Online-By-Mail,-Return-By-Mail" stroke="none" stroke-width="1" fill="none" fill-rule="evenodd">
        <g id="Online---Changed-Mind-Step-4-Option-2" transform="translate(-994.000000, -205.000000)" fill-rule="nonzero">
            <g id="Locked-Right-Rail" transform="translate(961.000000, 104.000000)">
                <g id="ICN" transform="translate(33.113281, 101.000000)">
                    <g id="Group" transform="translate(15.483871, 20.645161)">
                        <g id="Shape">
                            <polygon fill="#FFFFFF" points="1.8898263 20.341556 3.64466501 18.7385199 5.26451613 20.341556 7.01935484 18.7385199 8.63920596 20.341556 10.3940447 18.7385199 12.0138958 20.341556 13.7687345 18.7385199 15.3885856 20.341556 15.3885856 1.23870968 13.7687345 2.84174573 12.0138958 1.23870968 10.3940447 2.84174573 8.63920596 1.23870968 7.01935484 2.84174573 5.26451613 1.23870968 3.64466501 2.84174573 1.8898263 1.23870968"></polygon>
                            <path d="M15.3885856,21.4102467 C15.1186104,21.4102467 14.8486352,21.2766603 14.7136476,21.143074 L13.7687345,20.2079696 L12.8238213,21.143074 C12.4188586,21.543833 11.7439206,21.543833 11.3389578,21.143074 L10.3940447,20.2079696 L9.44913151,21.0094877 C9.04416873,21.4102467 8.36923077,21.4102467 7.96426799,21.0094877 L7.01935484,20.0743833 L6.07444169,21.0094877 C5.66947891,21.4102467 4.99454094,21.4102467 4.58957816,21.0094877 L3.64466501,20.0743833 L2.69975186,21.0094877 C2.42977667,21.2766603 2.0248139,21.4102467 1.61985112,21.2766603 C1.21488834,21.143074 0.944913151,20.742315 0.944913151,20.341556 L0.944913151,1.23870968 C0.944913151,0.837950664 1.21488834,0.437191651 1.61985112,0.303605313 C2.0248139,0.170018975 2.42977667,0.170018975 2.69975186,0.570777989 L3.64466501,1.50588235 L4.58957816,0.570777989 C4.99454094,0.170018975 5.66947891,0.170018975 6.07444169,0.570777989 L7.01935484,1.50588235 L7.96426799,0.570777989 C8.36923077,0.170018975 9.04416873,0.170018975 9.44913151,0.570777989 L10.3940447,1.50588235 L11.3389578,0.570777989 C11.7439206,0.170018975 12.4188586,0.170018975 12.8238213,0.570777989 L13.7687345,1.50588235 L14.7136476,0.570777989 C14.9836228,0.303605313 15.3885856,0.170018975 15.7935484,0.303605313 C16.1985112,0.437191651 16.4684864,0.837950664 16.4684864,1.23870968 L16.4684864,20.341556 C16.4684864,20.742315 16.1985112,21.143074 15.7935484,21.2766603 C15.6585608,21.2766603 15.5235732,21.4102467 15.3885856,21.4102467 Z M7.01935484,17.6698292 C7.28933002,17.6698292 7.55930521,17.8034156 7.6942928,17.9370019 L8.63920596,18.8721063 L9.58411911,17.9370019 C9.98908189,17.5362429 10.6640199,17.5362429 11.0689826,17.9370019 L12.0138958,18.8721063 L12.9588089,17.9370019 C13.3637717,17.5362429 13.9037221,17.5362429 14.3086849,17.9370019 L14.3086849,3.64326376 C13.9037221,4.04402277 13.3637717,4.04402277 12.9588089,3.64326376 L12.0138958,2.70815939 L11.0689826,3.64326376 C10.6640199,4.04402277 9.98908189,4.04402277 9.58411911,3.64326376 L8.63920596,2.70815939 L7.6942928,3.64326376 C7.28933002,4.04402277 6.61439206,4.04402277 6.20942928,3.64326376 L5.26451613,2.70815939 L4.31960298,3.64326376 C3.9146402,4.04402277 3.37468983,4.04402277 2.96972705,3.64326376 L2.96972705,17.9370019 C3.37468983,17.5362429 3.9146402,17.6698292 4.31960298,17.9370019 L5.26451613,18.8721063 L6.20942928,17.9370019 C6.47940447,17.8034156 6.74937965,17.6698292 7.01935484,17.6698292 Z" fill="#009DDB"></path>
                        </g>
                        <g transform="translate(3.732010, 5.343454)" id="Shape">
                            <path d="M0.722580645,0.837950664 L5.71712159,0.837950664" fill="#FFFFFF"></path>
                            <path d="M5.71712159,1.50588235 L0.722580645,1.50588235 C0.317617866,1.50588235 0.0476426799,1.23870968 0.0476426799,0.837950664 C0.0476426799,0.437191651 0.317617866,0.170018975 0.722580645,0.170018975 L5.71712159,0.170018975 C6.12208437,0.170018975 6.39205955,0.437191651 6.39205955,0.837950664 C6.39205955,1.23870968 6.12208437,1.50588235 5.71712159,1.50588235 Z" fill="#009DDB"></path>
                        </g>
                        <g transform="translate(3.732010, 8.015180)" id="Shape">
                            <path d="M0.722580645,0.704364326 L4.09727047,0.704364326" fill="#FFFFFF"></path>
                            <path d="M4.09727047,1.37229602 L0.722580645,1.37229602 C0.317617866,1.37229602 0.0476426799,1.10512334 0.0476426799,0.704364326 C0.0476426799,0.303605313 0.317617866,0.0364326376 0.722580645,0.0364326376 L4.09727047,0.0364326376 C4.50223325,0.0364326376 4.77220844,0.303605313 4.77220844,0.704364326 C4.77220844,1.10512334 4.50223325,1.37229602 4.09727047,1.37229602 Z" fill="#009DDB"></path>
                        </g>
                        <g transform="translate(3.732010, 9.654649)" id="Shape">
                            <path d="M0.722580645,1.46944972 L4.90719603,1.46944972" fill="#FFFFFF"></path>
                            <path d="M4.90719603,2.1373814 L0.722580645,2.1373814 C0.317617866,2.1373814 0.0476426799,1.87020873 0.0476426799,1.46944972 C0.0476426799,1.0686907 0.317617866,0.801518027 0.722580645,0.801518027 L4.90719603,0.801518027 C5.31215881,0.801518027 5.582134,1.0686907 5.582134,1.46944972 C5.582134,1.87020873 5.31215881,2.1373814 4.90719603,2.1373814 Z" fill="#009DDB"></path>
                        </g>
                        <g transform="translate(3.732010, 12.326376)" id="Shape">
                            <path d="M0.722580645,1.33586338 L3.28734491,1.33586338" fill="#FFFFFF"></path>
                            <path d="M3.28734491,2.00379507 L0.722580645,2.00379507 C0.317617866,2.00379507 0.0476426799,1.73662239 0.0476426799,1.33586338 C0.0476426799,0.935104364 0.317617866,0.667931689 0.722580645,0.667931689 L3.28734491,0.667931689 C3.69230769,0.667931689 3.96228288,0.935104364 3.96228288,1.33586338 C3.96228288,1.73662239 3.69230769,2.00379507 3.28734491,2.00379507 Z" fill="#009DDB"></path>
                        </g>
                        <g transform="translate(10.799007, 5.343454)" id="Shape">
                            <path d="M1.21488834,0.837950664 L2.0248139,0.837950664" fill="#FFFFFF"></path>
                            <path d="M2.0248139,1.50588235 L1.21488834,1.50588235 C0.809925558,1.50588235 0.539950372,1.23870968 0.539950372,0.837950664 C0.539950372,0.437191651 0.809925558,0.170018975 1.21488834,0.170018975 L2.0248139,0.170018975 C2.42977667,0.170018975 2.69975186,0.437191651 2.69975186,0.837950664 C2.69975186,1.23870968 2.42977667,1.50588235 2.0248139,1.50588235 Z" fill="#009DDB"></path>
                        </g>
                        <g transform="translate(10.799007, 8.015180)" id="Shape">
                            <path d="M1.21488834,0.704364326 L2.0248139,0.704364326" fill="#FFFFFF"></path>
                            <path d="M2.0248139,1.37229602 L1.21488834,1.37229602 C0.809925558,1.37229602 0.539950372,1.10512334 0.539950372,0.704364326 C0.539950372,0.303605313 0.809925558,0.0364326376 1.21488834,0.0364326376 L2.0248139,0.0364326376 C2.42977667,0.0364326376 2.69975186,0.303605313 2.69975186,0.704364326 C2.69975186,1.10512334 2.42977667,1.37229602 2.0248139,1.37229602 Z" fill="#009DDB"></path>
                        </g>
                        <g transform="translate(10.799007, 9.654649)" id="Shape">
                            <path d="M1.21488834,1.46944972 L2.0248139,1.46944972" fill="#FFFFFF"></path>
                            <path d="M2.0248139,2.1373814 L1.21488834,2.1373814 C0.809925558,2.1373814 0.539950372,1.87020873 0.539950372,1.46944972 C0.539950372,1.0686907 0.809925558,0.801518027 1.21488834,0.801518027 L2.0248139,0.801518027 C2.42977667,0.801518027 2.69975186,1.0686907 2.69975186,1.46944972 C2.69975186,1.87020873 2.42977667,2.1373814 2.0248139,2.1373814 Z" fill="#009DDB"></path>
                        </g>
                        <g transform="translate(10.799007, 12.326376)" id="Shape">
                            <path d="M1.21488834,1.33586338 L2.0248139,1.33586338" fill="#FFFFFF"></path>
                            <path d="M2.0248139,2.00379507 L1.21488834,2.00379507 C0.809925558,2.00379507 0.539950372,1.73662239 0.539950372,1.33586338 C0.539950372,0.935104364 0.809925558,0.667931689 1.21488834,0.667931689 L2.0248139,0.667931689 C2.42977667,0.667931689 2.69975186,0.935104364 2.69975186,1.33586338 C2.69975186,1.73662239 2.42977667,2.00379507 2.0248139,2.00379507 Z" fill="#009DDB"></path>
                        </g>
                    </g>
                    <g id="Group" fill="#009DDB">
                        <path d="M12.6623656,30.2945302 L1.37634409,30.2945302 C0.825806452,30.2945302 0.275268817,29.8906031 0.275268817,29.2173913 L0.275268817,9.02103787 C0.275268817,8.48246844 0.825806452,8.07854137 1.37634409,8.07854137 L27.8021505,8.07854137 C28.3526882,8.07854137 28.9032258,8.48246844 28.9032258,9.02103787 L28.9032258,18.3113604 C28.9032258,18.8499299 28.4903226,19.3884993 27.8021505,19.3884993 C27.1139785,19.3884993 26.7010753,18.9845722 26.7010753,18.3113604 L26.7010753,10.0981767 L2.47741935,10.0981767 L2.47741935,28.2748948 L12.8,28.2748948 C13.3505376,28.2748948 13.9010753,28.6788219 13.9010753,29.3520337 C13.9010753,30.0252454 13.2129032,30.2945302 12.6623656,30.2945302 Z" id="Shape"></path>
                        <path d="M27.8021505,10.0981767 L1.37634409,10.0981767 C0.96344086,10.0981767 0.550537634,9.82889201 0.412903226,9.42496494 C0.275268817,9.02103787 0.412903226,8.6171108 0.688172043,8.34782609 L8.25806452,0.942496494 C8.39569892,0.807854137 8.67096774,0.673211781 8.94623656,0.673211781 L20.2322581,0.673211781 C20.5075269,0.673211781 20.7827957,0.807854137 20.9204301,0.942496494 L28.4903226,8.34782609 C28.9032258,8.6171108 28.9032258,9.02103787 28.7655914,9.42496494 C28.627957,9.82889201 28.2150538,10.0981767 27.8021505,10.0981767 Z M3.85376344,8.07854137 L25.3247312,8.07854137 L19.8193548,2.69284712 L9.35913978,2.69284712 L3.85376344,8.07854137 Z" id="Shape"></path>
                        <path d="M14.5892473,9.8827652 C14.0387097,9.8827652 13.488172,9.47618944 13.488172,8.79856317 L13.488172,2.69992674 C13.488172,2.15782573 13.9010753,1.61572471 14.5892473,1.61572471 C15.2774194,1.61572471 15.6903226,2.02230047 15.6903226,2.69992674 L15.6903226,8.79856317 C15.6903226,9.34066419 15.1397849,9.8827652 14.5892473,9.8827652 Z" id="Shape"></path>
                    </g>
                </g>
            </g>
        </g>
    </g>
</svg>