<?xml version="1.0" encoding="UTF-8"?>
<svg width="15px" height="9px" viewBox="0 0 15 9" version="1.1" xmlns="http://www.w3.org/2000/svg" xmlns:xlink="http://www.w3.org/1999/xlink">
    <!-- Generator: Sketch 45.2 (43514) - http://www.bohemiancoding.com/sketch -->
    <title>ico-down-arrow</title>
    <desc>Created with Sketch.</desc>
    <defs></defs>
    <g id="Page-1" stroke="none" stroke-width="1" fill="none" fill-rule="evenodd">
        <g id="Returns" transform="translate(-99.000000, -1058.000000)" fill-rule="nonzero" fill="#FFFFFF">
            <g id="Left" transform="translate(106.000000, 1062.000000) rotate(-270.000000) translate(-106.000000, -1062.000000) translate(86.000000, 1042.000000)">
                <g id="ico-down-arrow" transform="translate(20.000000, 19.500000) scale(-1, 1) rotate(90.000000) translate(-20.000000, -19.500000) translate(13.000000, 15.000000)">
                    <g id="Down-arrow" transform="translate(7.000000, 4.500000) scale(1, -1) translate(-7.000000, -4.500000) ">
                        <path d="M5.7272299,4.23161658 C5.325973,3.89097941 2.38022031,0.524099301 2.38022031,0.524099301 C1.69568245,-0.174699767 1.04379484,-0.174699767 0.359256974,0.524099301 C-0.325280889,1.22289837 0.0607775889,2.15463046 0.745315452,2.85342953 L5.7272299,7.93913386 C6.41176776,8.63793293 7.5526642,8.63793293 8.23720206,7.93913386 L13.2191165,2.85342953 C14.1405986,1.9682127 14.2389309,1.22289837 13.5543931,0.524099301 C12.8698552,-0.174699767 12.020391,0.0610877622 11.3358532,0.75988683 C11.3358532,0.75988683 8.73159052,3.60294154 8.23720206,4.06880759 C7.403061,5.00961948 6.7143867,5.06963905 5.7272299,4.23161658 Z" id="Shape" transform="translate(7.000000, 4.231617) scale(1, -1) translate(-7.000000, -4.231617) "></path>
                    </g>
                </g>
            </g>
        </g>
    </g>
</svg>