<?xml version="1.0" encoding="UTF-8" standalone="no"?>
<svg width="32px" height="32px" viewBox="0 0 32 32" version="1.1" xmlns="http://www.w3.org/2000/svg" xmlns:xlink="http://www.w3.org/1999/xlink" xmlns:sketch="http://www.bohemiancoding.com/sketch/ns">
    <!-- Generator: Sketch 3.0.4 (8054) - http://www.bohemiancoding.com/sketch -->
    <title>ico-twitter 2</title>
    <desc>Created with Sketch.</desc>
    <defs></defs>
    <g id="Page-1" stroke="none" stroke-width="1" fill="none" fill-rule="evenodd" sketch:type="MSPage">
        <g id="Landscape" sketch:type="MSArtboardGroup" transform="translate(-135.000000, -640.000000)">
            <g id="ico-twitter-2" sketch:type="MSLayerGroup" transform="translate(136.000000, 641.000000)">
                <circle id="Oval-2" stroke="#FFFFFF" stroke-width="2" sketch:type="MSShapeGroup" cx="15" cy="15" r="15"></circle>
                <g id="mail" transform="translate(6.000000, 9.000000)" fill="#FFFFFF" sketch:type="MSShapeGroup">
                    <path d="M0.574,1.286 C1.062,1.548 7.822,5.18 8.074,5.315 C8.326,5.45 8.652,5.514 8.98,5.514 C9.308,5.514 9.634,5.45 9.886,5.315 C10.138,5.18 16.898,1.548 17.386,1.286 C17.875,1.023 18.337,0 17.44,0 L0.521,0 C-0.376,0 0.086,1.023 0.574,1.286 L0.574,1.286 Z M17.613,3.489 C17.058,3.778 10.226,7.338 9.886,7.516 C9.546,7.694 9.308,7.715 8.98,7.715 C8.652,7.715 8.414,7.694 8.074,7.516 C7.734,7.338 0.941,3.777 0.386,3.488 C-0.004,3.284 6.7507111e-13,3.523 6.7507111e-13,3.707 L6.7507111e-13,11 C6.7507111e-13,11.42 0.566,12 1,12 L17,12 C17.434,12 18,11.42 18,11 L18,3.708 C18,3.524 18.004,3.285 17.613,3.489 L17.613,3.489 Z" id="Shape"></path>
                </g>
            </g>
        </g>
    </g>
</svg>