<?xml version="1.0" encoding="UTF-8"?>
<svg width="11px" height="12px" viewBox="0 0 11 12" version="1.1" xmlns="http://www.w3.org/2000/svg" xmlns:xlink="http://www.w3.org/1999/xlink">
    <!-- Generator: Sketch 55.2 (78181) - https://sketchapp.com -->
    <title></title>
    <desc>Created with Sketch.</desc>
    <defs>
        <path d="M0.6394,4.163 C1.83720599,4.163 2.94489491,4.45979703 3.9625,5.0534 C4.95890498,5.63640291 5.74859709,6.42609502 6.3316,7.4225 C6.92520297,8.44010509 7.222,9.54779401 7.222,10.7456 L5.3299,10.7456 C5.3299,9.89759576 5.11790212,9.1132036 4.6939,8.3924 C4.26989788,7.68219645 3.70280355,7.11510212 2.9926,6.6911 C2.2717964,6.26709788 1.48740424,6.0551 0.6394,6.0551 L0.6394,4.163 Z M0.6394,0.4265 C2.02800694,0.4265 3.36359359,0.696797297 4.6462,1.2374 C5.87580615,1.76740265 6.96759523,2.50939523 7.9216,3.4634 C8.87560477,4.41740477 9.61759735,5.50919385 10.1476,6.7388 C10.6882027,8.02140641 10.9585,9.35699306 10.9585,10.7456 L9.0823,10.7456 C9.0823,9.60079428 8.85970223,8.50370525 8.4145,7.4543 C7.99049788,6.44729496 7.3889539,5.5542539 6.60985,4.77515 C5.8307461,3.9960461 4.93770504,3.39450212 3.9307,2.9705 C2.88129475,2.52529777 1.78420572,2.3027 0.6394,2.3027 L0.6394,0.4265 Z M0.6394,9.2828 C0.6394,8.87999799 0.782498569,8.54080138 1.0687,8.2652 C1.35490143,7.98959862 1.69939799,7.8518 2.1022,7.8518 C2.50500201,7.8518 2.84419862,7.98959862 3.1198,8.2652 C3.39540138,8.54080138 3.5332,8.87999799 3.5332,9.2828 C3.5332,9.68560201 3.39540138,10.0300986 3.1198,10.3163 C2.84419862,10.6025014 2.50500201,10.7456 2.1022,10.7456 C1.69939799,10.7456 1.35490143,10.6025014 1.0687,10.3163 C0.782498569,10.0300986 0.6394,9.68560201 0.6394,9.2828 Z" id="path-1"></path>
        <filter x="-4.8%" y="-4.8%" width="109.7%" height="119.4%" filterUnits="objectBoundingBox" id="filter-2">
            <feOffset dx="0" dy="1" in="SourceAlpha" result="shadowOffsetOuter1"></feOffset>
            <feColorMatrix values="0 0 0 0 0.635294118   0 0 0 0 0.192156863   0 0 0 0 0.129411765  0 0 0 1 0" type="matrix" in="shadowOffsetOuter1"></feColorMatrix>
        </filter>
    </defs>
    <g id="Page-1" stroke="none" stroke-width="1" fill="none" fill-rule="evenodd">
        <g id="" fill-rule="nonzero">
            <use fill="black" fill-opacity="1" filter="url(#filter-2)" xlink:href="#path-1"></use>
            <use fill="#FFFFFF" xlink:href="#path-1"></use>
        </g>
    </g>
</svg>