<?xml version="1.0" encoding="UTF-8" standalone="no"?>
<svg width="54px" height="50px" viewBox="0 0 54 50" version="1.1" xmlns="http://www.w3.org/2000/svg" xmlns:xlink="http://www.w3.org/1999/xlink" xmlns:sketch="http://www.bohemiancoding.com/sketch/ns">
    <!-- Generator: Sketch 3.2.2 (9983) - http://www.bohemiancoding.com/sketch -->
    <title>icon-webaward</title>
    <desc>Created with Sketch.</desc>
    <defs></defs>
    <g id="Page-1" stroke="none" stroke-width="1" fill="none" fill-rule="evenodd" sketch:type="MSPage">
        <g id="icon-webaward" sketch:type="MSLayerGroup" fill="#262626">
            <path d="M26.9282631,19.3926614 L21.5772307,31.4112769 C21.1231481,32.4311632 20.3965254,33.2431587 19.5219424,33.7997562 C19.1462325,34.1123202 18.7220777,34.3788844 18.2542462,34.5871764 C15.5029997,35.8121102 12.2795457,34.5745134 11.0510219,31.8152036 L0.708065633,8.58454356 C-0.518918806,5.82869139 0.722338005,2.59913419 3.46798631,1.3766928 C6.21923285,0.151758923 9.44268684,1.38935581 10.6712107,4.14866558 L16.2242064,16.6208982 L16.2242064,16.6208982 L21.9570419,3.74473891 C23.1855658,0.985429142 26.4090197,-0.252167745 29.1602663,0.972766135 C30.6004674,1.613985 31.6267477,2.80744522 32.1000016,4.19510795 L37.4303565,16.1672811 L42.9612286,3.74473891 C44.1897525,0.985429142 47.4132065,-0.252167745 50.164453,0.972766135 C52.9101013,2.19520752 54.1513581,5.42476472 52.9243737,8.18061689 L42.602095,31.3648345 C42.128841,32.7524973 41.1025608,33.9459575 39.6623597,34.5871764 C36.9111131,35.8121102 33.6876591,34.5745134 32.4591353,31.8152036 L26.9282631,19.3926614 Z" id="Rectangle-1" sketch:type="MSShapeGroup"></path>
            <path d="M46.8317152,35.0899137 L50.9623907,49.0299712 L2.67004864,49.0299712 L6.80072416,35.0899137 L46.8317152,35.0899137 Z" id="Rectangle-5" sketch:type="MSShapeGroup"></path>
        </g>
    </g>
</svg>