<?xml version="1.0" encoding="UTF-8" standalone="no"?>
<svg width="38px" height="52px" viewBox="0 0 38 52" version="1.1" xmlns="http://www.w3.org/2000/svg" xmlns:xlink="http://www.w3.org/1999/xlink">
    <!-- Generator: Sketch 3.7.2 (28276) - http://www.bohemiancoding.com/sketch -->
    <title>logo copy 5</title>
    <desc>Created with Sketch.</desc>
    <defs></defs>
    <g id="Page-1" stroke="none" stroke-width="1" fill="none" fill-rule="evenodd">
        <g id="Blog-Post-Copy-12" transform="translate(-194.000000, -86.000000)" fill="#FFFFFF">
            <g id="logo-copy-5" transform="translate(194.130926, 86.000000)">
                <path d="M6.39488462e-14,14.8886796 C6.39488462e-14,14.8886796 4.77597795,10.8130589 5.95806034,7.64556682 C7.10070957,4.83634196 12.2204498,0.925273207 20.4603399,0 C20.4603399,0 17.8778322,1.1895107 18.3199949,1.78320555 C18.3199949,1.78320555 34.1363484,0.919793972 37,17.8573308 C37,17.8573308 34.8859438,15.4733604 33.4291071,15.9074523 C33.4291071,15.9074523 40.4577051,21.945854 28.4795137,38.7389881 C28.4795137,38.7389881 28.9716982,35.6375996 27.7879727,34.0360905 C27.7879727,34.0360905 12.9180154,46.3066093 15.2314281,52 C15.2314281,52 5.38335833,45.052409 7.59307654,36.2348294 C7.59307654,36.2348294 5.80543936,38.4074098 5.80543936,39.4728438 C5.80543936,39.4728438 2.62997357,34.7782532 8.64973954,30.2982342 C8.64973954,30.2982342 11.4734102,28.7819173 9.90009966,27.4870651 C8.77242046,26.699655 7.70670861,28.1003432 5.08907009,30.4976054 C5.08907009,30.4976054 5.59604195,25.1930592 4.86068625,24.5150558 C10.5072975,22.5043762 5.86093787,17.9154807 3.79836386,20.0767492 C3.02649608,17.519743 6.39488462e-14,14.8886796 6.39488462e-14,14.8886796 L6.39488462e-14,14.8886796 Z" id="Path-17"></path>
            </g>
        </g>
    </g>
</svg>