<?xml version="1.0" encoding="UTF-8" standalone="no"?>
<svg width="46px" height="45px" viewBox="0 0 46 45" version="1.1" xmlns="http://www.w3.org/2000/svg" xmlns:xlink="http://www.w3.org/1999/xlink" xmlns:sketch="http://www.bohemiancoding.com/sketch/ns">
    <!-- Generator: Sketch 3.3.2 (12043) - http://www.bohemiancoding.com/sketch -->
    <title>logo copy</title>
    <desc>Created with Sketch.</desc>
    <defs></defs>
    <g id="Page-1" stroke="none" stroke-width="1" fill="none" fill-rule="evenodd" sketch:type="MSPage">
        <g id="logo-copy" sketch:type="MSLayerGroup" fill="#FFFFFF">
            <path d="M27.9098587,18.8506261 L24.7531354,22.0073494 L38.7181448,35.9723588 C39.1610277,36.4152417 39.1610277,37.1332967 38.7181448,37.5761796 C38.2752619,38.0190625 37.5572069,38.0190625 37.114324,37.5761796 L23.1493146,23.6111702 L19.4815381,27.2789466 L19.4815381,27.2789466 L17.8777173,25.6751258 L21.5454937,22.0073494 L21.5454937,22.0073494 L7.59711122,8.05896686 C7.15422833,7.61608397 7.15422833,6.89802893 7.59711122,6.45514604 C8.03999411,6.01226315 8.75804915,6.01226315 9.20093204,6.45514604 L23.1493146,20.4035286 L26.3060379,17.2468052 L27.9098587,18.8506261 Z M32.7213212,14.0391636 L38.5761796,8.18430516 C39.0190625,7.74142226 39.0190625,7.02336722 38.5761796,6.58048433 C38.1332967,6.13760144 37.4152417,6.13760144 36.9723588,6.58048433 L31.1175004,12.4353428 L32.7213212,14.0391636 Z M14.6700757,32.0904091 L9.05896686,37.7015179 C8.61608397,38.1444008 7.89802893,38.1444008 7.45514604,37.7015179 C7.01226315,37.258635 7.01226315,36.54058 7.45514604,36.0976971 L13.0662548,30.4865883 L14.6700757,32.0904091 L14.6700757,32.0904091 Z" id="Shape-Copy-9" sketch:type="MSShapeGroup"></path>
            <path d="M16.7606443,44.498194 L30.9442625,44.498194 C31.7862215,44.498194 32.2078761,43.4802297 31.6125212,42.8848748 L2.49890384,13.7712575 C2.12983476,13.4021884 1.53145556,13.4021884 1.16238648,13.7712575 C0.793317408,14.1403265 0.793317408,14.7387057 1.16238648,15.1077748 L30.2760039,44.2213922 L30.9442625,42.608073 L16.7606443,42.608073 C16.2387018,42.608073 15.8155838,43.031191 15.8155838,43.5531335 C15.8155838,44.075076 16.2387018,44.498194 16.7606443,44.498194 L16.7606443,44.498194 Z" id="Shape" sketch:type="MSShapeGroup"></path>
            <path d="M29.38791,0.388536166 L15.2042918,0.388536166 C14.3623328,0.388536166 13.9406782,1.40650043 14.5360331,2.00185533 L43.6496505,31.1154727 C44.0187195,31.4845418 44.6170988,31.4845418 44.9861678,31.1154727 C45.3552369,30.7464036 45.3552369,30.1480244 44.9861678,29.7789553 L15.8725505,0.665337973 L15.2042918,2.27865713 L29.38791,2.27865713 C29.9098525,2.27865713 30.3329705,1.85553914 30.3329705,1.33359665 C30.3329705,0.811654157 29.9098525,0.388536166 29.38791,0.388536166 L29.38791,0.388536166 Z" id="Shape" sketch:type="MSShapeGroup"></path>
        </g>
    </g>
</svg>