<?xml version="1.0" encoding="UTF-8"?>
<svg width="263px" height="43px" viewBox="0 0 263 43" version="1.1" xmlns="http://www.w3.org/2000/svg" xmlns:xlink="http://www.w3.org/1999/xlink">
    <!-- Generator: Sketch 51.2 (57519) - http://www.bohemiancoding.com/sketch -->
    <title>Group</title>
    <desc>Created with Sketch.</desc>
    <defs>
        <rect id="path-1" x="0" y="0" width="32" height="42" rx="4.5999999"></rect>
        <filter x="-1.6%" y="-1.2%" width="103.1%" height="104.8%" filterUnits="objectBoundingBox" id="filter-2">
            <feOffset dx="0" dy="1" in="SourceAlpha" result="shadowOffsetOuter1"></feOffset>
            <feColorMatrix values="0 0 0 0 0   0 0 0 0 0   0 0 0 0 0  0 0 0 1 0" type="matrix" in="shadowOffsetOuter1"></feColorMatrix>
        </filter>
        <rect id="path-3" x="0" y="0" width="32" height="42" rx="4.5999999"></rect>
        <filter x="-1.6%" y="-1.2%" width="103.1%" height="104.8%" filterUnits="objectBoundingBox" id="filter-4">
            <feOffset dx="0" dy="1" in="SourceAlpha" result="shadowOffsetOuter1"></feOffset>
            <feColorMatrix values="0 0 0 0 0   0 0 0 0 0   0 0 0 0 0  0 0 0 1 0" type="matrix" in="shadowOffsetOuter1"></feColorMatrix>
        </filter>
        <rect id="path-5" x="0" y="0" width="32" height="42" rx="4.5999999"></rect>
        <filter x="-1.6%" y="-1.2%" width="103.1%" height="104.8%" filterUnits="objectBoundingBox" id="filter-6">
            <feOffset dx="0" dy="1" in="SourceAlpha" result="shadowOffsetOuter1"></feOffset>
            <feColorMatrix values="0 0 0 0 0   0 0 0 0 0   0 0 0 0 0  0 0 0 1 0" type="matrix" in="shadowOffsetOuter1"></feColorMatrix>
        </filter>
        <rect id="path-7" x="0" y="0" width="32" height="42" rx="4.5999999"></rect>
        <filter x="-1.6%" y="-1.2%" width="103.1%" height="104.8%" filterUnits="objectBoundingBox" id="filter-8">
            <feOffset dx="0" dy="1" in="SourceAlpha" result="shadowOffsetOuter1"></feOffset>
            <feColorMatrix values="0 0 0 0 0   0 0 0 0 0   0 0 0 0 0  0 0 0 1 0" type="matrix" in="shadowOffsetOuter1"></feColorMatrix>
        </filter>
        <rect id="path-9" x="0" y="0" width="32" height="42" rx="4.5999999"></rect>
        <filter x="-1.6%" y="-1.2%" width="103.1%" height="104.8%" filterUnits="objectBoundingBox" id="filter-10">
            <feOffset dx="0" dy="1" in="SourceAlpha" result="shadowOffsetOuter1"></feOffset>
            <feColorMatrix values="0 0 0 0 0   0 0 0 0 0   0 0 0 0 0  0 0 0 1 0" type="matrix" in="shadowOffsetOuter1"></feColorMatrix>
        </filter>
        <rect id="path-11" x="0" y="0" width="32" height="42" rx="4.5999999"></rect>
        <filter x="-1.6%" y="-1.2%" width="103.1%" height="104.8%" filterUnits="objectBoundingBox" id="filter-12">
            <feOffset dx="0" dy="1" in="SourceAlpha" result="shadowOffsetOuter1"></feOffset>
            <feColorMatrix values="0 0 0 0 0   0 0 0 0 0   0 0 0 0 0  0 0 0 1 0" type="matrix" in="shadowOffsetOuter1"></feColorMatrix>
        </filter>
        <rect id="path-13" x="0" y="0" width="32" height="42" rx="4.5999999"></rect>
        <filter x="-1.6%" y="-1.2%" width="103.1%" height="104.8%" filterUnits="objectBoundingBox" id="filter-14">
            <feOffset dx="0" dy="1" in="SourceAlpha" result="shadowOffsetOuter1"></feOffset>
            <feColorMatrix values="0 0 0 0 0   0 0 0 0 0   0 0 0 0 0  0 0 0 1 0" type="matrix" in="shadowOffsetOuter1"></feColorMatrix>
        </filter>
        <rect id="path-15" x="0" y="0" width="32" height="42" rx="4.5999999"></rect>
        <filter x="-1.6%" y="-1.2%" width="103.1%" height="104.8%" filterUnits="objectBoundingBox" id="filter-16">
            <feOffset dx="0" dy="1" in="SourceAlpha" result="shadowOffsetOuter1"></feOffset>
            <feColorMatrix values="0 0 0 0 0   0 0 0 0 0   0 0 0 0 0  0 0 0 1 0" type="matrix" in="shadowOffsetOuter1"></feColorMatrix>
        </filter>
    </defs>
    <g id="Page-1" stroke="none" stroke-width="1" fill="none" fill-rule="evenodd">
        <g id="Group">
            <g id="T">
                <g id="Rectangle">
                    <use fill="black" fill-opacity="1" filter="url(#filter-2)" xlink:href="#path-1"></use>
                    <use fill="#434343" fill-rule="evenodd" xlink:href="#path-1"></use>
                </g>
                <path d="M15.0744721,15.8166504 C15.0744721,15.8166504 15.171517,15.8166504 15.3656098,15.8166504 C15.5597026,15.8166504 15.781258,15.8166504 16.0302826,15.8166504 C16.2793073,15.8166504 16.5008627,15.8166504 16.6949555,15.8166504 C16.8890483,15.8166504 16.9860932,15.8166504 16.9860932,15.8166504 L16.9860932,18.5742188 L19.2053315,18.5742188 L19.2053315,20.1452637 L16.9860932,20.1452637 L16.9860932,26.9348145 C16.9860932,27.4548366 17.0996174,27.8375232 17.3266694,28.0828857 C17.5537213,28.3282483 17.9126044,28.4509277 18.4033295,28.4509277 C18.5131933,28.4509277 18.6560142,28.4436036 18.8317963,28.4289551 C19.0075784,28.4143066 19.1284268,28.4033203 19.1943451,28.3959961 L19.1943451,30 C19.0771571,30.029297 18.9032086,30.0512695 18.6724946,30.065918 C18.4417805,30.0805665 18.212901,30.0878906 17.985849,30.0878906 C16.9384805,30.0878906 16.1914177,29.853518 15.7446381,29.3847656 C15.2978585,28.9160133 15.0744721,28.1323297 15.0744721,27.0336914 L15.0744721,20.1452637 L13.3715912,20.1452637 L13.3715912,18.5742188 L15.0744721,18.5742188 L15.0744721,15.8166504 Z" id="Symbol" fill="#FFFFFF"></path>
            </g>
            <g id="T" transform="translate(33.000000, 0.000000)">
                <g id="Rectangle">
                    <use fill="black" fill-opacity="1" filter="url(#filter-4)" xlink:href="#path-3"></use>
                    <use fill="#434343" fill-rule="evenodd" xlink:href="#path-3"></use>
                </g>
                <path d="M15.640268,30 L15.640268,18.5742188 L17.5518891,18.5742188 L17.5518891,30 L15.640268,30 Z M16.5960785,16.6516113 C16.2738113,16.6516113 15.9954938,16.534425 15.7611176,16.3000488 C15.5267414,16.0656727 15.4095551,15.7873551 15.4095551,15.4650879 C15.4095551,15.1354964 15.5267414,14.8553478 15.7611176,14.6246338 C15.9954938,14.3939197 16.2738113,14.2785645 16.5960785,14.2785645 C16.92567,14.2785645 17.2076496,14.3939197 17.4420258,14.6246338 C17.676402,14.8553478 17.7935883,15.1354964 17.7935883,15.4650879 C17.7935883,15.7873551 17.676402,16.0656727 17.4420258,16.3000488 C17.2076496,16.534425 16.92567,16.6516113 16.5960785,16.6516113 Z" id="Symbol" fill="#FFFFFF"></path>
            </g>
            <g id="T" transform="translate(66.000000, 0.000000)">
                <g id="Rectangle">
                    <use fill="black" fill-opacity="1" filter="url(#filter-6)" xlink:href="#path-5"></use>
                    <use fill="#434343" fill-rule="evenodd" xlink:href="#path-5"></use>
                </g>
                <path d="M11.9104096,30 C11.9104096,30 11.9104096,29.6154824 11.9104096,28.8464355 C11.9104096,28.0773887 11.9104096,27.1252498 11.9104096,25.9899902 C11.9104096,24.8547307 11.9104096,23.7194881 11.9104096,22.5842285 C11.9104096,21.4489689 11.9104096,20.49683 11.9104096,19.7277832 C11.9104096,18.9587364 11.9104096,18.5742188 11.9104096,18.5742188 L13.7121674,18.5742188 L13.7121674,20.3979492 L13.7561127,20.3979492 C14.07838,19.7827118 14.5416322,19.291994 15.1458832,18.9257812 C15.7501343,18.5595685 16.4953661,18.3764648 17.381601,18.3764648 C18.6340487,18.3764648 19.606329,18.7536583 20.2984711,19.5080566 C20.9906132,20.2624549 21.3366791,21.2878353 21.3366791,22.5842285 L21.3366791,30 L19.425058,30 L19.425058,22.9248047 C19.425058,22.0019485 19.2071647,21.2951685 18.7713715,20.8044434 C18.3355783,20.3137182 17.6782363,20.0683594 16.7993256,20.0683594 C15.8984422,20.0683594 15.1770139,20.3613252 14.635019,20.9472656 C14.0930241,21.5332061 13.8220307,22.3095655 13.8220307,23.2763672 L13.8220307,30 L11.9104096,30 Z" id="Symbol" fill="#FFFFFF"></path>
            </g>
            <g id="T" transform="translate(99.000000, 0.000000)">
                <g id="Rectangle">
                    <use fill="black" fill-opacity="1" filter="url(#filter-8)" xlink:href="#path-7"></use>
                    <use fill="#434343" fill-rule="evenodd" xlink:href="#path-7"></use>
                </g>
                <path d="M13.3166596,34.2736816 C13.243417,34.2736816 13.1555273,34.2718506 13.0529877,34.2681885 C12.9504481,34.2645263 12.8497411,34.2572022 12.7508637,34.2462158 C12.6519862,34.2352294 12.5659275,34.2224122 12.492685,34.2077637 L12.492685,32.6037598 C12.5952246,32.6257325 12.716073,32.6403808 12.8552338,32.6477051 C12.9943947,32.6550293 13.1225672,32.6586914 13.2397553,32.6586914 C13.7744259,32.6586914 14.2028884,32.5177016 14.5251557,32.2357178 C14.8474229,31.9537339 15.1184163,31.4794955 15.338144,30.8129883 C15.338144,30.8129883 15.3820888,30.6793226 15.4699799,30.4119873 C15.557871,30.144652 15.6018158,30.0109863 15.6018158,30.0109863 L11.3830658,18.5742188 L13.4265229,18.5742188 L16.5905854,28.0883789 L16.6235444,28.0883789 L19.7876069,18.5742188 L21.7981049,18.5742188 L17.3046967,30.802002 C16.8139716,32.1350164 16.2848021,33.0468725 15.7171723,33.5375977 C15.1495425,34.0283228 14.3493796,34.2736816 13.3166596,34.2736816 Z" id="Symbol" fill="#FFFFFF"></path>
            </g>
            <g id="T" transform="translate(132.000000, 0.000000)">
                <g id="Rectangle">
                    <use fill="black" fill-opacity="1" filter="url(#filter-10)" xlink:href="#path-9"></use>
                    <use fill="#434343" fill-rule="evenodd" xlink:href="#path-9"></use>
                </g>
                <path d="M15.0744721,15.8166504 C15.0744721,15.8166504 15.171517,15.8166504 15.3656098,15.8166504 C15.5597026,15.8166504 15.781258,15.8166504 16.0302826,15.8166504 C16.2793073,15.8166504 16.5008627,15.8166504 16.6949555,15.8166504 C16.8890483,15.8166504 16.9860932,15.8166504 16.9860932,15.8166504 L16.9860932,18.5742188 L19.2053315,18.5742188 L19.2053315,20.1452637 L16.9860932,20.1452637 L16.9860932,26.9348145 C16.9860932,27.4548366 17.0996174,27.8375232 17.3266694,28.0828857 C17.5537213,28.3282483 17.9126044,28.4509277 18.4033295,28.4509277 C18.5131933,28.4509277 18.6560142,28.4436036 18.8317963,28.4289551 C19.0075784,28.4143066 19.1284268,28.4033203 19.1943451,28.3959961 L19.1943451,30 C19.0771571,30.029297 18.9032086,30.0512695 18.6724946,30.065918 C18.4417805,30.0805665 18.212901,30.0878906 17.985849,30.0878906 C16.9384805,30.0878906 16.1914177,29.853518 15.7446381,29.3847656 C15.2978585,28.9160133 15.0744721,28.1323297 15.0744721,27.0336914 L15.0744721,20.1452637 L13.3715912,20.1452637 L13.3715912,18.5742188 L15.0744721,18.5742188 L15.0744721,15.8166504 Z" id="Symbol" fill="#FFFFFF"></path>
            </g>
            <g id="T" transform="translate(165.000000, 0.000000)">
                <g id="Rectangle">
                    <use fill="black" fill-opacity="1" filter="url(#filter-12)" xlink:href="#path-11"></use>
                    <use fill="#434343" fill-rule="evenodd" xlink:href="#path-11"></use>
                </g>
                <path d="M13.3166596,34.2736816 C13.243417,34.2736816 13.1555273,34.2718506 13.0529877,34.2681885 C12.9504481,34.2645263 12.8497411,34.2572022 12.7508637,34.2462158 C12.6519862,34.2352294 12.5659275,34.2224122 12.492685,34.2077637 L12.492685,32.6037598 C12.5952246,32.6257325 12.716073,32.6403808 12.8552338,32.6477051 C12.9943947,32.6550293 13.1225672,32.6586914 13.2397553,32.6586914 C13.7744259,32.6586914 14.2028884,32.5177016 14.5251557,32.2357178 C14.8474229,31.9537339 15.1184163,31.4794955 15.338144,30.8129883 C15.338144,30.8129883 15.3820888,30.6793226 15.4699799,30.4119873 C15.557871,30.144652 15.6018158,30.0109863 15.6018158,30.0109863 L11.3830658,18.5742188 L13.4265229,18.5742188 L16.5905854,28.0883789 L16.6235444,28.0883789 L19.7876069,18.5742188 L21.7981049,18.5742188 L17.3046967,30.802002 C16.8139716,32.1350164 16.2848021,33.0468725 15.7171723,33.5375977 C15.1495425,34.0283228 14.3493796,34.2736816 13.3166596,34.2736816 Z" id="Symbol" fill="#FFFFFF"></path>
            </g>
            <g id="T" transform="translate(198.000000, 0.000000)">
                <g id="Rectangle">
                    <use fill="black" fill-opacity="1" filter="url(#filter-14)" xlink:href="#path-13"></use>
                    <use fill="#434343" fill-rule="evenodd" xlink:href="#path-13"></use>
                </g>
                <path d="M17.2058197,18.3764648 C18.6633466,18.3764648 19.842534,18.9129585 20.7434174,19.9859619 C21.6443008,21.0589653 22.0947358,22.4926668 22.0947358,24.2871094 C22.0947358,26.0742277 21.6479629,27.5060981 20.7544037,28.5827637 C19.8608446,29.6594292 18.6926434,30.1977539 17.2497651,30.1977539 C16.4294485,30.1977539 15.7043581,30.0109882 15.0744721,29.6374512 C14.4445861,29.2639141 13.9575305,28.7658723 13.6132905,28.1433105 L13.5693451,28.1433105 L13.5693451,33.8122559 L11.657724,33.8122559 L11.657724,18.5742188 L13.4704682,18.5742188 L13.4704682,20.5078125 L13.5144135,20.5078125 C13.8659778,19.863278 14.3621886,19.3469258 15.003061,18.9587402 C15.6439333,18.5705547 16.3781789,18.3764648 17.2058197,18.3764648 Z M16.8322846,28.5168457 C17.8503561,28.5168457 18.6560121,28.1359901 19.2492768,27.3742676 C19.8425415,26.612545 20.1391694,25.5835026 20.1391694,24.2871094 C20.1391694,22.9980404 19.8425415,21.970829 19.2492768,21.2054443 C18.6560121,20.4400596 17.8503561,20.057373 16.8322846,20.057373 C15.8581586,20.057373 15.0689819,20.4455528 14.4647309,21.2219238 C13.8604798,21.9982949 13.5583588,23.0200132 13.5583588,24.2871094 C13.5583588,25.5615298 13.8604798,26.5850791 14.4647309,27.3577881 C15.0689819,28.130497 15.8581586,28.5168457 16.8322846,28.5168457 Z" id="Symbol" fill="#FFFFFF"></path>
            </g>
            <g id="T" transform="translate(231.000000, 0.000000)">
                <g id="Rectangle">
                    <use fill="black" fill-opacity="1" filter="url(#filter-16)" xlink:href="#path-15"></use>
                    <use fill="#434343" fill-rule="evenodd" xlink:href="#path-15"></use>
                </g>
                <path d="M16.6565033,20.0354004 C15.7629442,20.0354004 15.0268676,20.3430145 14.4482514,20.958252 C13.8696352,21.5734894 13.5510349,22.357173 13.4924408,23.3093262 L19.6997162,23.3093262 C19.6777435,22.3498487 19.3902708,21.5643341 18.8372895,20.9527588 C18.2843082,20.3411835 17.5573868,20.0354004 16.6565033,20.0354004 Z M19.6557709,26.7260742 C19.6557709,26.7260742 19.7509848,26.7260742 19.9414155,26.7260742 C20.1318461,26.7260742 20.3497394,26.7260742 20.595102,26.7260742 C20.8404645,26.7260742 21.0583579,26.7260742 21.2487885,26.7260742 C21.4392191,26.7260742 21.534433,26.7260742 21.534433,26.7260742 C21.3732994,27.7221729 20.851454,28.5498014 19.9688813,29.2089844 C19.0863085,29.8681674 18.0224764,30.1977539 16.777353,30.1977539 C15.144044,30.1977539 13.8586565,29.6685844 12.9211518,28.6102295 C11.9836471,27.5518746 11.5149018,26.1254973 11.5149018,24.3310547 C11.5149018,22.5585849 11.9836471,21.1230524 12.9211518,20.0244141 C13.8586565,18.9257758 15.1147474,18.3764648 16.6894623,18.3764648 C18.2348802,18.3764648 19.4525194,18.8946481 20.3424164,19.9310303 C21.2323135,20.9674124 21.6772553,22.3498449 21.6772553,24.0783691 L21.6772553,24.8034668 L13.4814545,24.8034668 L13.4814545,24.9133301 C13.4814545,26.0046441 13.7817445,26.8817106 14.3823334,27.5445557 C14.9829224,28.2074008 15.7959025,28.5388184 16.8212983,28.5388184 C17.5463995,28.5388184 18.1597967,28.370363 18.6615082,28.0334473 C19.1632197,27.6965315 19.4946373,27.2607449 19.6557709,26.7260742 Z" id="Symbol" fill="#FFFFFF"></path>
            </g>
        </g>
    </g>
</svg>