<?xml version="1.0" encoding="UTF-8"?>
<svg width="33px" height="69px" viewBox="0 0 33 69" version="1.1" xmlns="http://www.w3.org/2000/svg" xmlns:xlink="http://www.w3.org/1999/xlink">
    <!-- Generator: Sketch 48.2 (47327) - http://www.bohemiancoding.com/sketch -->
    <title>W</title>
    <desc>Created with Sketch.</desc>
    <defs></defs>
    <g id="Artboard" stroke="none" stroke-width="1" fill="none" fill-rule="evenodd" transform="translate(-395.000000, -257.000000)">
        <g id="treetop" transform="translate(395.000000, 257.000000)" fill="#D98B5A" fill-rule="nonzero">
            <path d="M32.631481,58.114016 L32.631481,58.229321 C32.631481,58.805849 29.864147,60.766044 29.172313,60.996655 L29.402925,61.111961 L29.51823,61.227267 C29.51823,61.803795 27.903952,62.265017 27.44273,62.380323 C27.558035,62.380323 27.673341,62.495628 27.788646,62.495628 C27.903952,62.495628 28.711091,62.265017 28.711091,62.495628 C28.711091,62.95685 27.44273,63.072156 27.212119,63.302767 C26.635591,63.418073 25.943757,63.418073 25.367229,63.418073 C25.021312,63.418073 23.868256,63.187462 23.637645,63.418073 L24.56009,63.648684 L24.56009,63.76399 C24.56009,64.109906 23.637645,64.455823 23.291729,64.455823 C22.945812,64.455823 22.599895,64.340518 22.253978,64.340518 C22.253978,64.340518 22.138673,64.340518 22.138673,64.455823 C22.138673,64.571129 22.369284,64.686434 22.484589,64.686434 C22.484589,64.917045 22.253978,64.917045 22.023367,64.917045 C21.216228,64.917045 20.524394,64.340518 19.832561,64.340518 L19.717255,64.340518 C19.832561,64.571129 19.947867,64.686434 19.60195,64.686434 C19.025422,64.686434 17.526449,63.302767 17.526449,63.072156 L17.526449,62.841545 L16.834616,62.610934 C16.71931,62.726239 16.71931,62.841545 16.71931,62.95685 C16.71931,64.109906 16.949921,65.493573 17.295838,66.646629 C17.411144,67.107852 17.75706,67.569074 17.75706,68.145602 C17.75706,68.376213 17.641755,68.491519 17.411144,68.491519 C16.949921,68.491519 16.488699,68.376213 15.912171,68.376213 C15.68156,68.376213 14.067282,68.491519 14.067282,68.145602 C14.067282,67.223157 14.989726,66.070101 14.989726,64.917045 C14.989726,64.686434 14.989726,64.455823 14.874421,64.225212 C14.64381,64.225212 14.528504,63.994601 14.297893,63.994601 C13.721365,63.994601 13.144837,64.340518 12.568309,64.340518 C11.991781,64.340518 11.530559,64.225212 10.954031,64.225212 C9.224447,64.225212 7.84078,65.147657 6.111196,65.147657 C5.995891,65.147657 5.419363,65.147657 5.419363,65.032351 C5.419363,64.686434 6.111196,64.80174 6.111196,64.455823 L4.151001,64.109906 L4.151001,63.994601 C4.151001,63.879295 4.266307,63.76399 4.381612,63.648684 C4.381612,63.418073 2.536723,63.418073 2.536723,63.072156 C2.536723,62.95685 2.652028,62.841545 2.767334,62.841545 C2.536723,62.380323 1.153056,62.610934 1.153056,62.265017 C1.153056,62.265017 1.383667,62.265017 1.268361,62.149711 C1.153056,61.688489 0.230611,61.688489 0.230611,61.457878 L0.230611,61.342572 C0.230611,61.227267 0.345917,61.111961 0.461222,61.111961 C0.461222,60.535433 0,60.420128 0,60.189516 C0,60.074211 0.115306,59.958905 0.230611,59.958905 C0.576528,59.958905 1.383667,60.650739 1.614278,60.650739 C1.498973,60.535433 1.03775,60.304822 1.03775,60.074211 C1.03775,59.958905 1.153056,59.8436 1.268361,59.8436 C1.153056,59.612988 0.807139,59.382377 0.807139,59.036461 C0.807139,58.921155 0.922445,58.921155 1.03775,58.921155 C3.689779,60.304822 3.343862,60.304822 6.111196,60.650739 C6.457113,60.650739 6.80303,60.88135 7.148946,60.88135 C7.264252,60.88135 7.725474,60.766044 7.725474,60.650739 C7.725474,60.535433 7.148946,60.535433 7.033641,60.535433 C6.80303,60.535433 5.419363,60.650739 5.419363,60.304822 C5.419363,60.189516 5.534668,60.074211 5.534668,59.958905 L5.073446,59.958905 C4.727529,59.958905 3.228556,59.958905 3.228556,59.497683 C3.228556,59.382377 4.035696,59.382377 4.035696,59.267072 C3.805084,59.151766 1.960195,57.99871 1.960195,57.422182 C1.960195,57.306877 1.960195,57.306877 2.075501,57.306877 C2.306112,57.768099 3.574473,58.229321 4.151001,58.229321 C4.266307,58.229321 4.496918,58.229321 4.496918,58.114016 L3.805084,57.883405 L3.805084,57.768099 C3.805084,57.652793 3.92039,57.537488 4.035696,57.537488 C3.92039,57.537488 3.805084,57.422182 3.689779,57.422182 C3.574473,57.422182 2.536723,57.537488 2.536723,57.306877 C2.536723,57.076266 2.997945,56.845654 3.228556,56.730349 C3.228556,56.499738 1.614278,56.730349 1.614278,56.153821 L1.614278,56.038515 C1.729584,56.038515 2.306112,56.038515 2.306112,55.807904 L2.306112,55.692598 C2.306112,55.577293 2.075501,55.461987 1.960195,55.461987 C1.498973,55.231376 0.345917,54.424237 0.115306,54.07832 C0.115306,53.963015 0.461222,53.963015 0.576528,53.963015 C0.807139,53.963015 2.190806,54.07832 2.306112,53.963015 C2.306112,53.732404 1.498973,53.617098 1.498973,53.386487 C1.498973,53.155876 1.844889,53.155876 1.844889,52.579348 C1.844889,52.464042 1.729584,51.656903 1.960195,51.656903 C2.075501,51.656903 2.190806,52.00282 2.190806,52.118125 C2.421417,52.694653 2.997945,53.501792 3.689779,53.501792 C3.805084,53.501792 3.92039,53.501792 4.035696,53.386487 C3.92039,53.271181 3.228556,52.925264 3.228556,52.579348 L3.343862,52.464042 C3.459168,52.464042 3.574473,52.464042 3.689779,52.348736 C3.459168,51.887514 3.228556,51.310986 3.228556,50.849764 C3.228556,50.734458 3.228556,50.503847 3.343862,50.503847 C3.459168,50.503847 3.689779,50.965069 3.805084,51.080375 C4.151001,51.541597 4.496918,52.00282 4.95814,52.348736 L7.148946,54.07832 C7.379558,54.07832 7.494863,53.963015 7.725474,53.963015 C8.647919,54.07832 9.339753,54.770154 10.377503,54.770154 C10.492808,54.770154 10.838725,54.770154 10.838725,54.539543 L10.492808,54.424237 C10.377503,54.424237 9.455058,54.424237 9.455058,54.193626 C9.455058,53.963015 9.91628,53.963015 9.91628,53.732404 L9.91628,53.617098 C9.224447,53.617098 7.379558,53.386487 6.80303,52.925264 C6.80303,52.809959 7.610169,52.579348 7.725474,52.579348 C7.725474,52.464042 7.379558,52.348736 7.379558,52.348736 C6.457113,52.00282 5.765279,51.656903 5.073446,50.965069 C5.073446,50.965069 4.95814,50.849764 4.95814,50.734458 L4.95814,50.619153 C5.188751,50.619153 5.534668,50.849764 5.765279,50.619153 C5.765279,50.503847 5.649974,50.503847 5.649974,50.388541 L5.649974,49.812014 C5.765279,49.812014 7.033641,50.849764 7.264252,50.965069 C8.302002,51.541597 9.800975,52.118125 10.954031,52.118125 C11.299948,52.00282 12.222392,52.118125 12.337698,51.772209 L11.530559,51.772209 C11.530559,51.426292 11.876475,51.310986 11.876475,51.080375 L11.299948,51.310986 C11.069336,51.310986 9.224447,51.080375 9.224447,50.734458 L9.224447,50.619153 C9.339753,50.619153 9.800975,50.734458 9.91628,50.619153 C10.031586,50.619153 10.608114,50.619153 10.608114,50.388541 C10.608114,50.273236 10.146892,50.273236 10.031586,50.273236 C9.800975,50.15793 9.339753,50.273236 9.339753,50.042625 C9.339753,49.812014 9.455058,49.696708 9.570364,49.581402 L9.339753,49.581402 C9.109141,49.581402 8.87853,49.696708 8.647919,49.812014 L7.956085,49.812014 C7.84078,49.696708 7.494863,49.696708 7.379558,49.581402 L7.610169,49.235486 C7.494863,49.12018 5.188751,49.004874 4.95814,49.004874 L4.842835,48.889569 C4.842835,48.774263 4.95814,48.774263 4.95814,48.658958 L5.073446,48.543652 L4.95814,48.428347 C3.92039,48.428347 4.151001,48.313041 3.343862,48.08243 C3.228556,48.08243 2.421417,47.967124 2.421417,47.736513 C2.421417,47.505902 3.343862,47.621207 3.459168,47.390596 C2.997945,47.275291 2.652028,47.159985 2.190806,47.159985 C2.075501,47.159985 1.383667,47.275291 1.383667,46.929374 C1.383667,46.698763 1.960195,46.698763 1.960195,46.23754 C1.960195,45.891624 1.614278,45.776318 1.268361,45.776318 C1.153056,45.776318 0.576528,46.006929 0.576528,45.776318 C0.576528,45.430401 0.922445,45.19979 1.03775,44.969179 C1.03775,44.738568 1.03775,43.354901 1.383667,43.354901 C1.614278,43.354901 1.729584,44.623262 2.190806,44.623262 C2.421417,44.623262 2.421417,44.277345 2.652028,44.277345 C3.228556,44.277345 2.997945,45.661012 3.574473,45.661012 L3.689779,45.661012 L4.035696,45.430401 C4.266307,45.661012 4.496918,46.23754 4.95814,46.23754 C5.073446,46.23754 5.073446,46.122235 5.073446,46.006929 C5.073446,45.776318 4.151001,45.545707 4.151001,45.19979 C4.151001,45.084484 4.266307,44.969179 4.381612,44.969179 C4.612223,44.969179 4.727529,44.507957 4.727529,44.277345 C4.727529,44.16204 4.727529,44.046734 4.612223,43.931429 L4.266307,43.816123 C4.035696,43.816123 3.689779,43.931429 3.459168,43.931429 L3.228556,43.931429 L3.228556,43.700817 L2.997945,43.585512 C2.652028,43.585512 2.075501,43.585512 1.844889,43.239595 C1.844889,43.008984 2.421417,43.008984 2.421417,42.778373 C1.960195,42.086539 1.268361,41.510011 1.268361,40.587567 C1.268361,40.472261 1.268361,40.356955 1.383667,40.356955 C1.844889,40.356955 3.228556,41.510011 3.689779,41.510011 L3.805084,41.510011 C2.88264,40.587567 2.075501,40.011039 1.498973,38.857983 L1.614278,38.742677 C1.960195,38.742677 2.652028,39.319205 3.113251,39.319205 L3.228556,39.319205 C3.113251,39.2039 2.652028,38.512066 2.652028,38.39676 L2.652028,38.166149 C2.997945,38.166149 3.574473,38.742677 3.805084,38.742677 C3.689779,38.627372 3.574473,38.166149 3.574473,37.935538 L3.574473,37.820233 C3.574473,37.704927 3.574473,37.589621 3.689779,37.589621 C3.92039,37.589621 4.151001,37.704927 4.266307,37.589621 C4.151001,37.243705 3.92039,36.897788 3.92039,36.551871 L3.92039,36.436565 C4.266307,36.436565 4.727529,36.551871 4.727529,36.090649 C4.727529,35.860038 4.496918,35.860038 4.266307,35.860038 C3.92039,35.860038 3.459168,36.090649 3.113251,36.090649 C2.997945,36.090649 2.767334,36.090649 2.767334,35.975343 C2.767334,35.398815 2.767334,35.629426 2.421417,35.168204 C2.421417,34.822287 3.689779,35.052898 3.689779,34.591676 C3.574473,34.361065 3.113251,33.784537 3.113251,33.669231 C3.113251,33.553926 3.113251,33.553926 3.228556,33.553926 C3.459168,33.553926 4.842835,35.629426 8.186697,35.629426 L8.763225,35.629426 L8.993836,35.514121 C9.339753,35.629426 9.91628,35.629426 9.91628,35.052898 C9.91628,34.937593 9.455058,34.937593 9.339753,34.937593 C8.87853,34.937593 8.186697,35.168204 7.725474,35.168204 L7.610169,35.052898 C7.610169,34.937593 7.84078,34.822287 7.84078,34.706982 L6.226502,34.706982 L6.111196,34.591676 C6.111196,34.47637 6.341807,34.361065 6.457113,34.361065 C6.572418,34.245759 6.572418,34.245759 6.572418,34.130454 L6.457113,34.015148 C5.995891,33.784537 4.381612,33.323315 4.381612,32.631481 L4.381612,32.516176 C4.612223,32.516176 5.304057,32.516176 5.419363,32.631481 C5.765279,32.631481 6.457113,33.323315 6.918335,33.323315 C7.033641,33.323315 7.264252,33.208009 7.264252,33.092703 C7.264252,32.746787 6.80303,32.516176 6.80303,32.285564 C6.80303,32.170259 7.033641,32.170259 7.148946,32.170259 C7.956085,32.170259 8.302002,31.939648 8.417308,31.939648 C8.87853,31.939648 9.339753,32.631481 9.800975,32.631481 L9.91628,32.631481 C9.800975,32.40087 9.109141,31.478425 8.87853,31.478425 C7.379558,31.478425 6.341807,32.40087 5.073446,32.40087 L4.95814,32.40087 C4.95814,31.939648 5.649974,31.824342 5.649974,31.593731 C5.649974,31.478425 5.534668,31.478425 5.534668,31.478425 C5.419363,31.478425 4.727529,31.709036 4.727529,31.478425 C4.727529,31.247814 5.188751,31.132508 5.188751,30.901897 L5.188751,30.786592 C4.727529,31.017203 3.92039,31.247814 3.459168,31.247814 C3.343862,31.247814 3.228556,31.247814 3.228556,31.132508 C3.343862,31.017203 3.459168,30.901897 3.459168,30.671286 L3.343862,30.671286 C2.997945,30.671286 2.652028,30.901897 2.306112,30.901897 C2.306112,30.901897 1.960195,30.901897 1.960195,30.786592 C1.960195,30.555981 2.767334,30.325369 2.767334,29.979453 L2.652028,29.864147 C2.536723,29.864147 2.421417,29.748841 2.421417,29.748841 C1.960195,29.748841 1.614278,29.979453 1.268361,29.979453 L1.03775,29.864147 L1.383667,29.51823 C1.268361,29.402925 0.461222,29.057008 0.461222,28.941702 C0.461222,28.711091 1.03775,28.711091 1.03775,28.249869 C1.03775,28.134563 0.922445,27.673341 1.153056,27.673341 L1.268361,27.673341 C2.306112,28.711091 5.073446,30.094758 6.572418,30.094758 C7.033641,30.094758 7.379558,29.979453 7.725474,29.864147 C7.379558,29.633536 6.111196,29.633536 6.111196,29.287619 L5.995891,29.172313 C5.419363,29.287619 2.536723,29.057008 2.536723,28.249869 L2.767334,28.134563 C2.997945,28.134563 3.228556,28.249869 3.574473,28.249869 C3.689779,28.249869 4.95814,28.019258 4.95814,27.788646 C4.95814,27.788646 3.343862,27.44273 3.343862,27.212119 C3.574473,27.212119 3.92039,27.096813 4.035696,26.981507 C4.266307,26.866202 4.727529,26.750896 4.727529,26.520285 L4.035696,26.289674 C3.805084,26.174368 3.228556,26.059063 3.113251,25.828451 C3.113251,25.59784 3.689779,25.59784 3.805084,25.482535 C3.574473,25.136618 2.536723,23.407034 2.536723,23.176423 L2.652028,23.176423 C2.767334,23.176423 3.228556,23.52234 3.343862,23.637645 C4.151001,24.214173 7.725474,25.828451 8.763225,25.828451 C8.993836,25.828451 9.339753,25.828451 9.455058,25.59784 C9.339753,25.59784 8.993836,25.59784 8.87853,25.482535 L8.993836,25.136618 C8.647919,25.136618 6.572418,25.021312 6.572418,24.444784 C6.572418,24.214173 6.918335,24.329479 6.918335,24.098868 L6.918335,23.983562 C6.457113,23.868256 5.995891,23.752951 5.649974,23.52234 C5.534668,23.407034 4.842835,22.945812 4.842835,22.715201 C4.842835,22.599895 4.95814,22.484589 5.073446,22.484589 C5.188751,22.484589 5.534668,22.599895 5.534668,22.369284 C5.534668,21.908062 5.304057,21.562145 5.304057,21.100922 L5.304057,20.985617 C5.649974,20.985617 7.956085,24.329479 11.530559,24.329479 C12.337698,24.329479 13.490754,24.098868 14.067282,23.407034 L13.951976,23.407034 C13.490754,23.407034 13.029531,23.983562 12.453003,23.983562 C12.337698,23.983562 12.222392,23.983562 12.222392,23.868256 C12.222392,23.752951 12.337698,23.637645 12.337698,23.52234 C12.222392,23.52234 12.222392,23.407034 12.107087,23.407034 C11.876475,23.407034 11.530559,23.637645 11.299948,23.637645 C11.184642,23.637645 11.069336,23.52234 11.069336,23.407034 C11.069336,23.291729 11.184642,23.176423 11.184642,23.061117 C11.184642,22.945812 11.184642,22.945812 11.069336,22.945812 L10.838725,22.945812 C10.492808,22.945812 9.224447,23.061117 8.993836,22.830506 C8.993836,22.715201 9.455058,22.484589 9.570364,22.253978 C9.109141,22.253978 8.763225,22.369284 8.302002,22.369284 C8.071391,22.369284 7.84078,22.369284 7.610169,22.138673 C7.610169,22.023367 8.186697,21.908062 8.302002,21.792756 C8.302002,21.67745 7.956085,21.67745 7.84078,21.67745 C7.379558,21.67745 6.457113,21.562145 6.226502,21.100922 C6.226502,20.870311 6.918335,20.985617 7.148946,20.755006 C7.148946,20.6397 6.80303,20.524394 6.687724,20.524394 C6.341807,20.409089 4.842835,19.832561 4.842835,19.371339 L4.95814,19.256033 C5.534668,19.256033 6.572418,19.486644 6.572418,18.679505 C6.572418,17.872366 5.880585,16.71931 5.880585,16.488699 L5.880585,16.373393 C5.880585,16.373393 5.880585,16.142782 5.995891,16.142782 C6.226502,16.142782 7.379558,17.872366 8.302002,17.872366 C8.417308,17.872366 8.532613,17.75706 8.532613,17.641755 C8.532613,17.526449 8.302002,17.065227 8.647919,17.065227 C9.109141,17.065227 9.800975,18.102977 10.262197,18.102977 C10.262197,17.872366 10.262197,17.526449 10.377503,17.295838 C10.72342,17.295838 11.184642,18.679505 12.107087,18.679505 L12.337698,18.679505 C12.222392,18.564199 11.991781,18.448894 11.991781,18.218283 L11.991781,17.872366 C11.991781,17.75706 11.876475,17.75706 11.876475,17.641755 C11.76117,17.526449 11.530559,17.411144 11.530559,17.180532 C11.645864,17.180532 11.876475,16.949921 11.876475,16.834616 C11.876475,16.488699 10.72342,16.71931 10.72342,16.142782 C11.069336,16.142782 11.76117,16.027477 11.876475,15.68156 C11.645864,15.68156 10.031586,15.450949 10.031586,15.220337 C10.031586,14.989726 10.492808,15.105032 10.492808,14.874421 C10.492808,14.528504 9.455058,14.297893 9.224447,13.951976 C9.224447,13.83667 9.224447,13.721365 9.339753,13.721365 L9.570364,13.606059 C9.800975,13.606059 9.91628,13.606059 9.91628,13.375448 C9.91628,13.029531 9.800975,12.683615 9.800975,12.337698 L9.800975,12.222392 C10.031586,12.222392 10.608114,13.144837 10.72342,13.260142 C11.184642,13.951976 13.606059,15.912171 14.297893,15.912171 C14.528504,15.912171 14.759115,15.796865 14.874421,15.68156 C14.874421,14.989726 13.83667,14.874421 13.83667,14.413198 C13.83667,14.067282 13.951976,13.721365 13.721365,13.490754 C13.606059,13.375448 13.260142,13.375448 13.260142,13.144837 C13.260142,12.914226 13.721365,12.79892 13.721365,12.568309 C13.721365,12.337698 13.490754,12.222392 13.375448,12.222392 C13.260142,12.222392 12.683615,12.222392 12.683615,12.107087 C12.683615,10.838725 11.76117,11.76117 11.76117,11.184642 C11.76117,10.954031 12.107087,10.838725 12.107087,10.031586 C12.453003,10.377503 13.490754,11.645864 14.067282,11.645864 C14.182587,11.645864 14.297893,11.530559 14.413198,11.415253 C14.528504,11.299948 14.64381,11.184642 14.64381,11.069336 C14.64381,10.954031 14.528504,10.838725 14.528504,10.72342 L14.297893,10.72342 C14.067282,10.72342 13.260142,10.838725 13.144837,10.608114 C13.144837,10.492808 13.490754,10.262197 13.490754,10.031586 L13.490754,9.91628 C13.490754,9.800975 13.260142,9.339753 13.606059,9.339753 C13.83667,9.339753 14.182587,9.455058 14.413198,9.570364 L14.759115,9.570364 C14.759115,9.224447 13.83667,8.993836 13.83667,8.647919 C13.83667,8.302002 14.64381,8.532613 14.759115,8.071391 C14.64381,8.071391 14.297893,8.071391 14.297893,7.84078 L14.297893,7.725474 C14.413198,7.610169 14.874421,7.610169 14.874421,7.379558 C14.874421,7.264252 13.721365,6.226502 13.721365,6.226502 C13.721365,6.111196 13.606059,6.111196 13.606059,5.995891 C13.606059,5.880585 13.721365,5.880585 13.721365,5.880585 C14.067282,5.880585 14.413198,6.226502 14.64381,6.226502 L14.759115,6.226502 C14.874421,6.111196 14.989726,5.995891 14.989726,5.880585 C14.989726,4.612223 14.182587,5.073446 13.951976,4.496918 L13.83667,4.381612 C13.83667,4.266307 14.067282,4.266307 14.067282,4.266307 L14.067282,4.035696 C13.721365,3.689779 15.105032,3.92039 15.105032,3.459168 C15.105032,3.228556 14.297893,2.997945 14.297893,2.536723 L14.297893,2.421417 C14.528504,2.306112 14.989726,2.190806 15.105032,2.075501 C15.105032,1.729584 14.989726,0 15.450949,0 C15.796865,0 15.796865,1.844889 15.796865,2.190806 C15.796865,2.536723 15.68156,2.997945 15.912171,3.228556 C16.027477,3.574473 16.604005,3.459168 16.834616,3.689779 C16.834616,3.92039 16.142782,4.266307 16.027477,4.381612 C16.142782,4.496918 16.258088,4.496918 16.373393,4.496918 L16.488699,4.496918 C16.373393,4.95814 15.796865,5.073446 15.796865,5.419363 C15.796865,5.880585 16.949921,5.649974 16.949921,5.765279 C16.949921,6.111196 16.142782,6.457113 16.027477,6.80303 L16.488699,6.80303 C16.488699,6.918335 16.373393,6.918335 16.373393,7.033641 C16.373393,7.264252 16.142782,7.494863 16.142782,7.610169 C16.142782,7.725474 16.142782,7.725474 16.258088,7.725474 C16.373393,7.725474 16.488699,7.725474 16.604005,7.610169 L16.604005,7.725474 C16.604005,8.302002 16.142782,8.186697 16.142782,8.532613 C16.373393,8.647919 16.604005,8.647919 16.834616,8.647919 C17.411144,8.647919 17.641755,8.071391 17.987672,8.071391 C18.102977,8.071391 18.102977,8.186697 18.102977,8.186697 C18.102977,8.417308 17.641755,8.87853 17.641755,8.993836 C17.641755,8.993836 17.641755,9.109141 17.75706,9.109141 C17.987672,9.109141 18.218283,8.87853 18.333588,8.87853 L18.448894,8.87853 C18.448894,9.800975 16.142782,10.262197 16.142782,10.608114 L16.142782,10.838725 L16.488699,10.838725 C17.065227,10.838725 17.641755,10.492808 18.218283,10.262197 C18.333588,10.146892 18.564199,9.91628 18.679505,9.91628 C18.794811,9.91628 18.794811,10.031586 18.794811,10.146892 C18.794811,10.492808 18.102977,11.069336 18.102977,11.069336 C18.102977,11.184642 18.218283,11.299948 18.333588,11.299948 C18.448894,11.299948 19.025422,11.069336 19.025422,11.299948 C19.025422,11.645864 17.526449,11.991781 17.295838,12.222392 C17.295838,12.337698 17.411144,12.337698 17.411144,12.337698 C17.75706,12.337698 17.987672,12.107087 18.218283,12.107087 C18.333588,12.107087 18.448894,12.107087 18.448894,12.222392 C18.448894,12.453003 18.218283,12.683615 18.102977,12.914226 C18.102977,13.144837 17.987672,13.260142 17.872366,13.490754 C18.794811,13.029531 19.832561,12.683615 20.524394,11.76117 C20.6397,11.645864 20.755006,11.184642 20.985617,11.184642 C21.100922,11.184642 21.100922,11.299948 21.100922,11.299948 C21.100922,11.530559 20.6397,12.79892 20.524394,12.914226 L20.409089,13.490754 L20.524394,13.490754 C20.6397,13.490754 20.870311,13.260142 20.870311,13.606059 C20.870311,14.182587 19.832561,14.528504 19.371339,14.64381 C18.794811,15.220337 18.448894,15.105032 17.641755,15.105032 C17.75706,15.105032 17.872366,15.220337 17.872366,15.335643 C17.872366,15.68156 17.526449,15.796865 17.526449,16.027477 L17.641755,16.027477 C18.910116,16.027477 20.755006,14.989726 20.870311,14.989726 C20.985617,14.989726 20.985617,15.105032 20.985617,15.220337 C20.985617,15.796865 19.832561,16.488699 19.371339,16.71931 C19.140727,17.526449 17.872366,17.526449 17.180532,17.526449 L16.488699,18.102977 C16.71931,18.333588 16.834616,18.333588 17.065227,18.333588 C19.486644,18.333588 21.562145,15.566254 21.792756,15.566254 L21.792756,15.68156 C21.792756,16.488699 20.985617,17.295838 20.524394,17.987672 C20.6397,17.987672 20.755006,18.102977 20.755006,18.218283 C20.755006,18.794811 19.717255,19.025422 19.256033,19.256033 C19.371339,19.717255 17.180532,21.331534 16.71931,21.331534 L16.949921,21.331534 C18.102977,21.331534 20.985617,19.486644 21.792756,18.794811 L22.945812,17.75706 C23.061117,17.75706 23.061117,17.526449 23.176423,17.526449 C23.176423,17.526449 23.291729,17.526449 23.291729,17.641755 C23.291729,18.102977 21.908062,19.717255 21.562145,20.178478 C21.67745,20.178478 21.792756,20.409089 21.792756,20.409089 C21.792756,20.6397 20.870311,21.792756 20.755006,21.792756 C20.870311,21.792756 21.100922,21.908062 21.100922,22.023367 C21.100922,22.253978 20.870311,22.369284 20.870311,22.599895 C20.870311,22.715201 20.985617,22.715201 20.985617,22.715201 C21.67745,22.715201 23.291729,21.331534 23.52234,21.331534 C23.637645,21.331534 23.752951,21.446839 23.752951,21.562145 C23.752951,22.138673 23.407034,22.715201 23.291729,23.291729 C23.291729,23.407034 22.830506,23.752951 22.830506,23.868256 C22.830506,23.983562 22.945812,23.983562 22.945812,23.983562 C23.637645,23.983562 24.56009,22.715201 25.136618,22.715201 C25.251924,22.715201 25.367229,22.830506 25.367229,22.830506 C25.367229,23.061117 25.021312,23.291729 25.482535,23.291729 C26.059063,23.291729 27.096813,22.599895 27.327424,22.599895 C27.44273,22.599895 27.44273,22.715201 27.44273,22.830506 C27.44273,23.752951 24.444784,25.136618 23.983562,25.367229 C24.214173,25.367229 25.136618,25.251924 25.136618,25.482535 C25.136618,25.828451 24.56009,26.174368 24.214173,26.174368 L22.945812,26.520285 C22.945812,26.750896 23.291729,26.635591 23.291729,26.866202 C23.291729,27.673341 19.717255,28.019258 19.371339,28.249869 C19.025422,28.48048 17.641755,28.941702 17.641755,28.941702 C17.872366,29.057008 18.102977,29.172313 18.333588,29.172313 C19.371339,29.172313 20.6397,28.711091 21.562145,28.365174 C21.67745,28.365174 21.792756,28.249869 22.023367,28.249869 L22.023367,28.365174 C22.023367,28.711091 20.755006,29.633536 20.409089,29.748841 L19.717255,29.979453 C19.832561,30.440675 19.256033,30.555981 18.910116,30.555981 L18.679505,30.555981 C18.794811,30.671286 18.794811,30.671286 18.910116,30.671286 C19.371339,30.671286 22.023367,29.748841 22.369284,29.51823 L23.52234,28.711091 C23.637645,28.711091 23.752951,28.826397 23.752951,28.941702 C23.752951,29.402925 23.176423,30.094758 22.830506,30.210064 C22.715201,30.786592 22.369284,31.132508 22.023367,31.478425 L22.138673,31.478425 C23.176423,31.478425 25.251924,28.134563 26.059063,27.327424 L26.174368,27.558035 C26.174368,28.019258 25.713146,28.941702 25.482535,29.51823 L25.59784,29.51823 C25.713146,29.51823 25.828451,29.51823 25.943757,29.633536 C25.943757,30.440675 24.790701,30.901897 24.329479,31.36312 C24.444784,31.478425 24.56009,31.478425 24.675396,31.478425 C24.675396,31.824342 24.098868,32.516176 23.752951,32.631481 L23.868256,32.631481 C23.983562,32.631481 24.214173,32.516176 24.329479,32.516176 C24.444784,32.516176 24.444784,32.631481 24.444784,32.631481 C24.444784,33.092703 22.253978,33.669231 21.908062,33.784537 C21.908062,34.015148 22.715201,34.015148 22.830506,34.015148 C25.136618,34.015148 26.866202,32.054953 27.44273,32.054953 L27.44273,32.170259 C27.44273,32.516176 26.866202,32.862092 26.866202,33.092703 C26.866202,33.208009 26.981507,33.208009 27.096813,33.208009 L27.327424,33.208009 C27.44273,33.092703 27.673341,32.977398 27.903952,32.977398 L28.019258,33.092703 C28.019258,33.323315 27.558035,33.669231 27.44273,33.784537 L26.059063,34.937593 C26.059063,35.052898 26.289674,35.052898 26.289674,35.052898 C26.404979,35.052898 26.750896,35.052898 26.750896,35.168204 C26.750896,35.514121 25.251924,36.32126 24.906007,36.551871 C25.021312,36.782482 25.828451,36.782482 26.059063,36.782482 C27.096813,36.782482 28.134563,36.32126 29.172313,36.32126 C29.287619,36.32126 29.402925,36.436565 29.402925,36.551871 L29.402925,36.667177 C29.402925,36.782482 29.633536,36.782482 29.633536,36.782482 C29.864147,36.667177 30.210064,36.551871 30.440675,36.551871 C30.555981,36.551871 30.555981,36.551871 30.555981,36.667177 C30.555981,37.704927 27.903952,37.820233 27.327424,37.820233 L27.788646,38.166149 C27.673341,38.281455 27.558035,38.281455 27.44273,38.281455 C26.635591,38.281455 26.059063,38.166149 25.367229,37.820233 C25.367229,38.050844 25.367229,38.39676 25.136618,38.39676 C24.329479,38.39676 24.098868,37.935538 23.52234,37.820233 C23.407034,37.935538 23.291729,38.050844 23.061117,38.050844 C22.599895,38.050844 22.023367,37.474316 21.562145,37.474316 C21.331534,37.474316 21.216228,37.589621 20.985617,37.589621 C20.985617,37.589621 20.755006,37.474316 20.6397,37.474316 C20.6397,37.820233 22.945812,38.281455 23.061117,38.39676 C22.945812,38.512066 22.830506,38.857983 22.599895,38.857983 C22.715201,38.857983 22.830506,38.973288 22.945812,39.088594 C22.945812,39.2039 22.599895,39.665122 22.599895,39.780427 C22.599895,39.895733 22.715201,39.895733 22.830506,39.895733 C23.061117,39.895733 23.752951,39.549816 23.983562,39.434511 L25.021312,39.088594 C25.251924,38.857983 25.482535,38.742677 25.713146,38.627372 L25.828451,38.857983 C25.828451,39.088594 25.482535,39.434511 25.482535,39.665122 C26.289674,39.665122 28.826397,38.050844 29.057008,38.050844 C29.057008,38.050844 29.172313,38.166149 29.172313,38.281455 C29.172313,38.39676 28.941702,38.627372 28.826397,38.742677 L28.48048,39.434511 L27.903952,39.895733 C28.249869,39.895733 28.826397,39.549816 29.057008,39.434511 L29.287619,39.665122 C29.172313,39.895733 28.941702,40.472261 28.711091,40.587567 C28.595786,40.702872 28.249869,41.048789 28.249869,41.164095 C28.249869,41.2794 28.365174,41.2794 28.365174,41.2794 C28.826397,41.2794 29.633536,40.933483 29.979453,40.587567 C30.094758,40.472261 30.210064,40.24165 30.325369,40.24165 L30.325369,40.356955 C30.325369,41.510011 27.44273,42.778373 26.520285,43.12429 L26.635591,43.12429 C27.212119,43.12429 27.903952,42.893678 28.48048,42.893678 C28.595786,42.778373 28.826397,42.663067 28.941702,42.663067 C28.941702,42.663067 29.057008,42.663067 29.057008,42.778373 C29.057008,43.12429 28.711091,43.354901 28.48048,43.470206 C28.48048,43.585512 28.595786,43.700817 28.711091,43.700817 C28.711091,44.392651 25.943757,44.738568 25.367229,44.853873 C25.367229,44.969179 25.482535,44.969179 25.482535,44.969179 C25.943757,45.19979 27.212119,45.430401 27.673341,45.430401 C28.249869,45.430401 28.826397,45.315096 29.402925,45.315096 L29.633536,45.315096 C29.633536,45.661012 29.057008,45.776318 29.057008,46.122235 C29.172313,46.122235 29.287619,46.23754 29.402925,46.23754 C29.864147,46.23754 30.325369,45.891624 30.786592,45.891624 L30.901897,45.891624 C30.901897,46.583457 28.48048,47.621207 28.48048,47.851819 C28.48048,47.967124 28.711091,48.197735 28.826397,48.197735 C28.826397,48.889569 27.212119,48.774263 26.866202,48.774263 L26.635591,48.774263 C26.750896,48.889569 26.750896,49.004874 26.750896,49.004874 C26.289674,49.350791 25.59784,49.466097 25.136618,49.581402 C24.906007,49.581402 24.098868,49.466097 23.983562,49.696708 C24.329479,49.812014 24.675396,49.812014 25.021312,49.812014 L26.174368,49.812014 L26.289674,50.042625 C26.289674,50.273236 26.059063,50.388541 25.943757,50.503847 L26.174368,50.619153 C26.404979,50.619153 26.750896,50.503847 26.866202,50.388541 C27.327424,50.273236 29.51823,49.004874 29.51823,49.004874 C29.633536,49.004874 29.633536,49.12018 29.633536,49.12018 C29.633536,49.696708 28.249869,50.619153 28.249869,50.965069 C28.249869,51.195681 28.826397,51.195681 28.941702,51.195681 C29.172313,51.195681 29.402925,51.080375 29.633536,51.080375 C29.633536,51.080375 29.748841,51.080375 29.748841,51.195681 C29.748841,51.887514 27.673341,52.00282 27.212119,52.00282 L27.44273,52.118125 C27.558035,52.118125 27.558035,52.348736 27.558035,52.348736 C27.44273,52.464042 26.750896,52.464042 26.635591,52.464042 C26.289674,52.464042 25.828451,52.348736 25.482535,52.579348 C25.943757,52.809959 26.520285,52.925264 27.096813,52.925264 C27.44273,52.925264 27.788646,52.694653 28.134563,52.694653 C28.249869,52.694653 28.365174,52.694653 28.365174,52.809959 C28.365174,53.271181 26.750896,53.963015 26.289674,53.963015 C26.059063,54.193626 25.828451,53.963015 25.59784,54.308931 C25.713146,54.308931 25.828451,54.308931 25.828451,54.424237 L25.943757,54.539543 C25.943757,55.116071 24.790701,55.000765 24.790701,55.577293 L24.790701,55.692598 L24.675396,55.92321 C24.444784,56.038515 22.484589,56.384432 22.369284,56.499738 C22.484589,56.730349 23.407034,56.730349 23.637645,56.730349 C26.289674,56.730349 28.134563,54.770154 29.748841,52.925264 C29.864147,52.925264 29.979453,52.694653 30.094758,52.694653 C30.094758,52.694653 30.210064,52.809959 30.210064,52.925264 C30.210064,53.155876 30.094758,53.386487 30.094758,53.617098 C30.094758,53.732404 30.210064,53.847709 30.325369,53.847709 C30.555981,53.847709 30.671286,53.732404 30.901897,53.732404 C31.017203,53.732404 31.017203,53.732404 31.017203,53.847709 C31.017203,54.308931 29.864147,55.346682 29.864147,55.807904 C29.864147,56.038515 30.671286,56.269126 30.786592,56.269126 L31.247814,56.153821 L31.247814,56.269126 C31.247814,56.615043 30.210064,56.96096 30.094758,57.191571 C30.210064,57.191571 30.786592,57.191571 30.786592,57.422182 C30.786592,58.229321 28.365174,58.229321 27.903952,58.229321 C27.903952,58.459933 28.134563,58.459933 28.249869,58.575238 C28.249869,58.921155 27.558035,58.921155 27.327424,58.921155 C27.096813,58.921155 26.866202,58.921155 26.635591,58.805849 C26.404979,58.805849 26.059063,58.690544 25.828451,58.690544 L25.713146,58.690544 C25.59784,58.690544 25.59784,58.690544 25.482535,58.805849 L24.675396,58.805849 C24.56009,58.690544 23.983562,58.575238 23.752951,58.575238 L23.637645,58.575238 C23.752951,58.805849 24.675396,58.921155 24.906007,59.036461 C24.329479,60.189516 23.637645,60.535433 22.369284,60.535433 L21.446839,60.996655 C21.100922,60.996655 20.755006,60.996655 20.409089,60.766044 C20.6397,61.457878 20.293783,61.573183 19.717255,61.573183 C19.140727,61.573183 18.564199,61.342572 17.987672,61.227267 C17.987672,61.457878 20.063172,61.9191 20.6397,61.9191 C22.023367,61.9191 24.906007,61.227267 25.713146,60.074211 C25.713146,60.074211 25.367229,59.8436 25.367229,59.612988 L25.367229,59.497683 C25.943757,59.497683 26.520285,59.728294 27.096813,59.728294 C27.44273,59.728294 27.903952,59.728294 28.249869,59.612988 C28.365174,59.497683 28.595786,59.382377 28.711091,59.382377 C28.711091,59.382377 28.826397,59.267072 28.826397,59.151766 L28.711091,58.921155 C28.826397,58.805849 28.941702,58.805849 29.057008,58.805849 C30.325369,58.805849 31.478425,58.459933 32.631481,58.114016 Z M8.302002,20.293783 C8.763225,20.409089 9.455058,20.409089 9.91628,20.6397 C10.377503,20.870311 10.72342,21.216228 11.299948,21.216228 C11.991781,21.216228 12.683615,20.985617 13.029531,20.409089 C13.029531,20.293783 12.683615,20.293783 12.568309,20.293783 C12.107087,20.293783 11.991781,20.293783 11.530559,20.6397 C11.069336,20.6397 10.72342,20.293783 10.262197,20.293783 C10.146892,20.293783 9.91628,20.409089 9.685669,20.409089 C8.993836,20.409089 9.339753,19.717255 8.763225,19.717255 C8.417308,19.717255 7.956085,19.60195 7.610169,19.60195 L7.494863,19.60195 C7.494863,19.832561 8.186697,20.178478 8.302002,20.293783 Z M7.033641,61.342572 C7.84078,61.688489 9.685669,61.9191 10.492808,61.9191 C10.954031,61.9191 11.645864,61.9191 11.76117,61.457878 C11.415253,61.573183 10.954031,61.573183 10.608114,61.573183 C10.492808,61.573183 9.800975,61.573183 9.800975,61.457878 C9.800975,61.342572 10.146892,61.342572 10.146892,61.111961 L8.87853,61.111961 C8.302002,61.111961 7.610169,61.111961 7.033641,61.342572 Z M23.176423,41.164095 C22.945812,41.164095 22.715201,41.2794 22.369284,41.394706 C21.908062,41.510011 21.216228,41.510011 20.755006,41.510011 C20.755006,41.855928 21.792756,42.086539 22.138673,42.086539 L22.253978,42.086539 C22.253978,41.971234 22.138673,41.740622 22.369284,41.740622 C22.715201,41.740622 23.061117,41.855928 23.407034,41.855928 C23.752951,41.855928 24.444784,41.855928 24.56009,41.510011 C24.214173,41.394706 23.637645,41.164095 23.176423,41.164095 Z M13.83667,37.35901 C13.144837,37.35901 12.453003,37.474316 11.76117,37.474316 C11.645864,37.474316 11.069336,37.35901 11.069336,37.589621 C11.069336,37.704927 12.337698,38.050844 12.568309,38.050844 C12.79892,38.050844 12.79892,38.39676 13.029531,38.39676 C13.260142,38.39676 13.721365,37.935538 13.83667,37.820233 C13.951976,37.935538 13.951976,37.935538 14.067282,37.820233 L14.182587,37.474316 C14.067282,37.35901 13.951976,37.35901 13.83667,37.35901 Z M6.226502,37.013093 C6.226502,37.589621 7.033641,37.704927 7.494863,37.820233 C7.956085,37.935538 8.186697,38.281455 8.647919,38.39676 C8.763225,38.39676 8.763225,38.281455 8.763225,38.166149 C8.763225,37.243705 7.379558,37.35901 6.80303,37.128399 C6.572418,37.013093 6.457113,36.897788 6.226502,36.897788 L6.226502,37.013093 Z M13.606059,56.038515 C13.029531,56.038515 12.568309,56.269126 11.991781,56.269126 C12.107087,56.615043 13.029531,56.730349 13.375448,56.730349 L13.490754,56.730349 C13.721365,56.730349 14.067282,56.615043 14.067282,56.269126 C14.067282,56.038515 13.721365,56.038515 13.606059,56.038515 Z M17.641755,43.354901 L16.142782,43.12429 C16.142782,43.700817 17.065227,43.931429 17.411144,43.931429 L18.218283,43.931429 C18.102977,43.700817 17.872366,43.585512 17.641755,43.354901 Z M13.490754,62.841545 L13.260142,63.187462 L13.375448,63.187462 C13.721365,63.187462 14.413198,62.610934 14.413198,62.265017 C14.413198,62.149711 14.182587,62.149711 14.067282,62.149711 C13.490754,62.495628 12.683615,62.610934 11.991781,62.841545 C11.991781,62.95685 12.107087,62.95685 12.222392,62.95685 C12.568309,62.95685 12.914226,62.726239 13.260142,62.726239 C13.375448,62.726239 13.490754,62.726239 13.490754,62.841545 Z M8.993836,28.134563 C8.532613,27.903952 8.186697,27.673341 7.725474,27.673341 L7.379558,27.673341 C7.725474,27.903952 9.109141,28.711091 9.339753,28.711091 C9.455058,28.595786 9.455058,28.365174 9.455058,28.249869 C9.455058,28.134563 9.455058,28.019258 9.339753,28.019258 L8.993836,28.134563 Z M9.685669,28.826397 L9.570364,28.826397 C9.91628,29.057008 10.262197,29.172313 10.608114,29.172313 C10.838725,29.172313 11.299948,29.057008 11.415253,28.826397 C10.954031,28.826397 10.838725,28.826397 10.608114,28.365174 L10.492808,28.365174 C10.262197,28.365174 9.91628,28.595786 9.685669,28.826397 Z M10.954031,42.086539 C10.954031,41.855928 10.492808,41.971234 10.262197,41.740622 L9.800975,41.740622 C9.685669,41.740622 9.455058,41.740622 9.339753,41.855928 L10.262197,42.31715 C10.377503,42.31715 10.954031,42.31715 10.954031,42.086539 Z M19.832561,43.931429 L18.218283,43.931429 C18.333588,44.046734 19.025422,44.277345 19.256033,44.277345 L19.60195,44.277345 C19.717255,44.16204 19.832561,44.046734 19.832561,43.931429 Z M6.918335,39.780427 L7.148946,40.356955 C7.264252,40.472261 7.610169,40.587567 7.84078,40.587567 L7.956085,40.587567 C7.725474,40.356955 7.148946,39.780427 6.918335,39.780427 Z M12.79892,54.654848 L12.79892,54.770154 L13.029531,54.770154 C13.144837,54.770154 13.83667,54.539543 13.83667,54.424237 L12.79892,54.654848 Z M13.721365,17.180532 C13.83667,17.295838 13.83667,17.411144 14.067282,17.411144 L13.83667,17.180532 L13.721365,17.180532 Z M14.759115,18.218283 C14.759115,17.987672 14.528504,17.872366 14.413198,17.75706 L14.759115,18.218283 Z M17.75706,61.227267 C17.75706,61.111961 17.75706,61.111961 17.641755,61.111961 C17.641755,61.227267 17.641755,61.227267 17.75706,61.227267 Z M22.484589,18.564199 C22.369284,18.564199 22.369284,18.564199 22.369284,18.679505 C22.484589,18.679505 22.484589,18.679505 22.484589,18.564199 Z M14.759115,7.84078 L14.874421,7.84078 L14.874421,7.725474 L14.759115,7.84078 Z M17.526449,61.111961 C17.526449,60.996655 17.526449,60.996655 17.411144,60.996655 L17.526449,61.111961 Z" id="W"></path>
        </g>
    </g>
</svg>